G04 #@! TF.FileFunction,Legend,Top*
%FSLAX46Y46*%
G04 Gerber Fmt 4.6, Leading zero omitted, Abs format (unit mm)*
G04 Created by KiCad (PCBNEW 4.0.7-e0-6372~58~ubuntu16.04.1) date Wed Aug  1 16:39:32 2018*
%MOMM*%
%LPD*%
G01*
G04 APERTURE LIST*
%ADD10C,0.100000*%
%ADD11C,0.010000*%
%ADD12C,0.150000*%
G04 APERTURE END LIST*
D10*
D11*
G36*
X82359500Y-58144833D02*
X81851500Y-58144833D01*
X81851500Y-59505504D01*
X82126666Y-59796625D01*
X82401833Y-60087746D01*
X82401833Y-61860194D01*
X82126666Y-62134750D01*
X81851500Y-62409305D01*
X81851500Y-63923333D01*
X82359500Y-63923333D01*
X82359500Y-64113833D01*
X81639833Y-64113833D01*
X81639833Y-62317842D01*
X82211333Y-61776882D01*
X82211333Y-60181477D01*
X81641467Y-59573583D01*
X81639833Y-57954333D01*
X82359500Y-57954333D01*
X82359500Y-58144833D01*
X82359500Y-58144833D01*
G37*
X82359500Y-58144833D02*
X81851500Y-58144833D01*
X81851500Y-59505504D01*
X82126666Y-59796625D01*
X82401833Y-60087746D01*
X82401833Y-61860194D01*
X82126666Y-62134750D01*
X81851500Y-62409305D01*
X81851500Y-63923333D01*
X82359500Y-63923333D01*
X82359500Y-64113833D01*
X81639833Y-64113833D01*
X81639833Y-62317842D01*
X82211333Y-61776882D01*
X82211333Y-60181477D01*
X81641467Y-59573583D01*
X81639833Y-57954333D01*
X82359500Y-57954333D01*
X82359500Y-58144833D01*
G36*
X92223166Y-64113833D02*
X91567000Y-64113833D01*
X91567000Y-63923333D01*
X92032817Y-63923333D01*
X92027450Y-61039375D01*
X92022083Y-58155416D01*
X91762791Y-58149473D01*
X91503500Y-58143530D01*
X91503500Y-57954333D01*
X92223166Y-57954333D01*
X92223166Y-64113833D01*
X92223166Y-64113833D01*
G37*
X92223166Y-64113833D02*
X91567000Y-64113833D01*
X91567000Y-63923333D01*
X92032817Y-63923333D01*
X92027450Y-61039375D01*
X92022083Y-58155416D01*
X91762791Y-58149473D01*
X91503500Y-58143530D01*
X91503500Y-57954333D01*
X92223166Y-57954333D01*
X92223166Y-64113833D01*
G36*
X82909833Y-63351833D02*
X82465333Y-63351833D01*
X82465333Y-62865000D01*
X82909833Y-62865000D01*
X82909833Y-63351833D01*
X82909833Y-63351833D01*
G37*
X82909833Y-63351833D02*
X82465333Y-63351833D01*
X82465333Y-62865000D01*
X82909833Y-62865000D01*
X82909833Y-63351833D01*
G36*
X83798833Y-60187416D02*
X83801603Y-60246940D01*
X83813104Y-60275087D01*
X83838125Y-60282630D01*
X83841166Y-60282666D01*
X83851735Y-60283675D01*
X83860381Y-60289276D01*
X83867296Y-60303333D01*
X83872673Y-60329708D01*
X83876707Y-60372264D01*
X83879590Y-60434864D01*
X83881515Y-60521371D01*
X83882675Y-60635646D01*
X83883264Y-60781554D01*
X83883474Y-60962957D01*
X83883500Y-61129333D01*
X83883500Y-61976000D01*
X83544833Y-61976000D01*
X83544833Y-61192833D01*
X83312000Y-61192833D01*
X83312000Y-61976000D01*
X82973333Y-61976000D01*
X82973333Y-60409666D01*
X83312000Y-60409666D01*
X83312000Y-60875333D01*
X83544833Y-60875333D01*
X83544833Y-60409666D01*
X83312000Y-60409666D01*
X82973333Y-60409666D01*
X82973333Y-60282666D01*
X83026250Y-60282666D01*
X83058903Y-60278718D01*
X83074374Y-60259313D01*
X83078964Y-60213107D01*
X83079166Y-60187416D01*
X83079166Y-60092166D01*
X83798833Y-60092166D01*
X83798833Y-60187416D01*
X83798833Y-60187416D01*
G37*
X83798833Y-60187416D02*
X83801603Y-60246940D01*
X83813104Y-60275087D01*
X83838125Y-60282630D01*
X83841166Y-60282666D01*
X83851735Y-60283675D01*
X83860381Y-60289276D01*
X83867296Y-60303333D01*
X83872673Y-60329708D01*
X83876707Y-60372264D01*
X83879590Y-60434864D01*
X83881515Y-60521371D01*
X83882675Y-60635646D01*
X83883264Y-60781554D01*
X83883474Y-60962957D01*
X83883500Y-61129333D01*
X83883500Y-61976000D01*
X83544833Y-61976000D01*
X83544833Y-61192833D01*
X83312000Y-61192833D01*
X83312000Y-61976000D01*
X82973333Y-61976000D01*
X82973333Y-60409666D01*
X83312000Y-60409666D01*
X83312000Y-60875333D01*
X83544833Y-60875333D01*
X83544833Y-60409666D01*
X83312000Y-60409666D01*
X82973333Y-60409666D01*
X82973333Y-60282666D01*
X83026250Y-60282666D01*
X83058903Y-60278718D01*
X83074374Y-60259313D01*
X83078964Y-60213107D01*
X83079166Y-60187416D01*
X83079166Y-60092166D01*
X83798833Y-60092166D01*
X83798833Y-60187416D01*
G36*
X85026500Y-60409666D02*
X84751333Y-60409666D01*
X84751333Y-61976000D01*
X84412666Y-61976000D01*
X84412666Y-60409666D01*
X84116333Y-60409666D01*
X84116333Y-60092166D01*
X85026500Y-60092166D01*
X85026500Y-60409666D01*
X85026500Y-60409666D01*
G37*
X85026500Y-60409666D02*
X84751333Y-60409666D01*
X84751333Y-61976000D01*
X84412666Y-61976000D01*
X84412666Y-60409666D01*
X84116333Y-60409666D01*
X84116333Y-60092166D01*
X85026500Y-60092166D01*
X85026500Y-60409666D01*
G36*
X86169500Y-60409666D02*
X85894333Y-60409666D01*
X85894333Y-61976000D01*
X85534500Y-61976000D01*
X85534500Y-60409666D01*
X85259333Y-60409666D01*
X85259333Y-60092166D01*
X86169500Y-60092166D01*
X86169500Y-60409666D01*
X86169500Y-60409666D01*
G37*
X86169500Y-60409666D02*
X85894333Y-60409666D01*
X85894333Y-61976000D01*
X85534500Y-61976000D01*
X85534500Y-60409666D01*
X85259333Y-60409666D01*
X85259333Y-60092166D01*
X86169500Y-60092166D01*
X86169500Y-60409666D01*
G36*
X86741000Y-61976000D02*
X86402333Y-61976000D01*
X86402333Y-60092166D01*
X86741000Y-60092166D01*
X86741000Y-61976000D01*
X86741000Y-61976000D01*
G37*
X86741000Y-61976000D02*
X86402333Y-61976000D01*
X86402333Y-60092166D01*
X86741000Y-60092166D01*
X86741000Y-61976000D01*
G36*
X87799333Y-60187416D02*
X87802103Y-60246940D01*
X87813604Y-60275087D01*
X87838625Y-60282630D01*
X87841666Y-60282666D01*
X87852235Y-60283675D01*
X87860881Y-60289276D01*
X87867796Y-60303333D01*
X87873173Y-60329708D01*
X87877207Y-60372264D01*
X87880090Y-60434864D01*
X87882015Y-60521371D01*
X87883175Y-60635646D01*
X87883764Y-60781554D01*
X87883974Y-60962957D01*
X87884000Y-61129333D01*
X87884000Y-61976000D01*
X87545333Y-61976000D01*
X87545333Y-60409666D01*
X87312500Y-60409666D01*
X87312500Y-61976000D01*
X86973833Y-61976000D01*
X86973833Y-60092166D01*
X87799333Y-60092166D01*
X87799333Y-60187416D01*
X87799333Y-60187416D01*
G37*
X87799333Y-60187416D02*
X87802103Y-60246940D01*
X87813604Y-60275087D01*
X87838625Y-60282630D01*
X87841666Y-60282666D01*
X87852235Y-60283675D01*
X87860881Y-60289276D01*
X87867796Y-60303333D01*
X87873173Y-60329708D01*
X87877207Y-60372264D01*
X87880090Y-60434864D01*
X87882015Y-60521371D01*
X87883175Y-60635646D01*
X87883764Y-60781554D01*
X87883974Y-60962957D01*
X87884000Y-61129333D01*
X87884000Y-61976000D01*
X87545333Y-61976000D01*
X87545333Y-60409666D01*
X87312500Y-60409666D01*
X87312500Y-61976000D01*
X86973833Y-61976000D01*
X86973833Y-60092166D01*
X87799333Y-60092166D01*
X87799333Y-60187416D01*
G36*
X88455500Y-60875333D02*
X88688333Y-60875333D01*
X88688333Y-60092166D01*
X89027000Y-60092166D01*
X89027000Y-60547250D01*
X89026853Y-60697040D01*
X89026086Y-60809760D01*
X89024211Y-60890673D01*
X89020736Y-60945040D01*
X89015173Y-60978124D01*
X89007033Y-60995189D01*
X88995824Y-61001496D01*
X88984666Y-61002333D01*
X88958211Y-61008565D01*
X88945701Y-61034443D01*
X88942349Y-61090740D01*
X88942333Y-61097583D01*
X88942333Y-61192833D01*
X88751833Y-61192833D01*
X88751833Y-61976000D01*
X88392000Y-61976000D01*
X88392000Y-61192833D01*
X88201500Y-61192833D01*
X88201500Y-61097583D01*
X88198730Y-61038059D01*
X88187228Y-61009912D01*
X88162207Y-61002369D01*
X88159166Y-61002333D01*
X88145232Y-61000756D01*
X88134747Y-60992517D01*
X88127220Y-60972354D01*
X88122162Y-60935003D01*
X88119085Y-60875202D01*
X88117497Y-60787688D01*
X88116911Y-60667200D01*
X88116833Y-60547250D01*
X88116833Y-60092166D01*
X88455500Y-60092166D01*
X88455500Y-60875333D01*
X88455500Y-60875333D01*
G37*
X88455500Y-60875333D02*
X88688333Y-60875333D01*
X88688333Y-60092166D01*
X89027000Y-60092166D01*
X89027000Y-60547250D01*
X89026853Y-60697040D01*
X89026086Y-60809760D01*
X89024211Y-60890673D01*
X89020736Y-60945040D01*
X89015173Y-60978124D01*
X89007033Y-60995189D01*
X88995824Y-61001496D01*
X88984666Y-61002333D01*
X88958211Y-61008565D01*
X88945701Y-61034443D01*
X88942349Y-61090740D01*
X88942333Y-61097583D01*
X88942333Y-61192833D01*
X88751833Y-61192833D01*
X88751833Y-61976000D01*
X88392000Y-61976000D01*
X88392000Y-61192833D01*
X88201500Y-61192833D01*
X88201500Y-61097583D01*
X88198730Y-61038059D01*
X88187228Y-61009912D01*
X88162207Y-61002369D01*
X88159166Y-61002333D01*
X88145232Y-61000756D01*
X88134747Y-60992517D01*
X88127220Y-60972354D01*
X88122162Y-60935003D01*
X88119085Y-60875202D01*
X88117497Y-60787688D01*
X88116911Y-60667200D01*
X88116833Y-60547250D01*
X88116833Y-60092166D01*
X88455500Y-60092166D01*
X88455500Y-60875333D01*
G36*
X90085333Y-60187416D02*
X90088103Y-60246940D01*
X90099604Y-60275087D01*
X90124625Y-60282630D01*
X90127666Y-60282666D01*
X90145235Y-60285076D01*
X90157130Y-60296890D01*
X90164454Y-60324985D01*
X90168305Y-60376238D01*
X90169784Y-60457527D01*
X90170000Y-60547250D01*
X90169614Y-60657052D01*
X90167724Y-60731400D01*
X90163228Y-60777171D01*
X90155028Y-60801241D01*
X90142022Y-60810487D01*
X90127666Y-60811833D01*
X90108781Y-60814619D01*
X90096532Y-60827969D01*
X90089495Y-60859366D01*
X90086245Y-60916295D01*
X90085354Y-61006240D01*
X90085333Y-61034083D01*
X90085864Y-61133231D01*
X90088406Y-61197535D01*
X90094387Y-61234479D01*
X90105230Y-61251547D01*
X90122363Y-61256223D01*
X90127666Y-61256333D01*
X90145235Y-61258743D01*
X90157130Y-61270557D01*
X90164454Y-61298652D01*
X90168305Y-61349905D01*
X90169784Y-61431193D01*
X90170000Y-61520916D01*
X90169614Y-61630719D01*
X90167724Y-61705067D01*
X90163228Y-61750837D01*
X90155028Y-61774907D01*
X90142022Y-61784154D01*
X90127666Y-61785500D01*
X90101211Y-61791732D01*
X90088701Y-61817610D01*
X90085349Y-61873907D01*
X90085333Y-61880750D01*
X90085333Y-61976000D01*
X89344500Y-61976000D01*
X89344500Y-61880750D01*
X89341730Y-61821226D01*
X89330228Y-61793079D01*
X89305207Y-61785536D01*
X89302166Y-61785500D01*
X89284598Y-61783090D01*
X89272702Y-61771276D01*
X89265379Y-61743181D01*
X89261528Y-61691927D01*
X89260048Y-61610639D01*
X89259833Y-61520916D01*
X89260218Y-61411114D01*
X89262109Y-61336766D01*
X89266604Y-61290995D01*
X89274804Y-61266925D01*
X89287811Y-61257679D01*
X89302166Y-61256333D01*
X89321052Y-61253546D01*
X89333300Y-61240197D01*
X89340337Y-61208799D01*
X89341248Y-61192833D01*
X89598500Y-61192833D01*
X89598500Y-61658500D01*
X89831333Y-61658500D01*
X89831333Y-61192833D01*
X89598500Y-61192833D01*
X89341248Y-61192833D01*
X89343588Y-61151871D01*
X89344479Y-61061925D01*
X89344500Y-61034083D01*
X89343969Y-60934934D01*
X89341426Y-60870630D01*
X89335446Y-60833687D01*
X89324602Y-60816619D01*
X89307469Y-60811943D01*
X89302166Y-60811833D01*
X89284598Y-60809423D01*
X89272702Y-60797609D01*
X89265379Y-60769514D01*
X89261528Y-60718261D01*
X89260048Y-60636972D01*
X89259833Y-60547250D01*
X89260218Y-60437447D01*
X89260924Y-60409666D01*
X89598500Y-60409666D01*
X89598500Y-60875333D01*
X89831333Y-60875333D01*
X89831333Y-60409666D01*
X89598500Y-60409666D01*
X89260924Y-60409666D01*
X89262109Y-60363099D01*
X89266604Y-60317328D01*
X89274804Y-60293258D01*
X89287811Y-60284012D01*
X89302166Y-60282666D01*
X89328621Y-60276434D01*
X89341131Y-60250556D01*
X89344483Y-60194259D01*
X89344500Y-60187416D01*
X89344500Y-60092166D01*
X90085333Y-60092166D01*
X90085333Y-60187416D01*
X90085333Y-60187416D01*
G37*
X90085333Y-60187416D02*
X90088103Y-60246940D01*
X90099604Y-60275087D01*
X90124625Y-60282630D01*
X90127666Y-60282666D01*
X90145235Y-60285076D01*
X90157130Y-60296890D01*
X90164454Y-60324985D01*
X90168305Y-60376238D01*
X90169784Y-60457527D01*
X90170000Y-60547250D01*
X90169614Y-60657052D01*
X90167724Y-60731400D01*
X90163228Y-60777171D01*
X90155028Y-60801241D01*
X90142022Y-60810487D01*
X90127666Y-60811833D01*
X90108781Y-60814619D01*
X90096532Y-60827969D01*
X90089495Y-60859366D01*
X90086245Y-60916295D01*
X90085354Y-61006240D01*
X90085333Y-61034083D01*
X90085864Y-61133231D01*
X90088406Y-61197535D01*
X90094387Y-61234479D01*
X90105230Y-61251547D01*
X90122363Y-61256223D01*
X90127666Y-61256333D01*
X90145235Y-61258743D01*
X90157130Y-61270557D01*
X90164454Y-61298652D01*
X90168305Y-61349905D01*
X90169784Y-61431193D01*
X90170000Y-61520916D01*
X90169614Y-61630719D01*
X90167724Y-61705067D01*
X90163228Y-61750837D01*
X90155028Y-61774907D01*
X90142022Y-61784154D01*
X90127666Y-61785500D01*
X90101211Y-61791732D01*
X90088701Y-61817610D01*
X90085349Y-61873907D01*
X90085333Y-61880750D01*
X90085333Y-61976000D01*
X89344500Y-61976000D01*
X89344500Y-61880750D01*
X89341730Y-61821226D01*
X89330228Y-61793079D01*
X89305207Y-61785536D01*
X89302166Y-61785500D01*
X89284598Y-61783090D01*
X89272702Y-61771276D01*
X89265379Y-61743181D01*
X89261528Y-61691927D01*
X89260048Y-61610639D01*
X89259833Y-61520916D01*
X89260218Y-61411114D01*
X89262109Y-61336766D01*
X89266604Y-61290995D01*
X89274804Y-61266925D01*
X89287811Y-61257679D01*
X89302166Y-61256333D01*
X89321052Y-61253546D01*
X89333300Y-61240197D01*
X89340337Y-61208799D01*
X89341248Y-61192833D01*
X89598500Y-61192833D01*
X89598500Y-61658500D01*
X89831333Y-61658500D01*
X89831333Y-61192833D01*
X89598500Y-61192833D01*
X89341248Y-61192833D01*
X89343588Y-61151871D01*
X89344479Y-61061925D01*
X89344500Y-61034083D01*
X89343969Y-60934934D01*
X89341426Y-60870630D01*
X89335446Y-60833687D01*
X89324602Y-60816619D01*
X89307469Y-60811943D01*
X89302166Y-60811833D01*
X89284598Y-60809423D01*
X89272702Y-60797609D01*
X89265379Y-60769514D01*
X89261528Y-60718261D01*
X89260048Y-60636972D01*
X89259833Y-60547250D01*
X89260218Y-60437447D01*
X89260924Y-60409666D01*
X89598500Y-60409666D01*
X89598500Y-60875333D01*
X89831333Y-60875333D01*
X89831333Y-60409666D01*
X89598500Y-60409666D01*
X89260924Y-60409666D01*
X89262109Y-60363099D01*
X89266604Y-60317328D01*
X89274804Y-60293258D01*
X89287811Y-60284012D01*
X89302166Y-60282666D01*
X89328621Y-60276434D01*
X89341131Y-60250556D01*
X89344483Y-60194259D01*
X89344500Y-60187416D01*
X89344500Y-60092166D01*
X90085333Y-60092166D01*
X90085333Y-60187416D01*
G36*
X91313000Y-60409666D02*
X90741500Y-60409666D01*
X90741500Y-60875333D01*
X91228333Y-60875333D01*
X91228333Y-60970583D01*
X91231103Y-61030107D01*
X91242604Y-61058254D01*
X91267625Y-61065796D01*
X91270666Y-61065833D01*
X91286090Y-61067719D01*
X91297229Y-61077318D01*
X91304779Y-61100543D01*
X91309436Y-61143306D01*
X91311894Y-61211519D01*
X91312849Y-61311093D01*
X91313000Y-61425666D01*
X91312778Y-61556770D01*
X91311648Y-61651454D01*
X91308916Y-61715629D01*
X91303885Y-61755207D01*
X91295860Y-61776101D01*
X91284145Y-61784223D01*
X91270666Y-61785500D01*
X91244211Y-61791732D01*
X91231701Y-61817610D01*
X91228349Y-61873907D01*
X91228333Y-61880750D01*
X91228333Y-61976000D01*
X90402833Y-61976000D01*
X90402833Y-61658500D01*
X90974333Y-61658500D01*
X90974333Y-61192833D01*
X90487500Y-61192833D01*
X90487500Y-61097583D01*
X90484730Y-61038059D01*
X90473228Y-61009912D01*
X90448207Y-61002369D01*
X90445166Y-61002333D01*
X90431232Y-61000756D01*
X90420747Y-60992517D01*
X90413220Y-60972354D01*
X90408162Y-60935003D01*
X90405085Y-60875202D01*
X90403497Y-60787688D01*
X90402911Y-60667200D01*
X90402833Y-60547250D01*
X90402833Y-60092166D01*
X91313000Y-60092166D01*
X91313000Y-60409666D01*
X91313000Y-60409666D01*
G37*
X91313000Y-60409666D02*
X90741500Y-60409666D01*
X90741500Y-60875333D01*
X91228333Y-60875333D01*
X91228333Y-60970583D01*
X91231103Y-61030107D01*
X91242604Y-61058254D01*
X91267625Y-61065796D01*
X91270666Y-61065833D01*
X91286090Y-61067719D01*
X91297229Y-61077318D01*
X91304779Y-61100543D01*
X91309436Y-61143306D01*
X91311894Y-61211519D01*
X91312849Y-61311093D01*
X91313000Y-61425666D01*
X91312778Y-61556770D01*
X91311648Y-61651454D01*
X91308916Y-61715629D01*
X91303885Y-61755207D01*
X91295860Y-61776101D01*
X91284145Y-61784223D01*
X91270666Y-61785500D01*
X91244211Y-61791732D01*
X91231701Y-61817610D01*
X91228349Y-61873907D01*
X91228333Y-61880750D01*
X91228333Y-61976000D01*
X90402833Y-61976000D01*
X90402833Y-61658500D01*
X90974333Y-61658500D01*
X90974333Y-61192833D01*
X90487500Y-61192833D01*
X90487500Y-61097583D01*
X90484730Y-61038059D01*
X90473228Y-61009912D01*
X90448207Y-61002369D01*
X90445166Y-61002333D01*
X90431232Y-61000756D01*
X90420747Y-60992517D01*
X90413220Y-60972354D01*
X90408162Y-60935003D01*
X90405085Y-60875202D01*
X90403497Y-60787688D01*
X90402911Y-60667200D01*
X90402833Y-60547250D01*
X90402833Y-60092166D01*
X91313000Y-60092166D01*
X91313000Y-60409666D01*
D12*
M02*
