G04 #@! TF.FileFunction,Copper,L2,Bot,Signal*
%FSLAX46Y46*%
G04 Gerber Fmt 4.6, Leading zero omitted, Abs format (unit mm)*
G04 Created by KiCad (PCBNEW 4.0.7-e0-6372~58~ubuntu16.04.1) date Wed Aug  1 16:39:32 2018*
%MOMM*%
%LPD*%
G01*
G04 APERTURE LIST*
%ADD10C,0.100000*%
%ADD11R,2.000000X2.000000*%
%ADD12C,2.000000*%
%ADD13O,1.800000X2.500000*%
%ADD14O,1.800000X2.200000*%
%ADD15R,2.000000X1.700000*%
%ADD16R,2.500000X2.000000*%
%ADD17C,0.400000*%
%ADD18C,0.250000*%
G04 APERTURE END LIST*
D10*
D11*
X88265000Y-54483000D03*
D12*
X83185000Y-66929000D03*
X85725000Y-66929000D03*
X88265000Y-66929000D03*
X90805000Y-54483000D03*
X85725000Y-54483000D03*
D13*
X83185000Y-54483000D03*
D12*
X90805000Y-66929000D03*
D11*
X72390000Y-64770000D03*
X93980000Y-53975000D03*
X101727000Y-64897000D03*
X77470000Y-53975000D03*
D12*
X101600000Y-57277000D03*
X96520000Y-53975000D03*
X72390000Y-57150000D03*
X72390000Y-60960000D03*
X80010000Y-53975000D03*
D14*
X83185000Y-64970000D03*
X90805000Y-56950000D03*
X85725000Y-64970000D03*
X88265000Y-56950000D03*
X88265000Y-64970000D03*
X85725000Y-56950000D03*
X90805000Y-64970000D03*
X83185000Y-56950000D03*
D15*
X98615000Y-59944000D03*
X94615000Y-59944000D03*
X94615000Y-57150000D03*
X98615000Y-57150000D03*
X75375000Y-66675000D03*
X79375000Y-66675000D03*
X79375000Y-64008000D03*
X75375000Y-64008000D03*
D16*
X95250000Y-66802000D03*
X95250000Y-62802000D03*
X79375000Y-57023000D03*
X79375000Y-61023000D03*
X75565000Y-61023000D03*
X75565000Y-57023000D03*
D17*
X75565000Y-57023000D02*
X75565000Y-58423000D01*
X75565000Y-58423000D02*
X75060000Y-58928000D01*
X75060000Y-58928000D02*
X73152000Y-58928000D01*
X72390000Y-59690000D02*
X72390000Y-60960000D01*
X73152000Y-58928000D02*
X72390000Y-59690000D01*
X80010000Y-53975000D02*
X83185000Y-53975000D01*
X83185000Y-54102000D02*
X83185000Y-57150000D01*
X80010000Y-53975000D02*
X80645000Y-53975000D01*
X79375000Y-61023000D02*
X79375000Y-64008000D01*
X82677000Y-59055000D02*
X81593000Y-59055000D01*
X81593000Y-59055000D02*
X79625000Y-61023000D01*
X79625000Y-61023000D02*
X79375000Y-61023000D01*
X83185000Y-58547000D02*
X82677000Y-59055000D01*
X83185000Y-57150000D02*
X83185000Y-58547000D01*
X83185000Y-57150000D02*
X82355000Y-57150000D01*
X83185000Y-54991000D02*
X83185000Y-57150000D01*
X77470000Y-53975000D02*
X77470000Y-54610000D01*
X77470000Y-54610000D02*
X79375000Y-56515000D01*
X79375000Y-56515000D02*
X79375000Y-57023000D01*
X95250000Y-66802000D02*
X94742000Y-66802000D01*
X79375000Y-57280000D02*
X78870000Y-57785000D01*
X90805000Y-64770000D02*
X90805000Y-66929000D01*
X101155000Y-61659000D02*
X101155000Y-59944000D01*
X101155000Y-59944000D02*
X101155000Y-57975000D01*
X98615000Y-59944000D02*
X100015000Y-59944000D01*
X100015000Y-59944000D02*
X101155000Y-59944000D01*
X97282000Y-62802000D02*
X100012000Y-62802000D01*
X100012000Y-62802000D02*
X101155000Y-61659000D01*
X101155000Y-57975000D02*
X101600000Y-57530000D01*
X95250000Y-62802000D02*
X97727000Y-62802000D01*
X98615000Y-57150000D02*
X98615000Y-54419000D01*
X98615000Y-54419000D02*
X98171000Y-53975000D01*
X98171000Y-53975000D02*
X96520000Y-53975000D01*
X94615000Y-59944000D02*
X94615000Y-58547000D01*
X92837000Y-58547000D02*
X94615000Y-58547000D01*
X94615000Y-58547000D02*
X94615000Y-57150000D01*
X92456000Y-58928000D02*
X92837000Y-58547000D01*
X88646000Y-58928000D02*
X92456000Y-58928000D01*
X88265000Y-58547000D02*
X88646000Y-58928000D01*
X88265000Y-57150000D02*
X88265000Y-58547000D01*
X85725000Y-54102000D02*
X85725000Y-57150000D01*
X85725000Y-54991000D02*
X85725000Y-57150000D01*
X83185000Y-64770000D02*
X83185000Y-66929000D01*
X75375000Y-66675000D02*
X75375000Y-67925000D01*
X84705999Y-68329001D02*
X85725000Y-67310000D01*
X75375000Y-67925000D02*
X75418000Y-67925000D01*
X75418000Y-67925000D02*
X75822001Y-68329001D01*
X85725000Y-67310000D02*
X85725000Y-66929000D01*
X75822001Y-68329001D02*
X84705999Y-68329001D01*
X75375000Y-64008000D02*
X75375000Y-61213000D01*
X75375000Y-61213000D02*
X75565000Y-61023000D01*
X75375000Y-66675000D02*
X75375000Y-63500000D01*
X85725000Y-64770000D02*
X85725000Y-66929000D01*
X90805000Y-54102000D02*
X90805000Y-57150000D01*
X90805000Y-54991000D02*
X90805000Y-57150000D01*
D18*
X90868500Y-57086500D02*
X90805000Y-57150000D01*
D17*
X88265000Y-64770000D02*
X88265000Y-66929000D01*
G36*
X98517865Y-47868755D02*
X98763778Y-48033069D01*
X99053852Y-48090768D01*
X102944613Y-48090768D01*
X103098798Y-48107019D01*
X103203267Y-48140916D01*
X103300160Y-48195838D01*
X103387250Y-48270750D01*
X103460381Y-48362972D01*
X103515486Y-48468440D01*
X103549685Y-48583112D01*
X103564891Y-48745869D01*
X103564891Y-49246847D01*
X103583383Y-49339812D01*
X103588476Y-49434461D01*
X103611973Y-49483547D01*
X103622590Y-49536921D01*
X103675251Y-49615734D01*
X103716177Y-49701228D01*
X103775117Y-49779928D01*
X103800219Y-49813445D01*
X103799542Y-50217776D01*
X103798442Y-50875174D01*
X103797342Y-51532571D01*
X103796242Y-52189967D01*
X103795142Y-52847362D01*
X103794042Y-53504762D01*
X103792942Y-54162157D01*
X103792213Y-54597985D01*
X103765612Y-54639447D01*
X103765610Y-54639449D01*
X103736362Y-54685037D01*
X103736360Y-54685039D01*
X103707112Y-54730627D01*
X103707110Y-54730629D01*
X103677860Y-54776220D01*
X103653134Y-54839204D01*
X103615540Y-54895467D01*
X103599614Y-54975532D01*
X103569782Y-55051522D01*
X103571041Y-55119178D01*
X103557841Y-55185541D01*
X103557841Y-68822720D01*
X103542149Y-68980258D01*
X103508306Y-69091117D01*
X103454404Y-69192473D01*
X103383020Y-69281031D01*
X103297748Y-69353205D01*
X103202335Y-69406413D01*
X103098905Y-69439427D01*
X102946308Y-69455243D01*
X70688294Y-69455243D01*
X70542274Y-69439593D01*
X70449510Y-69408708D01*
X70363994Y-69358654D01*
X70285687Y-69288806D01*
X70218059Y-69200242D01*
X70165601Y-69096257D01*
X70132108Y-68981343D01*
X70116735Y-68824652D01*
X70116735Y-65001000D01*
X70682000Y-65001000D01*
X70682000Y-65910830D01*
X70789787Y-66171050D01*
X70988950Y-66370213D01*
X71249170Y-66478000D01*
X72159000Y-66478000D01*
X72336000Y-66301000D01*
X72336000Y-64824000D01*
X70859000Y-64824000D01*
X70682000Y-65001000D01*
X70116735Y-65001000D01*
X70116735Y-63629170D01*
X70682000Y-63629170D01*
X70682000Y-64539000D01*
X70859000Y-64716000D01*
X72336000Y-64716000D01*
X72336000Y-63239000D01*
X72159000Y-63062000D01*
X71249170Y-63062000D01*
X70988950Y-63169787D01*
X70789787Y-63368950D01*
X70682000Y-63629170D01*
X70116735Y-63629170D01*
X70116735Y-57488252D01*
X70681704Y-57488252D01*
X70941184Y-58116240D01*
X71421232Y-58597128D01*
X71970634Y-58825260D01*
X71747947Y-59047947D01*
X71551117Y-59342523D01*
X71525969Y-59468952D01*
X71423760Y-59511184D01*
X70942872Y-59991232D01*
X70682297Y-60618767D01*
X70681704Y-61298252D01*
X70941184Y-61926240D01*
X71421232Y-62407128D01*
X72048767Y-62667703D01*
X72728252Y-62668296D01*
X73356240Y-62408816D01*
X73616787Y-62148724D01*
X73642498Y-62285369D01*
X73797558Y-62526339D01*
X73919587Y-62609718D01*
X73871661Y-62640558D01*
X73710003Y-62877152D01*
X73661601Y-63116167D01*
X73530830Y-63062000D01*
X72621000Y-63062000D01*
X72444000Y-63239000D01*
X72444000Y-64716000D01*
X72464000Y-64716000D01*
X72464000Y-64824000D01*
X72444000Y-64824000D01*
X72444000Y-66301000D01*
X72621000Y-66478000D01*
X73530830Y-66478000D01*
X73653130Y-66427342D01*
X73653130Y-67525000D01*
X73702498Y-67787369D01*
X73857558Y-68028339D01*
X74094152Y-68189997D01*
X74375000Y-68246870D01*
X74531023Y-68246870D01*
X74536117Y-68272477D01*
X74732947Y-68567053D01*
X74862536Y-68653642D01*
X75179948Y-68971054D01*
X75474524Y-69167884D01*
X75822001Y-69237001D01*
X84705999Y-69237001D01*
X85053476Y-69167884D01*
X85348052Y-68971054D01*
X85682143Y-68636963D01*
X86063252Y-68637296D01*
X86691240Y-68377816D01*
X86995109Y-68074478D01*
X87296232Y-68376128D01*
X87923767Y-68636703D01*
X88603252Y-68637296D01*
X89231240Y-68377816D01*
X89536824Y-68072766D01*
X89737601Y-68072766D01*
X89825573Y-68368936D01*
X90451167Y-68634138D01*
X91130629Y-68639748D01*
X91760517Y-68384912D01*
X91784427Y-68368936D01*
X91872399Y-68072766D01*
X90805000Y-67005368D01*
X89737601Y-68072766D01*
X89536824Y-68072766D01*
X89624311Y-67985432D01*
X89661234Y-67996399D01*
X90728632Y-66929000D01*
X90714490Y-66914858D01*
X90790858Y-66838490D01*
X90805000Y-66852632D01*
X90819142Y-66838490D01*
X90895510Y-66914858D01*
X90881368Y-66929000D01*
X91948766Y-67996399D01*
X92244936Y-67908427D01*
X92510138Y-67282833D01*
X92512200Y-67033000D01*
X93292000Y-67033000D01*
X93292000Y-67942830D01*
X93399787Y-68203050D01*
X93598950Y-68402213D01*
X93859170Y-68510000D01*
X95019000Y-68510000D01*
X95196000Y-68333000D01*
X95196000Y-66856000D01*
X95304000Y-66856000D01*
X95304000Y-68333000D01*
X95481000Y-68510000D01*
X96640830Y-68510000D01*
X96901050Y-68402213D01*
X97100213Y-68203050D01*
X97208000Y-67942830D01*
X97208000Y-67033000D01*
X97031000Y-66856000D01*
X95304000Y-66856000D01*
X95196000Y-66856000D01*
X93469000Y-66856000D01*
X93292000Y-67033000D01*
X92512200Y-67033000D01*
X92515748Y-66603371D01*
X92260912Y-65973483D01*
X92244936Y-65949573D01*
X92197891Y-65935599D01*
X92269933Y-65835244D01*
X92310676Y-65661170D01*
X93292000Y-65661170D01*
X93292000Y-66571000D01*
X93469000Y-66748000D01*
X95196000Y-66748000D01*
X95196000Y-65271000D01*
X95304000Y-65271000D01*
X95304000Y-66748000D01*
X97031000Y-66748000D01*
X97208000Y-66571000D01*
X97208000Y-65661170D01*
X97100213Y-65400950D01*
X96901050Y-65201787D01*
X96722913Y-65128000D01*
X100019000Y-65128000D01*
X100019000Y-66037830D01*
X100126787Y-66298050D01*
X100325950Y-66497213D01*
X100586170Y-66605000D01*
X101496000Y-66605000D01*
X101673000Y-66428000D01*
X101673000Y-64951000D01*
X101781000Y-64951000D01*
X101781000Y-66428000D01*
X101958000Y-66605000D01*
X102867830Y-66605000D01*
X103128050Y-66497213D01*
X103327213Y-66298050D01*
X103435000Y-66037830D01*
X103435000Y-65128000D01*
X103258000Y-64951000D01*
X101781000Y-64951000D01*
X101673000Y-64951000D01*
X100196000Y-64951000D01*
X100019000Y-65128000D01*
X96722913Y-65128000D01*
X96640830Y-65094000D01*
X95481000Y-65094000D01*
X95304000Y-65271000D01*
X95196000Y-65271000D01*
X95019000Y-65094000D01*
X93859170Y-65094000D01*
X93598950Y-65201787D01*
X93399787Y-65400950D01*
X93292000Y-65661170D01*
X92310676Y-65661170D01*
X92413000Y-65224000D01*
X92413000Y-65024000D01*
X90859000Y-65024000D01*
X90859000Y-65044000D01*
X90751000Y-65044000D01*
X90751000Y-65024000D01*
X90731000Y-65024000D01*
X90731000Y-64916000D01*
X90751000Y-64916000D01*
X90751000Y-63340019D01*
X90859000Y-63340019D01*
X90859000Y-64916000D01*
X92413000Y-64916000D01*
X92413000Y-64716000D01*
X92269933Y-64104756D01*
X91903844Y-63594789D01*
X91370466Y-63263737D01*
X91109740Y-63191140D01*
X90859000Y-63340019D01*
X90751000Y-63340019D01*
X90500260Y-63191140D01*
X90239534Y-63263737D01*
X89706156Y-63594789D01*
X89547685Y-63815542D01*
X89402028Y-63597551D01*
X88880355Y-63248981D01*
X88265000Y-63126579D01*
X87649645Y-63248981D01*
X87127972Y-63597551D01*
X86995000Y-63796558D01*
X86862028Y-63597551D01*
X86340355Y-63248981D01*
X85725000Y-63126579D01*
X85109645Y-63248981D01*
X84587972Y-63597551D01*
X84455000Y-63796558D01*
X84322028Y-63597551D01*
X83800355Y-63248981D01*
X83185000Y-63126579D01*
X82569645Y-63248981D01*
X82047972Y-63597551D01*
X81699402Y-64119224D01*
X81577000Y-64734579D01*
X81577000Y-65205421D01*
X81699402Y-65820776D01*
X81770692Y-65927469D01*
X81737872Y-65960232D01*
X81477297Y-66587767D01*
X81476704Y-67267252D01*
X81540232Y-67421001D01*
X81083000Y-67421001D01*
X81083000Y-66906000D01*
X80906000Y-66729000D01*
X79429000Y-66729000D01*
X79429000Y-66749000D01*
X79321000Y-66749000D01*
X79321000Y-66729000D01*
X77844000Y-66729000D01*
X77667000Y-66906000D01*
X77667000Y-67421001D01*
X77096870Y-67421001D01*
X77096870Y-65825000D01*
X77047502Y-65562631D01*
X76903424Y-65338728D01*
X77039997Y-65138848D01*
X77096870Y-64858000D01*
X77096870Y-63158000D01*
X77047502Y-62895631D01*
X76935857Y-62722129D01*
X77077369Y-62695502D01*
X77318339Y-62540442D01*
X77471959Y-62315612D01*
X77607558Y-62526339D01*
X77840808Y-62685712D01*
X77710003Y-62877152D01*
X77653130Y-63158000D01*
X77653130Y-64858000D01*
X77702498Y-65120369D01*
X77849665Y-65349072D01*
X77774787Y-65423950D01*
X77667000Y-65684170D01*
X77667000Y-66444000D01*
X77844000Y-66621000D01*
X79321000Y-66621000D01*
X79321000Y-66601000D01*
X79429000Y-66601000D01*
X79429000Y-66621000D01*
X80906000Y-66621000D01*
X81083000Y-66444000D01*
X81083000Y-65684170D01*
X80975213Y-65423950D01*
X80897972Y-65346709D01*
X81039997Y-65138848D01*
X81096870Y-64858000D01*
X81096870Y-63158000D01*
X81047502Y-62895631D01*
X80909542Y-62681234D01*
X81128339Y-62540442D01*
X81289997Y-62303848D01*
X81346870Y-62023000D01*
X81346870Y-60585236D01*
X81969106Y-59963000D01*
X82677000Y-59963000D01*
X83024477Y-59893883D01*
X83319053Y-59697053D01*
X83827053Y-59189053D01*
X84023883Y-58894477D01*
X84093000Y-58547000D01*
X84093000Y-58475480D01*
X84322028Y-58322449D01*
X84455000Y-58123442D01*
X84587972Y-58322449D01*
X85109645Y-58671019D01*
X85725000Y-58793421D01*
X86340355Y-58671019D01*
X86862028Y-58322449D01*
X86995000Y-58123442D01*
X87127972Y-58322449D01*
X87357000Y-58475480D01*
X87357000Y-58547000D01*
X87426117Y-58894477D01*
X87622947Y-59189053D01*
X88003947Y-59570053D01*
X88298523Y-59766883D01*
X88646000Y-59836000D01*
X92456000Y-59836000D01*
X92803477Y-59766883D01*
X92893130Y-59706979D01*
X92893130Y-60794000D01*
X92942498Y-61056369D01*
X93097558Y-61297339D01*
X93334152Y-61458997D01*
X93372206Y-61466703D01*
X93335003Y-61521152D01*
X93278130Y-61802000D01*
X93278130Y-63802000D01*
X93327498Y-64064369D01*
X93482558Y-64305339D01*
X93719152Y-64466997D01*
X94000000Y-64523870D01*
X96500000Y-64523870D01*
X96762369Y-64474502D01*
X97003339Y-64319442D01*
X97164997Y-64082848D01*
X97221870Y-63802000D01*
X97221870Y-63710000D01*
X100012000Y-63710000D01*
X100040470Y-63704337D01*
X100019000Y-63756170D01*
X100019000Y-64666000D01*
X100196000Y-64843000D01*
X101673000Y-64843000D01*
X101673000Y-63366000D01*
X101781000Y-63366000D01*
X101781000Y-64843000D01*
X103258000Y-64843000D01*
X103435000Y-64666000D01*
X103435000Y-63756170D01*
X103327213Y-63495950D01*
X103128050Y-63296787D01*
X102867830Y-63189000D01*
X101958000Y-63189000D01*
X101781000Y-63366000D01*
X101673000Y-63366000D01*
X101496000Y-63189000D01*
X100909106Y-63189000D01*
X101797053Y-62301053D01*
X101993883Y-62006477D01*
X102063000Y-61659000D01*
X102063000Y-58933751D01*
X102566240Y-58725816D01*
X103047128Y-58245768D01*
X103307703Y-57618233D01*
X103308296Y-56938748D01*
X103048816Y-56310760D01*
X102568768Y-55829872D01*
X101941233Y-55569297D01*
X101261748Y-55568704D01*
X100633760Y-55828184D01*
X100309078Y-56152299D01*
X100287502Y-56037631D01*
X100132442Y-55796661D01*
X99895848Y-55635003D01*
X99615000Y-55578130D01*
X99523000Y-55578130D01*
X99523000Y-54419000D01*
X99453883Y-54071523D01*
X99257053Y-53776947D01*
X98813053Y-53332947D01*
X98518477Y-53136117D01*
X98171000Y-53067000D01*
X97992880Y-53067000D01*
X97968816Y-53008760D01*
X97488768Y-52527872D01*
X96861233Y-52267297D01*
X96181748Y-52266704D01*
X95553760Y-52526184D01*
X95543094Y-52536831D01*
X95381050Y-52374787D01*
X95120830Y-52267000D01*
X94211000Y-52267000D01*
X94034000Y-52444000D01*
X94034000Y-53921000D01*
X94054000Y-53921000D01*
X94054000Y-54029000D01*
X94034000Y-54029000D01*
X94034000Y-54049000D01*
X93926000Y-54049000D01*
X93926000Y-54029000D01*
X93906000Y-54029000D01*
X93906000Y-53921000D01*
X93926000Y-53921000D01*
X93926000Y-52444000D01*
X93749000Y-52267000D01*
X92839170Y-52267000D01*
X92578950Y-52374787D01*
X92379787Y-52573950D01*
X92272000Y-52834170D01*
X92272000Y-53560769D01*
X92253816Y-53516760D01*
X91773768Y-53035872D01*
X91146233Y-52775297D01*
X90466748Y-52774704D01*
X89838760Y-53034184D01*
X89828094Y-53044831D01*
X89666050Y-52882787D01*
X89405830Y-52775000D01*
X88496000Y-52775000D01*
X88319000Y-52952000D01*
X88319000Y-54429000D01*
X88339000Y-54429000D01*
X88339000Y-54537000D01*
X88319000Y-54537000D01*
X88319000Y-54557000D01*
X88211000Y-54557000D01*
X88211000Y-54537000D01*
X88191000Y-54537000D01*
X88191000Y-54429000D01*
X88211000Y-54429000D01*
X88211000Y-52952000D01*
X88034000Y-52775000D01*
X87124170Y-52775000D01*
X86863950Y-52882787D01*
X86702309Y-53044428D01*
X86693768Y-53035872D01*
X86066233Y-52775297D01*
X85386748Y-52774704D01*
X84758760Y-53034184D01*
X84527466Y-53265074D01*
X84322028Y-52957613D01*
X83800355Y-52609043D01*
X83185000Y-52486641D01*
X82569645Y-52609043D01*
X82047972Y-52957613D01*
X81974882Y-53067000D01*
X81482880Y-53067000D01*
X81458816Y-53008760D01*
X80978768Y-52527872D01*
X80351233Y-52267297D01*
X79671748Y-52266704D01*
X79043760Y-52526184D01*
X79033094Y-52536831D01*
X78871050Y-52374787D01*
X78610830Y-52267000D01*
X77701000Y-52267000D01*
X77524000Y-52444000D01*
X77524000Y-53921000D01*
X77544000Y-53921000D01*
X77544000Y-54029000D01*
X77524000Y-54029000D01*
X77524000Y-55506000D01*
X77582369Y-55564369D01*
X77524787Y-55621950D01*
X77475238Y-55741572D01*
X77359809Y-55562191D01*
X77416000Y-55506000D01*
X77416000Y-54029000D01*
X75939000Y-54029000D01*
X75762000Y-54206000D01*
X75762000Y-55115830D01*
X75838754Y-55301130D01*
X74315000Y-55301130D01*
X74052631Y-55350498D01*
X73811661Y-55505558D01*
X73650003Y-55742152D01*
X73607500Y-55952039D01*
X73358768Y-55702872D01*
X72731233Y-55442297D01*
X72051748Y-55441704D01*
X71423760Y-55701184D01*
X70942872Y-56181232D01*
X70682297Y-56808767D01*
X70681704Y-57488252D01*
X70116735Y-57488252D01*
X70116735Y-55200570D01*
X70097804Y-55105399D01*
X70092007Y-55008537D01*
X70069209Y-54961639D01*
X70059036Y-54910496D01*
X70005126Y-54829813D01*
X69962702Y-54742544D01*
X69928151Y-54696984D01*
X69928149Y-54696983D01*
X69893648Y-54651478D01*
X69893603Y-54651438D01*
X69893575Y-54651380D01*
X69859020Y-54605820D01*
X69859016Y-54605816D01*
X69839848Y-54580535D01*
X69839098Y-54175161D01*
X69837878Y-53515664D01*
X69836618Y-52834170D01*
X75762000Y-52834170D01*
X75762000Y-53744000D01*
X75939000Y-53921000D01*
X77416000Y-53921000D01*
X77416000Y-52444000D01*
X77239000Y-52267000D01*
X76329170Y-52267000D01*
X76068950Y-52374787D01*
X75869787Y-52573950D01*
X75762000Y-52834170D01*
X69836618Y-52834170D01*
X69834218Y-51537176D01*
X69832998Y-50877679D01*
X69831778Y-50218183D01*
X69831032Y-49814660D01*
X69855382Y-49782596D01*
X69855384Y-49782592D01*
X69885242Y-49743276D01*
X69885244Y-49743272D01*
X69915102Y-49703956D01*
X69957692Y-49616491D01*
X70011740Y-49535603D01*
X70021864Y-49484705D01*
X70044583Y-49438049D01*
X70050460Y-49340943D01*
X70069439Y-49245529D01*
X70069439Y-48745518D01*
X70085274Y-48584607D01*
X70120117Y-48468680D01*
X70175671Y-48362309D01*
X70248830Y-48269734D01*
X70335374Y-48194943D01*
X70431201Y-48140365D01*
X70534436Y-48106722D01*
X70687883Y-48090494D01*
X74616058Y-48090494D01*
X74906132Y-48032795D01*
X75152045Y-47868481D01*
X75237200Y-47741038D01*
X98432527Y-47741038D01*
X98517865Y-47868755D01*
X98517865Y-47868755D01*
G37*
X98517865Y-47868755D02*
X98763778Y-48033069D01*
X99053852Y-48090768D01*
X102944613Y-48090768D01*
X103098798Y-48107019D01*
X103203267Y-48140916D01*
X103300160Y-48195838D01*
X103387250Y-48270750D01*
X103460381Y-48362972D01*
X103515486Y-48468440D01*
X103549685Y-48583112D01*
X103564891Y-48745869D01*
X103564891Y-49246847D01*
X103583383Y-49339812D01*
X103588476Y-49434461D01*
X103611973Y-49483547D01*
X103622590Y-49536921D01*
X103675251Y-49615734D01*
X103716177Y-49701228D01*
X103775117Y-49779928D01*
X103800219Y-49813445D01*
X103799542Y-50217776D01*
X103798442Y-50875174D01*
X103797342Y-51532571D01*
X103796242Y-52189967D01*
X103795142Y-52847362D01*
X103794042Y-53504762D01*
X103792942Y-54162157D01*
X103792213Y-54597985D01*
X103765612Y-54639447D01*
X103765610Y-54639449D01*
X103736362Y-54685037D01*
X103736360Y-54685039D01*
X103707112Y-54730627D01*
X103707110Y-54730629D01*
X103677860Y-54776220D01*
X103653134Y-54839204D01*
X103615540Y-54895467D01*
X103599614Y-54975532D01*
X103569782Y-55051522D01*
X103571041Y-55119178D01*
X103557841Y-55185541D01*
X103557841Y-68822720D01*
X103542149Y-68980258D01*
X103508306Y-69091117D01*
X103454404Y-69192473D01*
X103383020Y-69281031D01*
X103297748Y-69353205D01*
X103202335Y-69406413D01*
X103098905Y-69439427D01*
X102946308Y-69455243D01*
X70688294Y-69455243D01*
X70542274Y-69439593D01*
X70449510Y-69408708D01*
X70363994Y-69358654D01*
X70285687Y-69288806D01*
X70218059Y-69200242D01*
X70165601Y-69096257D01*
X70132108Y-68981343D01*
X70116735Y-68824652D01*
X70116735Y-65001000D01*
X70682000Y-65001000D01*
X70682000Y-65910830D01*
X70789787Y-66171050D01*
X70988950Y-66370213D01*
X71249170Y-66478000D01*
X72159000Y-66478000D01*
X72336000Y-66301000D01*
X72336000Y-64824000D01*
X70859000Y-64824000D01*
X70682000Y-65001000D01*
X70116735Y-65001000D01*
X70116735Y-63629170D01*
X70682000Y-63629170D01*
X70682000Y-64539000D01*
X70859000Y-64716000D01*
X72336000Y-64716000D01*
X72336000Y-63239000D01*
X72159000Y-63062000D01*
X71249170Y-63062000D01*
X70988950Y-63169787D01*
X70789787Y-63368950D01*
X70682000Y-63629170D01*
X70116735Y-63629170D01*
X70116735Y-57488252D01*
X70681704Y-57488252D01*
X70941184Y-58116240D01*
X71421232Y-58597128D01*
X71970634Y-58825260D01*
X71747947Y-59047947D01*
X71551117Y-59342523D01*
X71525969Y-59468952D01*
X71423760Y-59511184D01*
X70942872Y-59991232D01*
X70682297Y-60618767D01*
X70681704Y-61298252D01*
X70941184Y-61926240D01*
X71421232Y-62407128D01*
X72048767Y-62667703D01*
X72728252Y-62668296D01*
X73356240Y-62408816D01*
X73616787Y-62148724D01*
X73642498Y-62285369D01*
X73797558Y-62526339D01*
X73919587Y-62609718D01*
X73871661Y-62640558D01*
X73710003Y-62877152D01*
X73661601Y-63116167D01*
X73530830Y-63062000D01*
X72621000Y-63062000D01*
X72444000Y-63239000D01*
X72444000Y-64716000D01*
X72464000Y-64716000D01*
X72464000Y-64824000D01*
X72444000Y-64824000D01*
X72444000Y-66301000D01*
X72621000Y-66478000D01*
X73530830Y-66478000D01*
X73653130Y-66427342D01*
X73653130Y-67525000D01*
X73702498Y-67787369D01*
X73857558Y-68028339D01*
X74094152Y-68189997D01*
X74375000Y-68246870D01*
X74531023Y-68246870D01*
X74536117Y-68272477D01*
X74732947Y-68567053D01*
X74862536Y-68653642D01*
X75179948Y-68971054D01*
X75474524Y-69167884D01*
X75822001Y-69237001D01*
X84705999Y-69237001D01*
X85053476Y-69167884D01*
X85348052Y-68971054D01*
X85682143Y-68636963D01*
X86063252Y-68637296D01*
X86691240Y-68377816D01*
X86995109Y-68074478D01*
X87296232Y-68376128D01*
X87923767Y-68636703D01*
X88603252Y-68637296D01*
X89231240Y-68377816D01*
X89536824Y-68072766D01*
X89737601Y-68072766D01*
X89825573Y-68368936D01*
X90451167Y-68634138D01*
X91130629Y-68639748D01*
X91760517Y-68384912D01*
X91784427Y-68368936D01*
X91872399Y-68072766D01*
X90805000Y-67005368D01*
X89737601Y-68072766D01*
X89536824Y-68072766D01*
X89624311Y-67985432D01*
X89661234Y-67996399D01*
X90728632Y-66929000D01*
X90714490Y-66914858D01*
X90790858Y-66838490D01*
X90805000Y-66852632D01*
X90819142Y-66838490D01*
X90895510Y-66914858D01*
X90881368Y-66929000D01*
X91948766Y-67996399D01*
X92244936Y-67908427D01*
X92510138Y-67282833D01*
X92512200Y-67033000D01*
X93292000Y-67033000D01*
X93292000Y-67942830D01*
X93399787Y-68203050D01*
X93598950Y-68402213D01*
X93859170Y-68510000D01*
X95019000Y-68510000D01*
X95196000Y-68333000D01*
X95196000Y-66856000D01*
X95304000Y-66856000D01*
X95304000Y-68333000D01*
X95481000Y-68510000D01*
X96640830Y-68510000D01*
X96901050Y-68402213D01*
X97100213Y-68203050D01*
X97208000Y-67942830D01*
X97208000Y-67033000D01*
X97031000Y-66856000D01*
X95304000Y-66856000D01*
X95196000Y-66856000D01*
X93469000Y-66856000D01*
X93292000Y-67033000D01*
X92512200Y-67033000D01*
X92515748Y-66603371D01*
X92260912Y-65973483D01*
X92244936Y-65949573D01*
X92197891Y-65935599D01*
X92269933Y-65835244D01*
X92310676Y-65661170D01*
X93292000Y-65661170D01*
X93292000Y-66571000D01*
X93469000Y-66748000D01*
X95196000Y-66748000D01*
X95196000Y-65271000D01*
X95304000Y-65271000D01*
X95304000Y-66748000D01*
X97031000Y-66748000D01*
X97208000Y-66571000D01*
X97208000Y-65661170D01*
X97100213Y-65400950D01*
X96901050Y-65201787D01*
X96722913Y-65128000D01*
X100019000Y-65128000D01*
X100019000Y-66037830D01*
X100126787Y-66298050D01*
X100325950Y-66497213D01*
X100586170Y-66605000D01*
X101496000Y-66605000D01*
X101673000Y-66428000D01*
X101673000Y-64951000D01*
X101781000Y-64951000D01*
X101781000Y-66428000D01*
X101958000Y-66605000D01*
X102867830Y-66605000D01*
X103128050Y-66497213D01*
X103327213Y-66298050D01*
X103435000Y-66037830D01*
X103435000Y-65128000D01*
X103258000Y-64951000D01*
X101781000Y-64951000D01*
X101673000Y-64951000D01*
X100196000Y-64951000D01*
X100019000Y-65128000D01*
X96722913Y-65128000D01*
X96640830Y-65094000D01*
X95481000Y-65094000D01*
X95304000Y-65271000D01*
X95196000Y-65271000D01*
X95019000Y-65094000D01*
X93859170Y-65094000D01*
X93598950Y-65201787D01*
X93399787Y-65400950D01*
X93292000Y-65661170D01*
X92310676Y-65661170D01*
X92413000Y-65224000D01*
X92413000Y-65024000D01*
X90859000Y-65024000D01*
X90859000Y-65044000D01*
X90751000Y-65044000D01*
X90751000Y-65024000D01*
X90731000Y-65024000D01*
X90731000Y-64916000D01*
X90751000Y-64916000D01*
X90751000Y-63340019D01*
X90859000Y-63340019D01*
X90859000Y-64916000D01*
X92413000Y-64916000D01*
X92413000Y-64716000D01*
X92269933Y-64104756D01*
X91903844Y-63594789D01*
X91370466Y-63263737D01*
X91109740Y-63191140D01*
X90859000Y-63340019D01*
X90751000Y-63340019D01*
X90500260Y-63191140D01*
X90239534Y-63263737D01*
X89706156Y-63594789D01*
X89547685Y-63815542D01*
X89402028Y-63597551D01*
X88880355Y-63248981D01*
X88265000Y-63126579D01*
X87649645Y-63248981D01*
X87127972Y-63597551D01*
X86995000Y-63796558D01*
X86862028Y-63597551D01*
X86340355Y-63248981D01*
X85725000Y-63126579D01*
X85109645Y-63248981D01*
X84587972Y-63597551D01*
X84455000Y-63796558D01*
X84322028Y-63597551D01*
X83800355Y-63248981D01*
X83185000Y-63126579D01*
X82569645Y-63248981D01*
X82047972Y-63597551D01*
X81699402Y-64119224D01*
X81577000Y-64734579D01*
X81577000Y-65205421D01*
X81699402Y-65820776D01*
X81770692Y-65927469D01*
X81737872Y-65960232D01*
X81477297Y-66587767D01*
X81476704Y-67267252D01*
X81540232Y-67421001D01*
X81083000Y-67421001D01*
X81083000Y-66906000D01*
X80906000Y-66729000D01*
X79429000Y-66729000D01*
X79429000Y-66749000D01*
X79321000Y-66749000D01*
X79321000Y-66729000D01*
X77844000Y-66729000D01*
X77667000Y-66906000D01*
X77667000Y-67421001D01*
X77096870Y-67421001D01*
X77096870Y-65825000D01*
X77047502Y-65562631D01*
X76903424Y-65338728D01*
X77039997Y-65138848D01*
X77096870Y-64858000D01*
X77096870Y-63158000D01*
X77047502Y-62895631D01*
X76935857Y-62722129D01*
X77077369Y-62695502D01*
X77318339Y-62540442D01*
X77471959Y-62315612D01*
X77607558Y-62526339D01*
X77840808Y-62685712D01*
X77710003Y-62877152D01*
X77653130Y-63158000D01*
X77653130Y-64858000D01*
X77702498Y-65120369D01*
X77849665Y-65349072D01*
X77774787Y-65423950D01*
X77667000Y-65684170D01*
X77667000Y-66444000D01*
X77844000Y-66621000D01*
X79321000Y-66621000D01*
X79321000Y-66601000D01*
X79429000Y-66601000D01*
X79429000Y-66621000D01*
X80906000Y-66621000D01*
X81083000Y-66444000D01*
X81083000Y-65684170D01*
X80975213Y-65423950D01*
X80897972Y-65346709D01*
X81039997Y-65138848D01*
X81096870Y-64858000D01*
X81096870Y-63158000D01*
X81047502Y-62895631D01*
X80909542Y-62681234D01*
X81128339Y-62540442D01*
X81289997Y-62303848D01*
X81346870Y-62023000D01*
X81346870Y-60585236D01*
X81969106Y-59963000D01*
X82677000Y-59963000D01*
X83024477Y-59893883D01*
X83319053Y-59697053D01*
X83827053Y-59189053D01*
X84023883Y-58894477D01*
X84093000Y-58547000D01*
X84093000Y-58475480D01*
X84322028Y-58322449D01*
X84455000Y-58123442D01*
X84587972Y-58322449D01*
X85109645Y-58671019D01*
X85725000Y-58793421D01*
X86340355Y-58671019D01*
X86862028Y-58322449D01*
X86995000Y-58123442D01*
X87127972Y-58322449D01*
X87357000Y-58475480D01*
X87357000Y-58547000D01*
X87426117Y-58894477D01*
X87622947Y-59189053D01*
X88003947Y-59570053D01*
X88298523Y-59766883D01*
X88646000Y-59836000D01*
X92456000Y-59836000D01*
X92803477Y-59766883D01*
X92893130Y-59706979D01*
X92893130Y-60794000D01*
X92942498Y-61056369D01*
X93097558Y-61297339D01*
X93334152Y-61458997D01*
X93372206Y-61466703D01*
X93335003Y-61521152D01*
X93278130Y-61802000D01*
X93278130Y-63802000D01*
X93327498Y-64064369D01*
X93482558Y-64305339D01*
X93719152Y-64466997D01*
X94000000Y-64523870D01*
X96500000Y-64523870D01*
X96762369Y-64474502D01*
X97003339Y-64319442D01*
X97164997Y-64082848D01*
X97221870Y-63802000D01*
X97221870Y-63710000D01*
X100012000Y-63710000D01*
X100040470Y-63704337D01*
X100019000Y-63756170D01*
X100019000Y-64666000D01*
X100196000Y-64843000D01*
X101673000Y-64843000D01*
X101673000Y-63366000D01*
X101781000Y-63366000D01*
X101781000Y-64843000D01*
X103258000Y-64843000D01*
X103435000Y-64666000D01*
X103435000Y-63756170D01*
X103327213Y-63495950D01*
X103128050Y-63296787D01*
X102867830Y-63189000D01*
X101958000Y-63189000D01*
X101781000Y-63366000D01*
X101673000Y-63366000D01*
X101496000Y-63189000D01*
X100909106Y-63189000D01*
X101797053Y-62301053D01*
X101993883Y-62006477D01*
X102063000Y-61659000D01*
X102063000Y-58933751D01*
X102566240Y-58725816D01*
X103047128Y-58245768D01*
X103307703Y-57618233D01*
X103308296Y-56938748D01*
X103048816Y-56310760D01*
X102568768Y-55829872D01*
X101941233Y-55569297D01*
X101261748Y-55568704D01*
X100633760Y-55828184D01*
X100309078Y-56152299D01*
X100287502Y-56037631D01*
X100132442Y-55796661D01*
X99895848Y-55635003D01*
X99615000Y-55578130D01*
X99523000Y-55578130D01*
X99523000Y-54419000D01*
X99453883Y-54071523D01*
X99257053Y-53776947D01*
X98813053Y-53332947D01*
X98518477Y-53136117D01*
X98171000Y-53067000D01*
X97992880Y-53067000D01*
X97968816Y-53008760D01*
X97488768Y-52527872D01*
X96861233Y-52267297D01*
X96181748Y-52266704D01*
X95553760Y-52526184D01*
X95543094Y-52536831D01*
X95381050Y-52374787D01*
X95120830Y-52267000D01*
X94211000Y-52267000D01*
X94034000Y-52444000D01*
X94034000Y-53921000D01*
X94054000Y-53921000D01*
X94054000Y-54029000D01*
X94034000Y-54029000D01*
X94034000Y-54049000D01*
X93926000Y-54049000D01*
X93926000Y-54029000D01*
X93906000Y-54029000D01*
X93906000Y-53921000D01*
X93926000Y-53921000D01*
X93926000Y-52444000D01*
X93749000Y-52267000D01*
X92839170Y-52267000D01*
X92578950Y-52374787D01*
X92379787Y-52573950D01*
X92272000Y-52834170D01*
X92272000Y-53560769D01*
X92253816Y-53516760D01*
X91773768Y-53035872D01*
X91146233Y-52775297D01*
X90466748Y-52774704D01*
X89838760Y-53034184D01*
X89828094Y-53044831D01*
X89666050Y-52882787D01*
X89405830Y-52775000D01*
X88496000Y-52775000D01*
X88319000Y-52952000D01*
X88319000Y-54429000D01*
X88339000Y-54429000D01*
X88339000Y-54537000D01*
X88319000Y-54537000D01*
X88319000Y-54557000D01*
X88211000Y-54557000D01*
X88211000Y-54537000D01*
X88191000Y-54537000D01*
X88191000Y-54429000D01*
X88211000Y-54429000D01*
X88211000Y-52952000D01*
X88034000Y-52775000D01*
X87124170Y-52775000D01*
X86863950Y-52882787D01*
X86702309Y-53044428D01*
X86693768Y-53035872D01*
X86066233Y-52775297D01*
X85386748Y-52774704D01*
X84758760Y-53034184D01*
X84527466Y-53265074D01*
X84322028Y-52957613D01*
X83800355Y-52609043D01*
X83185000Y-52486641D01*
X82569645Y-52609043D01*
X82047972Y-52957613D01*
X81974882Y-53067000D01*
X81482880Y-53067000D01*
X81458816Y-53008760D01*
X80978768Y-52527872D01*
X80351233Y-52267297D01*
X79671748Y-52266704D01*
X79043760Y-52526184D01*
X79033094Y-52536831D01*
X78871050Y-52374787D01*
X78610830Y-52267000D01*
X77701000Y-52267000D01*
X77524000Y-52444000D01*
X77524000Y-53921000D01*
X77544000Y-53921000D01*
X77544000Y-54029000D01*
X77524000Y-54029000D01*
X77524000Y-55506000D01*
X77582369Y-55564369D01*
X77524787Y-55621950D01*
X77475238Y-55741572D01*
X77359809Y-55562191D01*
X77416000Y-55506000D01*
X77416000Y-54029000D01*
X75939000Y-54029000D01*
X75762000Y-54206000D01*
X75762000Y-55115830D01*
X75838754Y-55301130D01*
X74315000Y-55301130D01*
X74052631Y-55350498D01*
X73811661Y-55505558D01*
X73650003Y-55742152D01*
X73607500Y-55952039D01*
X73358768Y-55702872D01*
X72731233Y-55442297D01*
X72051748Y-55441704D01*
X71423760Y-55701184D01*
X70942872Y-56181232D01*
X70682297Y-56808767D01*
X70681704Y-57488252D01*
X70116735Y-57488252D01*
X70116735Y-55200570D01*
X70097804Y-55105399D01*
X70092007Y-55008537D01*
X70069209Y-54961639D01*
X70059036Y-54910496D01*
X70005126Y-54829813D01*
X69962702Y-54742544D01*
X69928151Y-54696984D01*
X69928149Y-54696983D01*
X69893648Y-54651478D01*
X69893603Y-54651438D01*
X69893575Y-54651380D01*
X69859020Y-54605820D01*
X69859016Y-54605816D01*
X69839848Y-54580535D01*
X69839098Y-54175161D01*
X69837878Y-53515664D01*
X69836618Y-52834170D01*
X75762000Y-52834170D01*
X75762000Y-53744000D01*
X75939000Y-53921000D01*
X77416000Y-53921000D01*
X77416000Y-52444000D01*
X77239000Y-52267000D01*
X76329170Y-52267000D01*
X76068950Y-52374787D01*
X75869787Y-52573950D01*
X75762000Y-52834170D01*
X69836618Y-52834170D01*
X69834218Y-51537176D01*
X69832998Y-50877679D01*
X69831778Y-50218183D01*
X69831032Y-49814660D01*
X69855382Y-49782596D01*
X69855384Y-49782592D01*
X69885242Y-49743276D01*
X69885244Y-49743272D01*
X69915102Y-49703956D01*
X69957692Y-49616491D01*
X70011740Y-49535603D01*
X70021864Y-49484705D01*
X70044583Y-49438049D01*
X70050460Y-49340943D01*
X70069439Y-49245529D01*
X70069439Y-48745518D01*
X70085274Y-48584607D01*
X70120117Y-48468680D01*
X70175671Y-48362309D01*
X70248830Y-48269734D01*
X70335374Y-48194943D01*
X70431201Y-48140365D01*
X70534436Y-48106722D01*
X70687883Y-48090494D01*
X74616058Y-48090494D01*
X74906132Y-48032795D01*
X75152045Y-47868481D01*
X75237200Y-47741038D01*
X98432527Y-47741038D01*
X98517865Y-47868755D01*
G36*
X81699402Y-55486714D02*
X81904035Y-55792969D01*
X81699402Y-56099224D01*
X81577899Y-56710060D01*
X81516117Y-56802523D01*
X81447000Y-57150000D01*
X81516117Y-57497477D01*
X81691190Y-57759491D01*
X81699402Y-57800776D01*
X81930741Y-58147000D01*
X81593000Y-58147000D01*
X81317252Y-58201849D01*
X81333000Y-58163830D01*
X81333000Y-57254000D01*
X81156000Y-57077000D01*
X79429000Y-57077000D01*
X79429000Y-58554000D01*
X79606000Y-58731000D01*
X80632894Y-58731000D01*
X80062764Y-59301130D01*
X78125000Y-59301130D01*
X77862631Y-59350498D01*
X77621661Y-59505558D01*
X77468041Y-59730388D01*
X77332442Y-59519661D01*
X77095848Y-59358003D01*
X76815000Y-59301130D01*
X75970976Y-59301130D01*
X76207053Y-59065053D01*
X76298629Y-58928000D01*
X76403883Y-58770477D01*
X76408977Y-58744870D01*
X76815000Y-58744870D01*
X77077369Y-58695502D01*
X77318339Y-58540442D01*
X77476884Y-58308403D01*
X77524787Y-58424050D01*
X77723950Y-58623213D01*
X77984170Y-58731000D01*
X79144000Y-58731000D01*
X79321000Y-58554000D01*
X79321000Y-57077000D01*
X79301000Y-57077000D01*
X79301000Y-56969000D01*
X79321000Y-56969000D01*
X79321000Y-56949000D01*
X79429000Y-56949000D01*
X79429000Y-56969000D01*
X81156000Y-56969000D01*
X81333000Y-56792000D01*
X81333000Y-55882170D01*
X81225213Y-55621950D01*
X81026050Y-55422787D01*
X80991576Y-55408507D01*
X81457128Y-54943768D01*
X81482361Y-54883000D01*
X81579316Y-54883000D01*
X81699402Y-55486714D01*
X81699402Y-55486714D01*
G37*
X81699402Y-55486714D02*
X81904035Y-55792969D01*
X81699402Y-56099224D01*
X81577899Y-56710060D01*
X81516117Y-56802523D01*
X81447000Y-57150000D01*
X81516117Y-57497477D01*
X81691190Y-57759491D01*
X81699402Y-57800776D01*
X81930741Y-58147000D01*
X81593000Y-58147000D01*
X81317252Y-58201849D01*
X81333000Y-58163830D01*
X81333000Y-57254000D01*
X81156000Y-57077000D01*
X79429000Y-57077000D01*
X79429000Y-58554000D01*
X79606000Y-58731000D01*
X80632894Y-58731000D01*
X80062764Y-59301130D01*
X78125000Y-59301130D01*
X77862631Y-59350498D01*
X77621661Y-59505558D01*
X77468041Y-59730388D01*
X77332442Y-59519661D01*
X77095848Y-59358003D01*
X76815000Y-59301130D01*
X75970976Y-59301130D01*
X76207053Y-59065053D01*
X76298629Y-58928000D01*
X76403883Y-58770477D01*
X76408977Y-58744870D01*
X76815000Y-58744870D01*
X77077369Y-58695502D01*
X77318339Y-58540442D01*
X77476884Y-58308403D01*
X77524787Y-58424050D01*
X77723950Y-58623213D01*
X77984170Y-58731000D01*
X79144000Y-58731000D01*
X79321000Y-58554000D01*
X79321000Y-57077000D01*
X79301000Y-57077000D01*
X79301000Y-56969000D01*
X79321000Y-56969000D01*
X79321000Y-56949000D01*
X79429000Y-56949000D01*
X79429000Y-56969000D01*
X81156000Y-56969000D01*
X81333000Y-56792000D01*
X81333000Y-55882170D01*
X81225213Y-55621950D01*
X81026050Y-55422787D01*
X80991576Y-55408507D01*
X81457128Y-54943768D01*
X81482361Y-54883000D01*
X81579316Y-54883000D01*
X81699402Y-55486714D01*
M02*
