M48
;DRILL file {KiCad 4.0.7-e0-6372~58~ubuntu16.04.1} date Wed Aug  1 16:39:36 2018
;FORMAT={-:-/ absolute / metric / decimal}
FMAT,2
METRIC,TZ
T1C0.800
%
G90
G05
M71
T1
X72.39Y-57.15
X72.39Y-60.96
X72.39Y-64.77
X77.47Y-53.975
X80.01Y-53.975
X83.185Y-54.483
X83.185Y-57.15
X83.185Y-64.77
X83.185Y-66.929
X85.725Y-54.483
X85.725Y-57.15
X85.725Y-64.77
X85.725Y-66.929
X88.265Y-54.483
X88.265Y-57.15
X88.265Y-64.77
X88.265Y-66.929
X90.805Y-54.483
X90.805Y-57.15
X90.805Y-64.77
X90.805Y-66.929
X93.98Y-53.975
X96.52Y-53.975
X101.6Y-57.277
X101.727Y-64.897
T0
M30
