G04 #@! TF.FileFunction,Copper,L1,Top,Signal*
%FSLAX46Y46*%
G04 Gerber Fmt 4.6, Leading zero omitted, Abs format (unit mm)*
G04 Created by KiCad (PCBNEW 4.0.7-e0-6372~58~ubuntu16.04.1) date Wed Aug  1 16:39:32 2018*
%MOMM*%
%LPD*%
G01*
G04 APERTURE LIST*
%ADD10C,0.100000*%
%ADD11C,0.010000*%
%ADD12C,1.000000*%
%ADD13R,2.000000X2.000000*%
%ADD14C,2.000000*%
%ADD15R,1.000000X1.600000*%
%ADD16R,2.499360X1.198880*%
%ADD17R,0.400000X0.400000*%
%ADD18O,1.800000X2.200000*%
%ADD19C,0.400000*%
%ADD20C,0.200000*%
G04 APERTURE END LIST*
D10*
D11*
G36*
X101626458Y-52984907D02*
X101949250Y-52990750D01*
X101949250Y-53137153D01*
X101946426Y-53211534D01*
X101938938Y-53264505D01*
X101928263Y-53285700D01*
X101928083Y-53285724D01*
X101900120Y-53286079D01*
X101838279Y-53285539D01*
X101751003Y-53284214D01*
X101646736Y-53282217D01*
X101618550Y-53281616D01*
X101330184Y-53275340D01*
X101317158Y-53196545D01*
X101308002Y-53121771D01*
X101303910Y-53050195D01*
X101303899Y-53048407D01*
X101303667Y-52979064D01*
X101626458Y-52984907D01*
X101626458Y-52984907D01*
G37*
X101626458Y-52984907D02*
X101949250Y-52990750D01*
X101949250Y-53137153D01*
X101946426Y-53211534D01*
X101938938Y-53264505D01*
X101928263Y-53285700D01*
X101928083Y-53285724D01*
X101900120Y-53286079D01*
X101838279Y-53285539D01*
X101751003Y-53284214D01*
X101646736Y-53282217D01*
X101618550Y-53281616D01*
X101330184Y-53275340D01*
X101317158Y-53196545D01*
X101308002Y-53121771D01*
X101303910Y-53050195D01*
X101303899Y-53048407D01*
X101303667Y-52979064D01*
X101626458Y-52984907D01*
G36*
X100965000Y-53276500D02*
X100330000Y-53276500D01*
X100330000Y-52980167D01*
X100965000Y-52980167D01*
X100965000Y-53276500D01*
X100965000Y-53276500D01*
G37*
X100965000Y-53276500D02*
X100330000Y-53276500D01*
X100330000Y-52980167D01*
X100965000Y-52980167D01*
X100965000Y-53276500D01*
G36*
X100633914Y-51069875D02*
X100643226Y-51148984D01*
X100647266Y-51228221D01*
X100647267Y-51228625D01*
X100647500Y-51308000D01*
X101640479Y-51308000D01*
X101646698Y-51154542D01*
X101652917Y-51001083D01*
X101788572Y-50994694D01*
X101876274Y-50994467D01*
X101926947Y-51004312D01*
X101941707Y-51015861D01*
X101951043Y-51050659D01*
X101957511Y-51112969D01*
X101959509Y-51174411D01*
X101959833Y-51305406D01*
X102049792Y-51317209D01*
X102127845Y-51326358D01*
X102203313Y-51333573D01*
X102213833Y-51334381D01*
X102287917Y-51339750D01*
X102294119Y-51480161D01*
X102298327Y-51555219D01*
X102305826Y-51598353D01*
X102321449Y-51619943D01*
X102350027Y-51630371D01*
X102365557Y-51633620D01*
X102429954Y-51642066D01*
X102506876Y-51646480D01*
X102523396Y-51646667D01*
X102616000Y-51646667D01*
X102616000Y-51771935D01*
X102617525Y-51862615D01*
X102626926Y-51919071D01*
X102651436Y-51949410D01*
X102698292Y-51961737D01*
X102774729Y-51964157D01*
X102787598Y-51964167D01*
X102933500Y-51964167D01*
X102933500Y-52937833D01*
X102637167Y-52937833D01*
X102637167Y-52281667D01*
X102298500Y-52281667D01*
X102298500Y-52937833D01*
X101981000Y-52937833D01*
X101981000Y-52598681D01*
X101139625Y-52604215D01*
X100298250Y-52609750D01*
X100292068Y-52773792D01*
X100285886Y-52937833D01*
X99991333Y-52937833D01*
X99991333Y-52281667D01*
X99652667Y-52281667D01*
X99652667Y-52937833D01*
X99356333Y-52937833D01*
X99356333Y-51964167D01*
X100285886Y-51964167D01*
X100668667Y-51964167D01*
X100668667Y-51625500D01*
X101621167Y-51625500D01*
X101621167Y-51961484D01*
X101689958Y-51970021D01*
X101812607Y-51980858D01*
X101900861Y-51978217D01*
X101933375Y-51971992D01*
X101957263Y-51962402D01*
X101971479Y-51943226D01*
X101978506Y-51905098D01*
X101980828Y-51838655D01*
X101981000Y-51792364D01*
X101981000Y-51625500D01*
X101621167Y-51625500D01*
X100668667Y-51625500D01*
X100668667Y-51623852D01*
X100483458Y-51629967D01*
X100298250Y-51636083D01*
X100285886Y-51964167D01*
X99356333Y-51964167D01*
X99467458Y-51963877D01*
X99562103Y-51962078D01*
X99622240Y-51952942D01*
X99655685Y-51929976D01*
X99670255Y-51886682D01*
X99673767Y-51816564D01*
X99673833Y-51792364D01*
X99673833Y-51646667D01*
X99766437Y-51646667D01*
X99842321Y-51643492D01*
X99912880Y-51635640D01*
X99925187Y-51633437D01*
X99991333Y-51620208D01*
X99991333Y-51334855D01*
X100141902Y-51324082D01*
X100233136Y-51313454D01*
X100292076Y-51297580D01*
X100310911Y-51284196D01*
X100320726Y-51248569D01*
X100327540Y-51185528D01*
X100329676Y-51122792D01*
X100330000Y-50990500D01*
X100620794Y-50990500D01*
X100633914Y-51069875D01*
X100633914Y-51069875D01*
G37*
X100633914Y-51069875D02*
X100643226Y-51148984D01*
X100647266Y-51228221D01*
X100647267Y-51228625D01*
X100647500Y-51308000D01*
X101640479Y-51308000D01*
X101646698Y-51154542D01*
X101652917Y-51001083D01*
X101788572Y-50994694D01*
X101876274Y-50994467D01*
X101926947Y-51004312D01*
X101941707Y-51015861D01*
X101951043Y-51050659D01*
X101957511Y-51112969D01*
X101959509Y-51174411D01*
X101959833Y-51305406D01*
X102049792Y-51317209D01*
X102127845Y-51326358D01*
X102203313Y-51333573D01*
X102213833Y-51334381D01*
X102287917Y-51339750D01*
X102294119Y-51480161D01*
X102298327Y-51555219D01*
X102305826Y-51598353D01*
X102321449Y-51619943D01*
X102350027Y-51630371D01*
X102365557Y-51633620D01*
X102429954Y-51642066D01*
X102506876Y-51646480D01*
X102523396Y-51646667D01*
X102616000Y-51646667D01*
X102616000Y-51771935D01*
X102617525Y-51862615D01*
X102626926Y-51919071D01*
X102651436Y-51949410D01*
X102698292Y-51961737D01*
X102774729Y-51964157D01*
X102787598Y-51964167D01*
X102933500Y-51964167D01*
X102933500Y-52937833D01*
X102637167Y-52937833D01*
X102637167Y-52281667D01*
X102298500Y-52281667D01*
X102298500Y-52937833D01*
X101981000Y-52937833D01*
X101981000Y-52598681D01*
X101139625Y-52604215D01*
X100298250Y-52609750D01*
X100292068Y-52773792D01*
X100285886Y-52937833D01*
X99991333Y-52937833D01*
X99991333Y-52281667D01*
X99652667Y-52281667D01*
X99652667Y-52937833D01*
X99356333Y-52937833D01*
X99356333Y-51964167D01*
X100285886Y-51964167D01*
X100668667Y-51964167D01*
X100668667Y-51625500D01*
X101621167Y-51625500D01*
X101621167Y-51961484D01*
X101689958Y-51970021D01*
X101812607Y-51980858D01*
X101900861Y-51978217D01*
X101933375Y-51971992D01*
X101957263Y-51962402D01*
X101971479Y-51943226D01*
X101978506Y-51905098D01*
X101980828Y-51838655D01*
X101981000Y-51792364D01*
X101981000Y-51625500D01*
X101621167Y-51625500D01*
X100668667Y-51625500D01*
X100668667Y-51623852D01*
X100483458Y-51629967D01*
X100298250Y-51636083D01*
X100285886Y-51964167D01*
X99356333Y-51964167D01*
X99467458Y-51963877D01*
X99562103Y-51962078D01*
X99622240Y-51952942D01*
X99655685Y-51929976D01*
X99670255Y-51886682D01*
X99673767Y-51816564D01*
X99673833Y-51792364D01*
X99673833Y-51646667D01*
X99766437Y-51646667D01*
X99842321Y-51643492D01*
X99912880Y-51635640D01*
X99925187Y-51633437D01*
X99991333Y-51620208D01*
X99991333Y-51334855D01*
X100141902Y-51324082D01*
X100233136Y-51313454D01*
X100292076Y-51297580D01*
X100310911Y-51284196D01*
X100320726Y-51248569D01*
X100327540Y-51185528D01*
X100329676Y-51122792D01*
X100330000Y-50990500D01*
X100620794Y-50990500D01*
X100633914Y-51069875D01*
G36*
X100287667Y-50948167D02*
X99991333Y-50948167D01*
X99991333Y-50651833D01*
X100287667Y-50651833D01*
X100287667Y-50948167D01*
X100287667Y-50948167D01*
G37*
X100287667Y-50948167D02*
X99991333Y-50948167D01*
X99991333Y-50651833D01*
X100287667Y-50651833D01*
X100287667Y-50948167D01*
G36*
X102134458Y-50656198D02*
X102287917Y-50662417D01*
X102294175Y-50805292D01*
X102300434Y-50948167D01*
X101981000Y-50948167D01*
X101981000Y-50649979D01*
X102134458Y-50656198D01*
X102134458Y-50656198D01*
G37*
X102134458Y-50656198D02*
X102287917Y-50662417D01*
X102294175Y-50805292D01*
X102300434Y-50948167D01*
X101981000Y-50948167D01*
X101981000Y-50649979D01*
X102134458Y-50656198D01*
G36*
X102489000Y-50059167D02*
X100673958Y-50059167D01*
X100660729Y-50125312D01*
X100650861Y-50195081D01*
X100647500Y-50252312D01*
X100647500Y-50313167D01*
X99631500Y-50313167D01*
X99631500Y-50080333D01*
X100139500Y-50080333D01*
X100139824Y-49979792D01*
X100143104Y-49915217D01*
X100151032Y-49867541D01*
X100155699Y-49855946D01*
X100176474Y-49850054D01*
X100231432Y-49844562D01*
X100321744Y-49839435D01*
X100448583Y-49834633D01*
X100613122Y-49830120D01*
X100816533Y-49825856D01*
X101059988Y-49821806D01*
X101330125Y-49818112D01*
X102489000Y-49803580D01*
X102489000Y-50059167D01*
X102489000Y-50059167D01*
G37*
X102489000Y-50059167D02*
X100673958Y-50059167D01*
X100660729Y-50125312D01*
X100650861Y-50195081D01*
X100647500Y-50252312D01*
X100647500Y-50313167D01*
X99631500Y-50313167D01*
X99631500Y-50080333D01*
X100139500Y-50080333D01*
X100139824Y-49979792D01*
X100143104Y-49915217D01*
X100151032Y-49867541D01*
X100155699Y-49855946D01*
X100176474Y-49850054D01*
X100231432Y-49844562D01*
X100321744Y-49839435D01*
X100448583Y-49834633D01*
X100613122Y-49830120D01*
X100816533Y-49825856D01*
X101059988Y-49821806D01*
X101330125Y-49818112D01*
X102489000Y-49803580D01*
X102489000Y-50059167D01*
G36*
X99864333Y-49572333D02*
X100139500Y-49572333D01*
X100139500Y-49805167D01*
X99356333Y-49805167D01*
X99356333Y-49297167D01*
X99864333Y-49297167D01*
X99864333Y-49572333D01*
X99864333Y-49572333D01*
G37*
X99864333Y-49572333D02*
X100139500Y-49572333D01*
X100139500Y-49805167D01*
X99356333Y-49805167D01*
X99356333Y-49297167D01*
X99864333Y-49297167D01*
X99864333Y-49572333D01*
G36*
X100393500Y-48746833D02*
X101197833Y-48746833D01*
X101197833Y-48514000D01*
X101705833Y-48514000D01*
X101705833Y-48746833D01*
X102489000Y-48746833D01*
X102489000Y-48999490D01*
X102240292Y-49005453D01*
X101991583Y-49011417D01*
X101985324Y-49154292D01*
X101979066Y-49297167D01*
X102508146Y-49297167D01*
X102520750Y-49032583D01*
X102780042Y-49026640D01*
X103039333Y-49020697D01*
X103039333Y-49297167D01*
X103293333Y-49297167D01*
X103293333Y-49530000D01*
X102764167Y-49530000D01*
X102764167Y-49805167D01*
X102506975Y-49805167D01*
X102513862Y-49672875D01*
X102520750Y-49540583D01*
X100139500Y-49529647D01*
X100139500Y-49276000D01*
X100025348Y-49276000D01*
X99956131Y-49273013D01*
X99914504Y-49258383D01*
X99893515Y-49223603D01*
X99886209Y-49160166D01*
X99885500Y-49104935D01*
X99885500Y-49000833D01*
X100922667Y-49000833D01*
X100922667Y-49297167D01*
X101197833Y-49297167D01*
X101197833Y-49167612D01*
X101432073Y-49167612D01*
X101445110Y-49237251D01*
X101485517Y-49278746D01*
X101555616Y-49295886D01*
X101585637Y-49296842D01*
X101647973Y-49292646D01*
X101694165Y-49282598D01*
X101701697Y-49279004D01*
X101718825Y-49247337D01*
X101724170Y-49179558D01*
X101722864Y-49136453D01*
X101716417Y-49011417D01*
X101586958Y-49005188D01*
X101457499Y-48998960D01*
X101444083Y-49066043D01*
X101432073Y-49167612D01*
X101197833Y-49167612D01*
X101197833Y-49000833D01*
X100922667Y-49000833D01*
X99885500Y-49000833D01*
X99635656Y-49000833D01*
X99621204Y-48876312D01*
X99612012Y-48806820D01*
X99600098Y-48768376D01*
X99578073Y-48749954D01*
X99538548Y-48740527D01*
X99529168Y-48738962D01*
X99471517Y-48732955D01*
X99387274Y-48728390D01*
X99292175Y-48726049D01*
X99266375Y-48725899D01*
X99081167Y-48725667D01*
X99081167Y-48514000D01*
X100393500Y-48514000D01*
X100393500Y-48746833D01*
X100393500Y-48746833D01*
G37*
X100393500Y-48746833D02*
X101197833Y-48746833D01*
X101197833Y-48514000D01*
X101705833Y-48514000D01*
X101705833Y-48746833D01*
X102489000Y-48746833D01*
X102489000Y-48999490D01*
X102240292Y-49005453D01*
X101991583Y-49011417D01*
X101985324Y-49154292D01*
X101979066Y-49297167D01*
X102508146Y-49297167D01*
X102520750Y-49032583D01*
X102780042Y-49026640D01*
X103039333Y-49020697D01*
X103039333Y-49297167D01*
X103293333Y-49297167D01*
X103293333Y-49530000D01*
X102764167Y-49530000D01*
X102764167Y-49805167D01*
X102506975Y-49805167D01*
X102513862Y-49672875D01*
X102520750Y-49540583D01*
X100139500Y-49529647D01*
X100139500Y-49276000D01*
X100025348Y-49276000D01*
X99956131Y-49273013D01*
X99914504Y-49258383D01*
X99893515Y-49223603D01*
X99886209Y-49160166D01*
X99885500Y-49104935D01*
X99885500Y-49000833D01*
X100922667Y-49000833D01*
X100922667Y-49297167D01*
X101197833Y-49297167D01*
X101197833Y-49167612D01*
X101432073Y-49167612D01*
X101445110Y-49237251D01*
X101485517Y-49278746D01*
X101555616Y-49295886D01*
X101585637Y-49296842D01*
X101647973Y-49292646D01*
X101694165Y-49282598D01*
X101701697Y-49279004D01*
X101718825Y-49247337D01*
X101724170Y-49179558D01*
X101722864Y-49136453D01*
X101716417Y-49011417D01*
X101586958Y-49005188D01*
X101457499Y-48998960D01*
X101444083Y-49066043D01*
X101432073Y-49167612D01*
X101197833Y-49167612D01*
X101197833Y-49000833D01*
X100922667Y-49000833D01*
X99885500Y-49000833D01*
X99635656Y-49000833D01*
X99621204Y-48876312D01*
X99612012Y-48806820D01*
X99600098Y-48768376D01*
X99578073Y-48749954D01*
X99538548Y-48740527D01*
X99529168Y-48738962D01*
X99471517Y-48732955D01*
X99387274Y-48728390D01*
X99292175Y-48726049D01*
X99266375Y-48725899D01*
X99081167Y-48725667D01*
X99081167Y-48514000D01*
X100393500Y-48514000D01*
X100393500Y-48746833D01*
G36*
X99047300Y-47332900D02*
X101015301Y-47332900D01*
X101323606Y-47332992D01*
X101608052Y-47333270D01*
X101868501Y-47333732D01*
X102104817Y-47334377D01*
X102316861Y-47335204D01*
X102504494Y-47336212D01*
X102667580Y-47337401D01*
X102805980Y-47338770D01*
X102919555Y-47340317D01*
X103008169Y-47342042D01*
X103071683Y-47343945D01*
X103109960Y-47346023D01*
X103113976Y-47346397D01*
X103289187Y-47376938D01*
X103456882Y-47430673D01*
X103615178Y-47506024D01*
X103762190Y-47601417D01*
X103896032Y-47715276D01*
X104014821Y-47846025D01*
X104116672Y-47992088D01*
X104199699Y-48151891D01*
X104254954Y-48300220D01*
X104273074Y-48363584D01*
X104287476Y-48426013D01*
X104298548Y-48491495D01*
X104306678Y-48564020D01*
X104312253Y-48647575D01*
X104315661Y-48746151D01*
X104317290Y-48863735D01*
X104317574Y-48944450D01*
X104317800Y-49241551D01*
X104440040Y-49405127D01*
X104562280Y-49568704D01*
X104552772Y-52199194D01*
X104543265Y-54829683D01*
X104317799Y-55179825D01*
X104317529Y-62016437D01*
X104317502Y-62523381D01*
X104317460Y-63005537D01*
X104317401Y-63463518D01*
X104317324Y-63897934D01*
X104317228Y-64309400D01*
X104317111Y-64698526D01*
X104316971Y-65065924D01*
X104316806Y-65412208D01*
X104316615Y-65737989D01*
X104316397Y-66043879D01*
X104316149Y-66330491D01*
X104315871Y-66598436D01*
X104315560Y-66848327D01*
X104315216Y-67080775D01*
X104314835Y-67296394D01*
X104314417Y-67495794D01*
X104313961Y-67679589D01*
X104313464Y-67848390D01*
X104312925Y-68002810D01*
X104312343Y-68143460D01*
X104311715Y-68270953D01*
X104311040Y-68385902D01*
X104310317Y-68488917D01*
X104309544Y-68580611D01*
X104308719Y-68661597D01*
X104307842Y-68732486D01*
X104306909Y-68793890D01*
X104305919Y-68846423D01*
X104304872Y-68890695D01*
X104303765Y-68927320D01*
X104302597Y-68956908D01*
X104301366Y-68980073D01*
X104300071Y-68997427D01*
X104299244Y-69005450D01*
X104265339Y-69190823D01*
X104209562Y-69365073D01*
X104133271Y-69526841D01*
X104037826Y-69674768D01*
X103924584Y-69807496D01*
X103794905Y-69923666D01*
X103650148Y-70021919D01*
X103491670Y-70100897D01*
X103320831Y-70159241D01*
X103138989Y-70195593D01*
X103104950Y-70199722D01*
X103084173Y-70200607D01*
X103038596Y-70201470D01*
X102968804Y-70202311D01*
X102875381Y-70203131D01*
X102758913Y-70203929D01*
X102619983Y-70204706D01*
X102459178Y-70205461D01*
X102277082Y-70206195D01*
X102074280Y-70206907D01*
X101851356Y-70207597D01*
X101608896Y-70208267D01*
X101347485Y-70208914D01*
X101067708Y-70209541D01*
X100770148Y-70210146D01*
X100455393Y-70210730D01*
X100124025Y-70211292D01*
X99776630Y-70211833D01*
X99413794Y-70212353D01*
X99036100Y-70212851D01*
X98644135Y-70213329D01*
X98238482Y-70213785D01*
X97819726Y-70214220D01*
X97388454Y-70214634D01*
X96945248Y-70215026D01*
X96490695Y-70215398D01*
X96025380Y-70215748D01*
X95549886Y-70216078D01*
X95064800Y-70216386D01*
X94570705Y-70216673D01*
X94068187Y-70216940D01*
X93557831Y-70217185D01*
X93040222Y-70217410D01*
X92515944Y-70217613D01*
X91985583Y-70217796D01*
X91449723Y-70217958D01*
X90908950Y-70218099D01*
X90363847Y-70218219D01*
X89815001Y-70218319D01*
X89262996Y-70218397D01*
X88708416Y-70218455D01*
X88151848Y-70218492D01*
X87593875Y-70218509D01*
X87035082Y-70218505D01*
X86476056Y-70218480D01*
X85917379Y-70218434D01*
X85359638Y-70218368D01*
X84803417Y-70218282D01*
X84249301Y-70218175D01*
X83697875Y-70218047D01*
X83149724Y-70217899D01*
X82605433Y-70217730D01*
X82065587Y-70217541D01*
X81530770Y-70217331D01*
X81001568Y-70217101D01*
X80478565Y-70216851D01*
X79962346Y-70216580D01*
X79453497Y-70216289D01*
X78952602Y-70215978D01*
X78460246Y-70215646D01*
X77977014Y-70215295D01*
X77503490Y-70214922D01*
X77040261Y-70214530D01*
X76587910Y-70214118D01*
X76147022Y-70213685D01*
X75718183Y-70213232D01*
X75301978Y-70212759D01*
X74898990Y-70212266D01*
X74509806Y-70211753D01*
X74135010Y-70211220D01*
X73775187Y-70210667D01*
X73430921Y-70210094D01*
X73102799Y-70209501D01*
X72791404Y-70208887D01*
X72497321Y-70208254D01*
X72221137Y-70207602D01*
X71963434Y-70206929D01*
X71724799Y-70206236D01*
X71505816Y-70205524D01*
X71307070Y-70204792D01*
X71129146Y-70204040D01*
X70972629Y-70203268D01*
X70838103Y-70202476D01*
X70726155Y-70201665D01*
X70637368Y-70200834D01*
X70572327Y-70199984D01*
X70531618Y-70199113D01*
X70516750Y-70198379D01*
X70340645Y-70165136D01*
X70174269Y-70109105D01*
X70019054Y-70031506D01*
X69876432Y-69933557D01*
X69747836Y-69816477D01*
X69634699Y-69681486D01*
X69538453Y-69529803D01*
X69460530Y-69362647D01*
X69428408Y-69272150D01*
X69423147Y-69256283D01*
X69418144Y-69241983D01*
X69413392Y-69228609D01*
X69408885Y-69215523D01*
X69404615Y-69202086D01*
X69400577Y-69187659D01*
X69396765Y-69171605D01*
X69393171Y-69153282D01*
X69389789Y-69132054D01*
X69386613Y-69107281D01*
X69383636Y-69078325D01*
X69380852Y-69044546D01*
X69378255Y-69005307D01*
X69375837Y-68959967D01*
X69373593Y-68907889D01*
X69371516Y-68848433D01*
X69369600Y-68780961D01*
X69367837Y-68704834D01*
X69366223Y-68619413D01*
X69364749Y-68524060D01*
X69363410Y-68418136D01*
X69362199Y-68301001D01*
X69361110Y-68172017D01*
X69360137Y-68030546D01*
X69359272Y-67875949D01*
X69358510Y-67707586D01*
X69357843Y-67524819D01*
X69357267Y-67327009D01*
X69356773Y-67113518D01*
X69356355Y-66883707D01*
X69356008Y-66636936D01*
X69355724Y-66372568D01*
X69355498Y-66089963D01*
X69355322Y-65788482D01*
X69355191Y-65467487D01*
X69355097Y-65126339D01*
X69355034Y-64764400D01*
X69354997Y-64381030D01*
X69354978Y-63975590D01*
X69354970Y-63547443D01*
X69354969Y-63095948D01*
X69354966Y-62620468D01*
X69354956Y-62120363D01*
X69354952Y-62010029D01*
X69354700Y-55192408D01*
X69084676Y-54838382D01*
X69072507Y-49730736D01*
X69570600Y-49730736D01*
X69570604Y-50382843D01*
X69570668Y-50475808D01*
X69570852Y-50591988D01*
X69571149Y-50729198D01*
X69571552Y-50885254D01*
X69572053Y-51057971D01*
X69572645Y-51245165D01*
X69573320Y-51444649D01*
X69574071Y-51654241D01*
X69574891Y-51871755D01*
X69575771Y-52095006D01*
X69576705Y-52321810D01*
X69577684Y-52549982D01*
X69578702Y-52777337D01*
X69579061Y-52855123D01*
X69587512Y-54675297D01*
X69724927Y-54855373D01*
X69862343Y-55035450D01*
X69865809Y-62033150D01*
X69869274Y-69030850D01*
X69897113Y-69109350D01*
X69956798Y-69251795D01*
X70027984Y-69373130D01*
X70112484Y-69475724D01*
X70212108Y-69561944D01*
X70275450Y-69604122D01*
X70334159Y-69634469D01*
X70404418Y-69663025D01*
X70475890Y-69686109D01*
X70538241Y-69700039D01*
X70548500Y-69701380D01*
X70562884Y-69701573D01*
X70602192Y-69701761D01*
X70665947Y-69701947D01*
X70753670Y-69702128D01*
X70864887Y-69702305D01*
X70999120Y-69702478D01*
X71155892Y-69702647D01*
X71334727Y-69702812D01*
X71535147Y-69702973D01*
X71756676Y-69703129D01*
X71998837Y-69703280D01*
X72261154Y-69703426D01*
X72543149Y-69703568D01*
X72844346Y-69703705D01*
X73164267Y-69703837D01*
X73502437Y-69703964D01*
X73858378Y-69704085D01*
X74231614Y-69704201D01*
X74621667Y-69704312D01*
X75028061Y-69704416D01*
X75450320Y-69704516D01*
X75887966Y-69704609D01*
X76340522Y-69704697D01*
X76807513Y-69704778D01*
X77288460Y-69704854D01*
X77782887Y-69704923D01*
X78290318Y-69704986D01*
X78810276Y-69705042D01*
X79342283Y-69705092D01*
X79885864Y-69705135D01*
X80440541Y-69705171D01*
X81005837Y-69705200D01*
X81581276Y-69705223D01*
X82166380Y-69705238D01*
X82760674Y-69705246D01*
X83363680Y-69705247D01*
X83974922Y-69705240D01*
X84593922Y-69705226D01*
X85220205Y-69705204D01*
X85853292Y-69705174D01*
X86492708Y-69705137D01*
X86861650Y-69705112D01*
X103130350Y-69703950D01*
X103215375Y-69675080D01*
X103355051Y-69615060D01*
X103478431Y-69535715D01*
X103584787Y-69437791D01*
X103673388Y-69322032D01*
X103743508Y-69189185D01*
X103776585Y-69101027D01*
X103803450Y-69018150D01*
X103809800Y-62026517D01*
X103816150Y-55034885D01*
X103932886Y-54855262D01*
X104049623Y-54675639D01*
X104051926Y-52199923D01*
X104054229Y-49724206D01*
X103941539Y-49573128D01*
X103828850Y-49422050D01*
X103820982Y-48990250D01*
X103818779Y-48873285D01*
X103816719Y-48778550D01*
X103814567Y-48702875D01*
X103812089Y-48643092D01*
X103809049Y-48596032D01*
X103805213Y-48558527D01*
X103800345Y-48527409D01*
X103794211Y-48499509D01*
X103786577Y-48471659D01*
X103781215Y-48453777D01*
X103727093Y-48318745D01*
X103650652Y-48192713D01*
X103556289Y-48081813D01*
X103453604Y-47992761D01*
X103343748Y-47925204D01*
X103222785Y-47877301D01*
X103086776Y-47847214D01*
X103041450Y-47841274D01*
X103012314Y-47839474D01*
X102958330Y-47837795D01*
X102880047Y-47836242D01*
X102778016Y-47834817D01*
X102652787Y-47833524D01*
X102504911Y-47832366D01*
X102334939Y-47831346D01*
X102143420Y-47830468D01*
X101930906Y-47829734D01*
X101697947Y-47829148D01*
X101445093Y-47828713D01*
X101172895Y-47828432D01*
X100881904Y-47828309D01*
X100828801Y-47828304D01*
X98730452Y-47828199D01*
X98713155Y-47863125D01*
X98707026Y-47878700D01*
X98692747Y-47916907D01*
X98670777Y-47976483D01*
X98641575Y-48056162D01*
X98605600Y-48154681D01*
X98563311Y-48270775D01*
X98515166Y-48403180D01*
X98461626Y-48550632D01*
X98403149Y-48711866D01*
X98340195Y-48885619D01*
X98273221Y-49070626D01*
X98202688Y-49265623D01*
X98129054Y-49469345D01*
X98052778Y-49680529D01*
X97974320Y-49897910D01*
X97973054Y-49901420D01*
X97250250Y-51904790D01*
X76282358Y-51904900D01*
X75621101Y-49869725D01*
X74959845Y-47834550D01*
X72757347Y-47834550D01*
X72475176Y-47834517D01*
X72217237Y-47834452D01*
X71982366Y-47834399D01*
X71769393Y-47834404D01*
X71577153Y-47834513D01*
X71404479Y-47834773D01*
X71250205Y-47835227D01*
X71113162Y-47835924D01*
X70992185Y-47836908D01*
X70886107Y-47838225D01*
X70793761Y-47839922D01*
X70713980Y-47842043D01*
X70645597Y-47844635D01*
X70587446Y-47847744D01*
X70538359Y-47851416D01*
X70497171Y-47855696D01*
X70462713Y-47860630D01*
X70433820Y-47866264D01*
X70409325Y-47872644D01*
X70388060Y-47879815D01*
X70368860Y-47887825D01*
X70350556Y-47896717D01*
X70331983Y-47906539D01*
X70311974Y-47917336D01*
X70289361Y-47929154D01*
X70284278Y-47931717D01*
X70170215Y-48002504D01*
X70067067Y-48093812D01*
X69977800Y-48202039D01*
X69905377Y-48323584D01*
X69852763Y-48454845D01*
X69852159Y-48456806D01*
X69843708Y-48485431D01*
X69836859Y-48512554D01*
X69831381Y-48541328D01*
X69827046Y-48574908D01*
X69823623Y-48616447D01*
X69820882Y-48669099D01*
X69818593Y-48736016D01*
X69816527Y-48820354D01*
X69814453Y-48925264D01*
X69813273Y-48990250D01*
X69805550Y-49422050D01*
X69570600Y-49730736D01*
X69072507Y-49730736D01*
X69072104Y-49561750D01*
X69194352Y-49401148D01*
X69316599Y-49240546D01*
X69316696Y-48943948D01*
X69317461Y-48813381D01*
X69319918Y-48704068D01*
X69324453Y-48611898D01*
X69331448Y-48532757D01*
X69341288Y-48462534D01*
X69354356Y-48397116D01*
X69371038Y-48332391D01*
X69375126Y-48318193D01*
X69438059Y-48146070D01*
X69521574Y-47986380D01*
X69623861Y-47840658D01*
X69743111Y-47710439D01*
X69877514Y-47597259D01*
X70025258Y-47502654D01*
X70062361Y-47485300D01*
X75144188Y-47485300D01*
X75153193Y-47513875D01*
X75162563Y-47543222D01*
X75178948Y-47594093D01*
X75201853Y-47664969D01*
X75230787Y-47754334D01*
X75265254Y-47860673D01*
X75304763Y-47982469D01*
X75348820Y-48118206D01*
X75396931Y-48266367D01*
X75448602Y-48425436D01*
X75503342Y-48593896D01*
X75560656Y-48770233D01*
X75620051Y-48952928D01*
X75681033Y-49140466D01*
X75743110Y-49331331D01*
X75805787Y-49524006D01*
X75868572Y-49716975D01*
X75930971Y-49908722D01*
X75992491Y-50097730D01*
X76052638Y-50282483D01*
X76110920Y-50461465D01*
X76166842Y-50633159D01*
X76219912Y-50796050D01*
X76269636Y-50948620D01*
X76315520Y-51089354D01*
X76357072Y-51216735D01*
X76393797Y-51329247D01*
X76425204Y-51425374D01*
X76450797Y-51503599D01*
X76470085Y-51562406D01*
X76482573Y-51600278D01*
X76487768Y-51615700D01*
X76487880Y-51615975D01*
X76500766Y-51616447D01*
X76538454Y-51616914D01*
X76600345Y-51617375D01*
X76685842Y-51617829D01*
X76794347Y-51618275D01*
X76925261Y-51618713D01*
X77077987Y-51619143D01*
X77251925Y-51619564D01*
X77446479Y-51619975D01*
X77661050Y-51620376D01*
X77895040Y-51620766D01*
X78147851Y-51621144D01*
X78418885Y-51621511D01*
X78707543Y-51621865D01*
X79013227Y-51622207D01*
X79335341Y-51622535D01*
X79673284Y-51622848D01*
X80026459Y-51623147D01*
X80394269Y-51623431D01*
X80776115Y-51623699D01*
X81171398Y-51623951D01*
X81579522Y-51624186D01*
X81999887Y-51624404D01*
X82431895Y-51624603D01*
X82874949Y-51624784D01*
X83328450Y-51624946D01*
X83791801Y-51625089D01*
X84264403Y-51625211D01*
X84745658Y-51625312D01*
X85234967Y-51625392D01*
X85731734Y-51625451D01*
X86235359Y-51625487D01*
X86745245Y-51625499D01*
X86772257Y-51625500D01*
X97050915Y-51625500D01*
X97063188Y-51590575D01*
X97068773Y-51575013D01*
X97082537Y-51536824D01*
X97104024Y-51477268D01*
X97132777Y-51397605D01*
X97168343Y-51299096D01*
X97210266Y-51183001D01*
X97258090Y-51050581D01*
X97311361Y-50903096D01*
X97369623Y-50741806D01*
X97432421Y-50567972D01*
X97499300Y-50382854D01*
X97569803Y-50187713D01*
X97643477Y-49983808D01*
X97719866Y-49772402D01*
X97798515Y-49554753D01*
X97802870Y-49542700D01*
X97881536Y-49324977D01*
X97957899Y-49113562D01*
X98031510Y-48909703D01*
X98101918Y-48714650D01*
X98168672Y-48529653D01*
X98231324Y-48355963D01*
X98289421Y-48194828D01*
X98342514Y-48047498D01*
X98390152Y-47915224D01*
X98431885Y-47799256D01*
X98467263Y-47700842D01*
X98495834Y-47621234D01*
X98517149Y-47561680D01*
X98530758Y-47523431D01*
X98536209Y-47507736D01*
X98536271Y-47507525D01*
X98535850Y-47506279D01*
X98533582Y-47505080D01*
X98528986Y-47503928D01*
X98521581Y-47502821D01*
X98510886Y-47501759D01*
X98496420Y-47500741D01*
X98477702Y-47499765D01*
X98454252Y-47498831D01*
X98425588Y-47497938D01*
X98391230Y-47497085D01*
X98350696Y-47496272D01*
X98303506Y-47495496D01*
X98249179Y-47494758D01*
X98187234Y-47494056D01*
X98117190Y-47493390D01*
X98038565Y-47492758D01*
X97950880Y-47492160D01*
X97853653Y-47491594D01*
X97746403Y-47491060D01*
X97628650Y-47490558D01*
X97499912Y-47490085D01*
X97359709Y-47489641D01*
X97207559Y-47489225D01*
X97042982Y-47488837D01*
X96865497Y-47488475D01*
X96674622Y-47488138D01*
X96469878Y-47487826D01*
X96250783Y-47487537D01*
X96016855Y-47487271D01*
X95767615Y-47487027D01*
X95502582Y-47486803D01*
X95221273Y-47486600D01*
X94923210Y-47486415D01*
X94607909Y-47486249D01*
X94274892Y-47486099D01*
X93923676Y-47485966D01*
X93553781Y-47485849D01*
X93164725Y-47485745D01*
X92756029Y-47485656D01*
X92327211Y-47485579D01*
X91877790Y-47485513D01*
X91407285Y-47485459D01*
X90915216Y-47485414D01*
X90401101Y-47485378D01*
X89864459Y-47485350D01*
X89304810Y-47485329D01*
X88721672Y-47485315D01*
X88114566Y-47485306D01*
X87483009Y-47485301D01*
X86843225Y-47485300D01*
X75144188Y-47485300D01*
X70062361Y-47485300D01*
X70184534Y-47428158D01*
X70353532Y-47375308D01*
X70520423Y-47346655D01*
X70553775Y-47344494D01*
X70611084Y-47342521D01*
X70692479Y-47340735D01*
X70798085Y-47339134D01*
X70928031Y-47337717D01*
X71082445Y-47336485D01*
X71261452Y-47335436D01*
X71465181Y-47334569D01*
X71693760Y-47333884D01*
X71947315Y-47333379D01*
X72225974Y-47333054D01*
X72529865Y-47332908D01*
X72631798Y-47332900D01*
X74612500Y-47332900D01*
X74612500Y-46990000D01*
X99047300Y-46990000D01*
X99047300Y-47332900D01*
X99047300Y-47332900D01*
G37*
X99047300Y-47332900D02*
X101015301Y-47332900D01*
X101323606Y-47332992D01*
X101608052Y-47333270D01*
X101868501Y-47333732D01*
X102104817Y-47334377D01*
X102316861Y-47335204D01*
X102504494Y-47336212D01*
X102667580Y-47337401D01*
X102805980Y-47338770D01*
X102919555Y-47340317D01*
X103008169Y-47342042D01*
X103071683Y-47343945D01*
X103109960Y-47346023D01*
X103113976Y-47346397D01*
X103289187Y-47376938D01*
X103456882Y-47430673D01*
X103615178Y-47506024D01*
X103762190Y-47601417D01*
X103896032Y-47715276D01*
X104014821Y-47846025D01*
X104116672Y-47992088D01*
X104199699Y-48151891D01*
X104254954Y-48300220D01*
X104273074Y-48363584D01*
X104287476Y-48426013D01*
X104298548Y-48491495D01*
X104306678Y-48564020D01*
X104312253Y-48647575D01*
X104315661Y-48746151D01*
X104317290Y-48863735D01*
X104317574Y-48944450D01*
X104317800Y-49241551D01*
X104440040Y-49405127D01*
X104562280Y-49568704D01*
X104552772Y-52199194D01*
X104543265Y-54829683D01*
X104317799Y-55179825D01*
X104317529Y-62016437D01*
X104317502Y-62523381D01*
X104317460Y-63005537D01*
X104317401Y-63463518D01*
X104317324Y-63897934D01*
X104317228Y-64309400D01*
X104317111Y-64698526D01*
X104316971Y-65065924D01*
X104316806Y-65412208D01*
X104316615Y-65737989D01*
X104316397Y-66043879D01*
X104316149Y-66330491D01*
X104315871Y-66598436D01*
X104315560Y-66848327D01*
X104315216Y-67080775D01*
X104314835Y-67296394D01*
X104314417Y-67495794D01*
X104313961Y-67679589D01*
X104313464Y-67848390D01*
X104312925Y-68002810D01*
X104312343Y-68143460D01*
X104311715Y-68270953D01*
X104311040Y-68385902D01*
X104310317Y-68488917D01*
X104309544Y-68580611D01*
X104308719Y-68661597D01*
X104307842Y-68732486D01*
X104306909Y-68793890D01*
X104305919Y-68846423D01*
X104304872Y-68890695D01*
X104303765Y-68927320D01*
X104302597Y-68956908D01*
X104301366Y-68980073D01*
X104300071Y-68997427D01*
X104299244Y-69005450D01*
X104265339Y-69190823D01*
X104209562Y-69365073D01*
X104133271Y-69526841D01*
X104037826Y-69674768D01*
X103924584Y-69807496D01*
X103794905Y-69923666D01*
X103650148Y-70021919D01*
X103491670Y-70100897D01*
X103320831Y-70159241D01*
X103138989Y-70195593D01*
X103104950Y-70199722D01*
X103084173Y-70200607D01*
X103038596Y-70201470D01*
X102968804Y-70202311D01*
X102875381Y-70203131D01*
X102758913Y-70203929D01*
X102619983Y-70204706D01*
X102459178Y-70205461D01*
X102277082Y-70206195D01*
X102074280Y-70206907D01*
X101851356Y-70207597D01*
X101608896Y-70208267D01*
X101347485Y-70208914D01*
X101067708Y-70209541D01*
X100770148Y-70210146D01*
X100455393Y-70210730D01*
X100124025Y-70211292D01*
X99776630Y-70211833D01*
X99413794Y-70212353D01*
X99036100Y-70212851D01*
X98644135Y-70213329D01*
X98238482Y-70213785D01*
X97819726Y-70214220D01*
X97388454Y-70214634D01*
X96945248Y-70215026D01*
X96490695Y-70215398D01*
X96025380Y-70215748D01*
X95549886Y-70216078D01*
X95064800Y-70216386D01*
X94570705Y-70216673D01*
X94068187Y-70216940D01*
X93557831Y-70217185D01*
X93040222Y-70217410D01*
X92515944Y-70217613D01*
X91985583Y-70217796D01*
X91449723Y-70217958D01*
X90908950Y-70218099D01*
X90363847Y-70218219D01*
X89815001Y-70218319D01*
X89262996Y-70218397D01*
X88708416Y-70218455D01*
X88151848Y-70218492D01*
X87593875Y-70218509D01*
X87035082Y-70218505D01*
X86476056Y-70218480D01*
X85917379Y-70218434D01*
X85359638Y-70218368D01*
X84803417Y-70218282D01*
X84249301Y-70218175D01*
X83697875Y-70218047D01*
X83149724Y-70217899D01*
X82605433Y-70217730D01*
X82065587Y-70217541D01*
X81530770Y-70217331D01*
X81001568Y-70217101D01*
X80478565Y-70216851D01*
X79962346Y-70216580D01*
X79453497Y-70216289D01*
X78952602Y-70215978D01*
X78460246Y-70215646D01*
X77977014Y-70215295D01*
X77503490Y-70214922D01*
X77040261Y-70214530D01*
X76587910Y-70214118D01*
X76147022Y-70213685D01*
X75718183Y-70213232D01*
X75301978Y-70212759D01*
X74898990Y-70212266D01*
X74509806Y-70211753D01*
X74135010Y-70211220D01*
X73775187Y-70210667D01*
X73430921Y-70210094D01*
X73102799Y-70209501D01*
X72791404Y-70208887D01*
X72497321Y-70208254D01*
X72221137Y-70207602D01*
X71963434Y-70206929D01*
X71724799Y-70206236D01*
X71505816Y-70205524D01*
X71307070Y-70204792D01*
X71129146Y-70204040D01*
X70972629Y-70203268D01*
X70838103Y-70202476D01*
X70726155Y-70201665D01*
X70637368Y-70200834D01*
X70572327Y-70199984D01*
X70531618Y-70199113D01*
X70516750Y-70198379D01*
X70340645Y-70165136D01*
X70174269Y-70109105D01*
X70019054Y-70031506D01*
X69876432Y-69933557D01*
X69747836Y-69816477D01*
X69634699Y-69681486D01*
X69538453Y-69529803D01*
X69460530Y-69362647D01*
X69428408Y-69272150D01*
X69423147Y-69256283D01*
X69418144Y-69241983D01*
X69413392Y-69228609D01*
X69408885Y-69215523D01*
X69404615Y-69202086D01*
X69400577Y-69187659D01*
X69396765Y-69171605D01*
X69393171Y-69153282D01*
X69389789Y-69132054D01*
X69386613Y-69107281D01*
X69383636Y-69078325D01*
X69380852Y-69044546D01*
X69378255Y-69005307D01*
X69375837Y-68959967D01*
X69373593Y-68907889D01*
X69371516Y-68848433D01*
X69369600Y-68780961D01*
X69367837Y-68704834D01*
X69366223Y-68619413D01*
X69364749Y-68524060D01*
X69363410Y-68418136D01*
X69362199Y-68301001D01*
X69361110Y-68172017D01*
X69360137Y-68030546D01*
X69359272Y-67875949D01*
X69358510Y-67707586D01*
X69357843Y-67524819D01*
X69357267Y-67327009D01*
X69356773Y-67113518D01*
X69356355Y-66883707D01*
X69356008Y-66636936D01*
X69355724Y-66372568D01*
X69355498Y-66089963D01*
X69355322Y-65788482D01*
X69355191Y-65467487D01*
X69355097Y-65126339D01*
X69355034Y-64764400D01*
X69354997Y-64381030D01*
X69354978Y-63975590D01*
X69354970Y-63547443D01*
X69354969Y-63095948D01*
X69354966Y-62620468D01*
X69354956Y-62120363D01*
X69354952Y-62010029D01*
X69354700Y-55192408D01*
X69084676Y-54838382D01*
X69072507Y-49730736D01*
X69570600Y-49730736D01*
X69570604Y-50382843D01*
X69570668Y-50475808D01*
X69570852Y-50591988D01*
X69571149Y-50729198D01*
X69571552Y-50885254D01*
X69572053Y-51057971D01*
X69572645Y-51245165D01*
X69573320Y-51444649D01*
X69574071Y-51654241D01*
X69574891Y-51871755D01*
X69575771Y-52095006D01*
X69576705Y-52321810D01*
X69577684Y-52549982D01*
X69578702Y-52777337D01*
X69579061Y-52855123D01*
X69587512Y-54675297D01*
X69724927Y-54855373D01*
X69862343Y-55035450D01*
X69865809Y-62033150D01*
X69869274Y-69030850D01*
X69897113Y-69109350D01*
X69956798Y-69251795D01*
X70027984Y-69373130D01*
X70112484Y-69475724D01*
X70212108Y-69561944D01*
X70275450Y-69604122D01*
X70334159Y-69634469D01*
X70404418Y-69663025D01*
X70475890Y-69686109D01*
X70538241Y-69700039D01*
X70548500Y-69701380D01*
X70562884Y-69701573D01*
X70602192Y-69701761D01*
X70665947Y-69701947D01*
X70753670Y-69702128D01*
X70864887Y-69702305D01*
X70999120Y-69702478D01*
X71155892Y-69702647D01*
X71334727Y-69702812D01*
X71535147Y-69702973D01*
X71756676Y-69703129D01*
X71998837Y-69703280D01*
X72261154Y-69703426D01*
X72543149Y-69703568D01*
X72844346Y-69703705D01*
X73164267Y-69703837D01*
X73502437Y-69703964D01*
X73858378Y-69704085D01*
X74231614Y-69704201D01*
X74621667Y-69704312D01*
X75028061Y-69704416D01*
X75450320Y-69704516D01*
X75887966Y-69704609D01*
X76340522Y-69704697D01*
X76807513Y-69704778D01*
X77288460Y-69704854D01*
X77782887Y-69704923D01*
X78290318Y-69704986D01*
X78810276Y-69705042D01*
X79342283Y-69705092D01*
X79885864Y-69705135D01*
X80440541Y-69705171D01*
X81005837Y-69705200D01*
X81581276Y-69705223D01*
X82166380Y-69705238D01*
X82760674Y-69705246D01*
X83363680Y-69705247D01*
X83974922Y-69705240D01*
X84593922Y-69705226D01*
X85220205Y-69705204D01*
X85853292Y-69705174D01*
X86492708Y-69705137D01*
X86861650Y-69705112D01*
X103130350Y-69703950D01*
X103215375Y-69675080D01*
X103355051Y-69615060D01*
X103478431Y-69535715D01*
X103584787Y-69437791D01*
X103673388Y-69322032D01*
X103743508Y-69189185D01*
X103776585Y-69101027D01*
X103803450Y-69018150D01*
X103809800Y-62026517D01*
X103816150Y-55034885D01*
X103932886Y-54855262D01*
X104049623Y-54675639D01*
X104051926Y-52199923D01*
X104054229Y-49724206D01*
X103941539Y-49573128D01*
X103828850Y-49422050D01*
X103820982Y-48990250D01*
X103818779Y-48873285D01*
X103816719Y-48778550D01*
X103814567Y-48702875D01*
X103812089Y-48643092D01*
X103809049Y-48596032D01*
X103805213Y-48558527D01*
X103800345Y-48527409D01*
X103794211Y-48499509D01*
X103786577Y-48471659D01*
X103781215Y-48453777D01*
X103727093Y-48318745D01*
X103650652Y-48192713D01*
X103556289Y-48081813D01*
X103453604Y-47992761D01*
X103343748Y-47925204D01*
X103222785Y-47877301D01*
X103086776Y-47847214D01*
X103041450Y-47841274D01*
X103012314Y-47839474D01*
X102958330Y-47837795D01*
X102880047Y-47836242D01*
X102778016Y-47834817D01*
X102652787Y-47833524D01*
X102504911Y-47832366D01*
X102334939Y-47831346D01*
X102143420Y-47830468D01*
X101930906Y-47829734D01*
X101697947Y-47829148D01*
X101445093Y-47828713D01*
X101172895Y-47828432D01*
X100881904Y-47828309D01*
X100828801Y-47828304D01*
X98730452Y-47828199D01*
X98713155Y-47863125D01*
X98707026Y-47878700D01*
X98692747Y-47916907D01*
X98670777Y-47976483D01*
X98641575Y-48056162D01*
X98605600Y-48154681D01*
X98563311Y-48270775D01*
X98515166Y-48403180D01*
X98461626Y-48550632D01*
X98403149Y-48711866D01*
X98340195Y-48885619D01*
X98273221Y-49070626D01*
X98202688Y-49265623D01*
X98129054Y-49469345D01*
X98052778Y-49680529D01*
X97974320Y-49897910D01*
X97973054Y-49901420D01*
X97250250Y-51904790D01*
X76282358Y-51904900D01*
X75621101Y-49869725D01*
X74959845Y-47834550D01*
X72757347Y-47834550D01*
X72475176Y-47834517D01*
X72217237Y-47834452D01*
X71982366Y-47834399D01*
X71769393Y-47834404D01*
X71577153Y-47834513D01*
X71404479Y-47834773D01*
X71250205Y-47835227D01*
X71113162Y-47835924D01*
X70992185Y-47836908D01*
X70886107Y-47838225D01*
X70793761Y-47839922D01*
X70713980Y-47842043D01*
X70645597Y-47844635D01*
X70587446Y-47847744D01*
X70538359Y-47851416D01*
X70497171Y-47855696D01*
X70462713Y-47860630D01*
X70433820Y-47866264D01*
X70409325Y-47872644D01*
X70388060Y-47879815D01*
X70368860Y-47887825D01*
X70350556Y-47896717D01*
X70331983Y-47906539D01*
X70311974Y-47917336D01*
X70289361Y-47929154D01*
X70284278Y-47931717D01*
X70170215Y-48002504D01*
X70067067Y-48093812D01*
X69977800Y-48202039D01*
X69905377Y-48323584D01*
X69852763Y-48454845D01*
X69852159Y-48456806D01*
X69843708Y-48485431D01*
X69836859Y-48512554D01*
X69831381Y-48541328D01*
X69827046Y-48574908D01*
X69823623Y-48616447D01*
X69820882Y-48669099D01*
X69818593Y-48736016D01*
X69816527Y-48820354D01*
X69814453Y-48925264D01*
X69813273Y-48990250D01*
X69805550Y-49422050D01*
X69570600Y-49730736D01*
X69072507Y-49730736D01*
X69072104Y-49561750D01*
X69194352Y-49401148D01*
X69316599Y-49240546D01*
X69316696Y-48943948D01*
X69317461Y-48813381D01*
X69319918Y-48704068D01*
X69324453Y-48611898D01*
X69331448Y-48532757D01*
X69341288Y-48462534D01*
X69354356Y-48397116D01*
X69371038Y-48332391D01*
X69375126Y-48318193D01*
X69438059Y-48146070D01*
X69521574Y-47986380D01*
X69623861Y-47840658D01*
X69743111Y-47710439D01*
X69877514Y-47597259D01*
X70025258Y-47502654D01*
X70062361Y-47485300D01*
X75144188Y-47485300D01*
X75153193Y-47513875D01*
X75162563Y-47543222D01*
X75178948Y-47594093D01*
X75201853Y-47664969D01*
X75230787Y-47754334D01*
X75265254Y-47860673D01*
X75304763Y-47982469D01*
X75348820Y-48118206D01*
X75396931Y-48266367D01*
X75448602Y-48425436D01*
X75503342Y-48593896D01*
X75560656Y-48770233D01*
X75620051Y-48952928D01*
X75681033Y-49140466D01*
X75743110Y-49331331D01*
X75805787Y-49524006D01*
X75868572Y-49716975D01*
X75930971Y-49908722D01*
X75992491Y-50097730D01*
X76052638Y-50282483D01*
X76110920Y-50461465D01*
X76166842Y-50633159D01*
X76219912Y-50796050D01*
X76269636Y-50948620D01*
X76315520Y-51089354D01*
X76357072Y-51216735D01*
X76393797Y-51329247D01*
X76425204Y-51425374D01*
X76450797Y-51503599D01*
X76470085Y-51562406D01*
X76482573Y-51600278D01*
X76487768Y-51615700D01*
X76487880Y-51615975D01*
X76500766Y-51616447D01*
X76538454Y-51616914D01*
X76600345Y-51617375D01*
X76685842Y-51617829D01*
X76794347Y-51618275D01*
X76925261Y-51618713D01*
X77077987Y-51619143D01*
X77251925Y-51619564D01*
X77446479Y-51619975D01*
X77661050Y-51620376D01*
X77895040Y-51620766D01*
X78147851Y-51621144D01*
X78418885Y-51621511D01*
X78707543Y-51621865D01*
X79013227Y-51622207D01*
X79335341Y-51622535D01*
X79673284Y-51622848D01*
X80026459Y-51623147D01*
X80394269Y-51623431D01*
X80776115Y-51623699D01*
X81171398Y-51623951D01*
X81579522Y-51624186D01*
X81999887Y-51624404D01*
X82431895Y-51624603D01*
X82874949Y-51624784D01*
X83328450Y-51624946D01*
X83791801Y-51625089D01*
X84264403Y-51625211D01*
X84745658Y-51625312D01*
X85234967Y-51625392D01*
X85731734Y-51625451D01*
X86235359Y-51625487D01*
X86745245Y-51625499D01*
X86772257Y-51625500D01*
X97050915Y-51625500D01*
X97063188Y-51590575D01*
X97068773Y-51575013D01*
X97082537Y-51536824D01*
X97104024Y-51477268D01*
X97132777Y-51397605D01*
X97168343Y-51299096D01*
X97210266Y-51183001D01*
X97258090Y-51050581D01*
X97311361Y-50903096D01*
X97369623Y-50741806D01*
X97432421Y-50567972D01*
X97499300Y-50382854D01*
X97569803Y-50187713D01*
X97643477Y-49983808D01*
X97719866Y-49772402D01*
X97798515Y-49554753D01*
X97802870Y-49542700D01*
X97881536Y-49324977D01*
X97957899Y-49113562D01*
X98031510Y-48909703D01*
X98101918Y-48714650D01*
X98168672Y-48529653D01*
X98231324Y-48355963D01*
X98289421Y-48194828D01*
X98342514Y-48047498D01*
X98390152Y-47915224D01*
X98431885Y-47799256D01*
X98467263Y-47700842D01*
X98495834Y-47621234D01*
X98517149Y-47561680D01*
X98530758Y-47523431D01*
X98536209Y-47507736D01*
X98536271Y-47507525D01*
X98535850Y-47506279D01*
X98533582Y-47505080D01*
X98528986Y-47503928D01*
X98521581Y-47502821D01*
X98510886Y-47501759D01*
X98496420Y-47500741D01*
X98477702Y-47499765D01*
X98454252Y-47498831D01*
X98425588Y-47497938D01*
X98391230Y-47497085D01*
X98350696Y-47496272D01*
X98303506Y-47495496D01*
X98249179Y-47494758D01*
X98187234Y-47494056D01*
X98117190Y-47493390D01*
X98038565Y-47492758D01*
X97950880Y-47492160D01*
X97853653Y-47491594D01*
X97746403Y-47491060D01*
X97628650Y-47490558D01*
X97499912Y-47490085D01*
X97359709Y-47489641D01*
X97207559Y-47489225D01*
X97042982Y-47488837D01*
X96865497Y-47488475D01*
X96674622Y-47488138D01*
X96469878Y-47487826D01*
X96250783Y-47487537D01*
X96016855Y-47487271D01*
X95767615Y-47487027D01*
X95502582Y-47486803D01*
X95221273Y-47486600D01*
X94923210Y-47486415D01*
X94607909Y-47486249D01*
X94274892Y-47486099D01*
X93923676Y-47485966D01*
X93553781Y-47485849D01*
X93164725Y-47485745D01*
X92756029Y-47485656D01*
X92327211Y-47485579D01*
X91877790Y-47485513D01*
X91407285Y-47485459D01*
X90915216Y-47485414D01*
X90401101Y-47485378D01*
X89864459Y-47485350D01*
X89304810Y-47485329D01*
X88721672Y-47485315D01*
X88114566Y-47485306D01*
X87483009Y-47485301D01*
X86843225Y-47485300D01*
X75144188Y-47485300D01*
X70062361Y-47485300D01*
X70184534Y-47428158D01*
X70353532Y-47375308D01*
X70520423Y-47346655D01*
X70553775Y-47344494D01*
X70611084Y-47342521D01*
X70692479Y-47340735D01*
X70798085Y-47339134D01*
X70928031Y-47337717D01*
X71082445Y-47336485D01*
X71261452Y-47335436D01*
X71465181Y-47334569D01*
X71693760Y-47333884D01*
X71947315Y-47333379D01*
X72225974Y-47333054D01*
X72529865Y-47332908D01*
X72631798Y-47332900D01*
X74612500Y-47332900D01*
X74612500Y-46990000D01*
X99047300Y-46990000D01*
X99047300Y-47332900D01*
G36*
X80635266Y-48402622D02*
X80659827Y-48406217D01*
X80669734Y-48412594D01*
X80670400Y-48415639D01*
X80666759Y-48430966D01*
X80656466Y-48467458D01*
X80640464Y-48522042D01*
X80619699Y-48591644D01*
X80595114Y-48673193D01*
X80567652Y-48763615D01*
X80538259Y-48859837D01*
X80507877Y-48958788D01*
X80477452Y-49057393D01*
X80447927Y-49152580D01*
X80420247Y-49241276D01*
X80395355Y-49320408D01*
X80374195Y-49386904D01*
X80357712Y-49437691D01*
X80346849Y-49469695D01*
X80345103Y-49474452D01*
X80330476Y-49507284D01*
X80313040Y-49524142D01*
X80283261Y-49532432D01*
X80267452Y-49534777D01*
X80215491Y-49539470D01*
X80157526Y-49541049D01*
X80103277Y-49539563D01*
X80062463Y-49535060D01*
X80056429Y-49533715D01*
X80048823Y-49531030D01*
X80043354Y-49526023D01*
X80040551Y-49516693D01*
X80040941Y-49501037D01*
X80045052Y-49477053D01*
X80053412Y-49442740D01*
X80066548Y-49396097D01*
X80084989Y-49335120D01*
X80109262Y-49257808D01*
X80139895Y-49162160D01*
X80177416Y-49046173D01*
X80217537Y-48922657D01*
X80385480Y-48406050D01*
X80527940Y-48402459D01*
X80592490Y-48401479D01*
X80635266Y-48402622D01*
X80635266Y-48402622D01*
G37*
X80635266Y-48402622D02*
X80659827Y-48406217D01*
X80669734Y-48412594D01*
X80670400Y-48415639D01*
X80666759Y-48430966D01*
X80656466Y-48467458D01*
X80640464Y-48522042D01*
X80619699Y-48591644D01*
X80595114Y-48673193D01*
X80567652Y-48763615D01*
X80538259Y-48859837D01*
X80507877Y-48958788D01*
X80477452Y-49057393D01*
X80447927Y-49152580D01*
X80420247Y-49241276D01*
X80395355Y-49320408D01*
X80374195Y-49386904D01*
X80357712Y-49437691D01*
X80346849Y-49469695D01*
X80345103Y-49474452D01*
X80330476Y-49507284D01*
X80313040Y-49524142D01*
X80283261Y-49532432D01*
X80267452Y-49534777D01*
X80215491Y-49539470D01*
X80157526Y-49541049D01*
X80103277Y-49539563D01*
X80062463Y-49535060D01*
X80056429Y-49533715D01*
X80048823Y-49531030D01*
X80043354Y-49526023D01*
X80040551Y-49516693D01*
X80040941Y-49501037D01*
X80045052Y-49477053D01*
X80053412Y-49442740D01*
X80066548Y-49396097D01*
X80084989Y-49335120D01*
X80109262Y-49257808D01*
X80139895Y-49162160D01*
X80177416Y-49046173D01*
X80217537Y-48922657D01*
X80385480Y-48406050D01*
X80527940Y-48402459D01*
X80592490Y-48401479D01*
X80635266Y-48402622D01*
G36*
X81997550Y-48406050D02*
X81995230Y-48459165D01*
X81988563Y-48501685D01*
X81975062Y-48538926D01*
X81971763Y-48544558D01*
X81962741Y-48557095D01*
X81951983Y-48565965D01*
X81935214Y-48571906D01*
X81908158Y-48575655D01*
X81866541Y-48577952D01*
X81806090Y-48579533D01*
X81764532Y-48580342D01*
X81578450Y-48583850D01*
X81520425Y-48799750D01*
X81496771Y-48888383D01*
X81469487Y-48991625D01*
X81441199Y-49099470D01*
X81414539Y-49201909D01*
X81401132Y-49253833D01*
X81381343Y-49328984D01*
X81362726Y-49396397D01*
X81346501Y-49451907D01*
X81333887Y-49491353D01*
X81326104Y-49510571D01*
X81325807Y-49511004D01*
X81307581Y-49519720D01*
X81270739Y-49527491D01*
X81222063Y-49533728D01*
X81168333Y-49537841D01*
X81116332Y-49539240D01*
X81072840Y-49537338D01*
X81054575Y-49534576D01*
X81032278Y-49523983D01*
X81026002Y-49513241D01*
X81029299Y-49497826D01*
X81038662Y-49460911D01*
X81053296Y-49405451D01*
X81072408Y-49334402D01*
X81095206Y-49250721D01*
X81120894Y-49157362D01*
X81140821Y-49085500D01*
X81168661Y-48985166D01*
X81194716Y-48890783D01*
X81218093Y-48805621D01*
X81237900Y-48732948D01*
X81253245Y-48676034D01*
X81263235Y-48638148D01*
X81266469Y-48625125D01*
X81277300Y-48577500D01*
X81134372Y-48577500D01*
X81069643Y-48576767D01*
X81007893Y-48574790D01*
X80957377Y-48571898D01*
X80932707Y-48569449D01*
X80904291Y-48565580D01*
X80887271Y-48560106D01*
X80880341Y-48548021D01*
X80882193Y-48524316D01*
X80891522Y-48483986D01*
X80900799Y-48447189D01*
X80912752Y-48399428D01*
X81997550Y-48406050D01*
X81997550Y-48406050D01*
G37*
X81997550Y-48406050D02*
X81995230Y-48459165D01*
X81988563Y-48501685D01*
X81975062Y-48538926D01*
X81971763Y-48544558D01*
X81962741Y-48557095D01*
X81951983Y-48565965D01*
X81935214Y-48571906D01*
X81908158Y-48575655D01*
X81866541Y-48577952D01*
X81806090Y-48579533D01*
X81764532Y-48580342D01*
X81578450Y-48583850D01*
X81520425Y-48799750D01*
X81496771Y-48888383D01*
X81469487Y-48991625D01*
X81441199Y-49099470D01*
X81414539Y-49201909D01*
X81401132Y-49253833D01*
X81381343Y-49328984D01*
X81362726Y-49396397D01*
X81346501Y-49451907D01*
X81333887Y-49491353D01*
X81326104Y-49510571D01*
X81325807Y-49511004D01*
X81307581Y-49519720D01*
X81270739Y-49527491D01*
X81222063Y-49533728D01*
X81168333Y-49537841D01*
X81116332Y-49539240D01*
X81072840Y-49537338D01*
X81054575Y-49534576D01*
X81032278Y-49523983D01*
X81026002Y-49513241D01*
X81029299Y-49497826D01*
X81038662Y-49460911D01*
X81053296Y-49405451D01*
X81072408Y-49334402D01*
X81095206Y-49250721D01*
X81120894Y-49157362D01*
X81140821Y-49085500D01*
X81168661Y-48985166D01*
X81194716Y-48890783D01*
X81218093Y-48805621D01*
X81237900Y-48732948D01*
X81253245Y-48676034D01*
X81263235Y-48638148D01*
X81266469Y-48625125D01*
X81277300Y-48577500D01*
X81134372Y-48577500D01*
X81069643Y-48576767D01*
X81007893Y-48574790D01*
X80957377Y-48571898D01*
X80932707Y-48569449D01*
X80904291Y-48565580D01*
X80887271Y-48560106D01*
X80880341Y-48548021D01*
X80882193Y-48524316D01*
X80891522Y-48483986D01*
X80900799Y-48447189D01*
X80912752Y-48399428D01*
X81997550Y-48406050D01*
G36*
X83144164Y-48466375D02*
X83156581Y-48500921D01*
X83175268Y-48553840D01*
X83198245Y-48619482D01*
X83223531Y-48692196D01*
X83241189Y-48743245D01*
X83265574Y-48812984D01*
X83287897Y-48875105D01*
X83306558Y-48925292D01*
X83319960Y-48959231D01*
X83325862Y-48971845D01*
X83330693Y-48977790D01*
X83336599Y-48979715D01*
X83345167Y-48975702D01*
X83357986Y-48963831D01*
X83376646Y-48942184D01*
X83402736Y-48908840D01*
X83437844Y-48861882D01*
X83483560Y-48799390D01*
X83541472Y-48719445D01*
X83586653Y-48656875D01*
X83772256Y-48399700D01*
X84051881Y-48399700D01*
X84043055Y-48491775D01*
X84036467Y-48555020D01*
X84027533Y-48632703D01*
X84016700Y-48721598D01*
X84004413Y-48818478D01*
X83991119Y-48920117D01*
X83977263Y-49023289D01*
X83963291Y-49124767D01*
X83949649Y-49221324D01*
X83936782Y-49309735D01*
X83925137Y-49386773D01*
X83915160Y-49449211D01*
X83907295Y-49493823D01*
X83901990Y-49517384D01*
X83901001Y-49519805D01*
X83886783Y-49523945D01*
X83853947Y-49526995D01*
X83808549Y-49528944D01*
X83756641Y-49529777D01*
X83704278Y-49529480D01*
X83657513Y-49528040D01*
X83622400Y-49525444D01*
X83604993Y-49521677D01*
X83604114Y-49520475D01*
X83605665Y-49505195D01*
X83609937Y-49469279D01*
X83616369Y-49417277D01*
X83624403Y-49353742D01*
X83629416Y-49314637D01*
X83637486Y-49246171D01*
X83643066Y-49186780D01*
X83645842Y-49140991D01*
X83645497Y-49113329D01*
X83643863Y-49107483D01*
X83633989Y-49114258D01*
X83612785Y-49139542D01*
X83582454Y-49180349D01*
X83545201Y-49233693D01*
X83503231Y-49296590D01*
X83495720Y-49308118D01*
X83439299Y-49393096D01*
X83393096Y-49458578D01*
X83357722Y-49503749D01*
X83333790Y-49527795D01*
X83328032Y-49531147D01*
X83289712Y-49538981D01*
X83240277Y-49540848D01*
X83193368Y-49536476D01*
X83182354Y-49534047D01*
X83170532Y-49522839D01*
X83155195Y-49493418D01*
X83135573Y-49443944D01*
X83110900Y-49372576D01*
X83096761Y-49329145D01*
X83074589Y-49261088D01*
X83054315Y-49200825D01*
X83037498Y-49152843D01*
X83025698Y-49121627D01*
X83021397Y-49112359D01*
X83012065Y-49104253D01*
X83002626Y-49110630D01*
X82992318Y-49133662D01*
X82980379Y-49175519D01*
X82966048Y-49238372D01*
X82950590Y-49314100D01*
X82937692Y-49378643D01*
X82926066Y-49435498D01*
X82916818Y-49479354D01*
X82911054Y-49504901D01*
X82910295Y-49507775D01*
X82904854Y-49517285D01*
X82892158Y-49523655D01*
X82867892Y-49527490D01*
X82827738Y-49529398D01*
X82767380Y-49529987D01*
X82752344Y-49530000D01*
X82693689Y-49529290D01*
X82645599Y-49527356D01*
X82612996Y-49524493D01*
X82600802Y-49520994D01*
X82600800Y-49520943D01*
X82603256Y-49506555D01*
X82610203Y-49470401D01*
X82621008Y-49415594D01*
X82635038Y-49345244D01*
X82651660Y-49262464D01*
X82670240Y-49170366D01*
X82690146Y-49072062D01*
X82710745Y-48970663D01*
X82731403Y-48869283D01*
X82751488Y-48771031D01*
X82770366Y-48679022D01*
X82787405Y-48596365D01*
X82801971Y-48526174D01*
X82813432Y-48471561D01*
X82821154Y-48435636D01*
X82824363Y-48421925D01*
X82830132Y-48412206D01*
X82843364Y-48405778D01*
X82868493Y-48401985D01*
X82909953Y-48400177D01*
X82972179Y-48399700D01*
X83119675Y-48399700D01*
X83144164Y-48466375D01*
X83144164Y-48466375D01*
G37*
X83144164Y-48466375D02*
X83156581Y-48500921D01*
X83175268Y-48553840D01*
X83198245Y-48619482D01*
X83223531Y-48692196D01*
X83241189Y-48743245D01*
X83265574Y-48812984D01*
X83287897Y-48875105D01*
X83306558Y-48925292D01*
X83319960Y-48959231D01*
X83325862Y-48971845D01*
X83330693Y-48977790D01*
X83336599Y-48979715D01*
X83345167Y-48975702D01*
X83357986Y-48963831D01*
X83376646Y-48942184D01*
X83402736Y-48908840D01*
X83437844Y-48861882D01*
X83483560Y-48799390D01*
X83541472Y-48719445D01*
X83586653Y-48656875D01*
X83772256Y-48399700D01*
X84051881Y-48399700D01*
X84043055Y-48491775D01*
X84036467Y-48555020D01*
X84027533Y-48632703D01*
X84016700Y-48721598D01*
X84004413Y-48818478D01*
X83991119Y-48920117D01*
X83977263Y-49023289D01*
X83963291Y-49124767D01*
X83949649Y-49221324D01*
X83936782Y-49309735D01*
X83925137Y-49386773D01*
X83915160Y-49449211D01*
X83907295Y-49493823D01*
X83901990Y-49517384D01*
X83901001Y-49519805D01*
X83886783Y-49523945D01*
X83853947Y-49526995D01*
X83808549Y-49528944D01*
X83756641Y-49529777D01*
X83704278Y-49529480D01*
X83657513Y-49528040D01*
X83622400Y-49525444D01*
X83604993Y-49521677D01*
X83604114Y-49520475D01*
X83605665Y-49505195D01*
X83609937Y-49469279D01*
X83616369Y-49417277D01*
X83624403Y-49353742D01*
X83629416Y-49314637D01*
X83637486Y-49246171D01*
X83643066Y-49186780D01*
X83645842Y-49140991D01*
X83645497Y-49113329D01*
X83643863Y-49107483D01*
X83633989Y-49114258D01*
X83612785Y-49139542D01*
X83582454Y-49180349D01*
X83545201Y-49233693D01*
X83503231Y-49296590D01*
X83495720Y-49308118D01*
X83439299Y-49393096D01*
X83393096Y-49458578D01*
X83357722Y-49503749D01*
X83333790Y-49527795D01*
X83328032Y-49531147D01*
X83289712Y-49538981D01*
X83240277Y-49540848D01*
X83193368Y-49536476D01*
X83182354Y-49534047D01*
X83170532Y-49522839D01*
X83155195Y-49493418D01*
X83135573Y-49443944D01*
X83110900Y-49372576D01*
X83096761Y-49329145D01*
X83074589Y-49261088D01*
X83054315Y-49200825D01*
X83037498Y-49152843D01*
X83025698Y-49121627D01*
X83021397Y-49112359D01*
X83012065Y-49104253D01*
X83002626Y-49110630D01*
X82992318Y-49133662D01*
X82980379Y-49175519D01*
X82966048Y-49238372D01*
X82950590Y-49314100D01*
X82937692Y-49378643D01*
X82926066Y-49435498D01*
X82916818Y-49479354D01*
X82911054Y-49504901D01*
X82910295Y-49507775D01*
X82904854Y-49517285D01*
X82892158Y-49523655D01*
X82867892Y-49527490D01*
X82827738Y-49529398D01*
X82767380Y-49529987D01*
X82752344Y-49530000D01*
X82693689Y-49529290D01*
X82645599Y-49527356D01*
X82612996Y-49524493D01*
X82600802Y-49520994D01*
X82600800Y-49520943D01*
X82603256Y-49506555D01*
X82610203Y-49470401D01*
X82621008Y-49415594D01*
X82635038Y-49345244D01*
X82651660Y-49262464D01*
X82670240Y-49170366D01*
X82690146Y-49072062D01*
X82710745Y-48970663D01*
X82731403Y-48869283D01*
X82751488Y-48771031D01*
X82770366Y-48679022D01*
X82787405Y-48596365D01*
X82801971Y-48526174D01*
X82813432Y-48471561D01*
X82821154Y-48435636D01*
X82824363Y-48421925D01*
X82830132Y-48412206D01*
X82843364Y-48405778D01*
X82868493Y-48401985D01*
X82909953Y-48400177D01*
X82972179Y-48399700D01*
X83119675Y-48399700D01*
X83144164Y-48466375D01*
G36*
X85247794Y-48564800D02*
X85285495Y-48621470D01*
X85318772Y-48669733D01*
X85345023Y-48705949D01*
X85361644Y-48726481D01*
X85365797Y-48729771D01*
X85376719Y-48720345D01*
X85400637Y-48694336D01*
X85434702Y-48655015D01*
X85476066Y-48605651D01*
X85509100Y-48565316D01*
X85642450Y-48400990D01*
X85772625Y-48400345D01*
X85826881Y-48401144D01*
X85869983Y-48403818D01*
X85896681Y-48407920D01*
X85902800Y-48411462D01*
X85895345Y-48425245D01*
X85874903Y-48454876D01*
X85844354Y-48496373D01*
X85806578Y-48545750D01*
X85794908Y-48560687D01*
X85744117Y-48625568D01*
X85688365Y-48697057D01*
X85634841Y-48765924D01*
X85595399Y-48816888D01*
X85503781Y-48935626D01*
X85544644Y-49013738D01*
X85564718Y-49049712D01*
X85595542Y-49101967D01*
X85634061Y-49165462D01*
X85677218Y-49235158D01*
X85718753Y-49300985D01*
X85759860Y-49365991D01*
X85795821Y-49423789D01*
X85824543Y-49470940D01*
X85843936Y-49504007D01*
X85851909Y-49519552D01*
X85852000Y-49520060D01*
X85840122Y-49523912D01*
X85807776Y-49527069D01*
X85759888Y-49529206D01*
X85701388Y-49529999D01*
X85700869Y-49530000D01*
X85549739Y-49530000D01*
X85443367Y-49361725D01*
X85397457Y-49290839D01*
X85362206Y-49240564D01*
X85336244Y-49209138D01*
X85318202Y-49194800D01*
X85312575Y-49193450D01*
X85293545Y-49203793D01*
X85260927Y-49234294D01*
X85215495Y-49284160D01*
X85159962Y-49350220D01*
X85115044Y-49404408D01*
X85074591Y-49451823D01*
X85041792Y-49488835D01*
X85019834Y-49511815D01*
X85013259Y-49517318D01*
X84991881Y-49522974D01*
X84952792Y-49528373D01*
X84903342Y-49533022D01*
X84850884Y-49536428D01*
X84802768Y-49538097D01*
X84766345Y-49537534D01*
X84750185Y-49534985D01*
X84744971Y-49531506D01*
X84743350Y-49525544D01*
X84746787Y-49515031D01*
X84756745Y-49497901D01*
X84774691Y-49472088D01*
X84802090Y-49435526D01*
X84840407Y-49386149D01*
X84891107Y-49321889D01*
X84955655Y-49240682D01*
X84984893Y-49203977D01*
X85038508Y-49136462D01*
X85086443Y-49075658D01*
X85126547Y-49024330D01*
X85156670Y-48985242D01*
X85174661Y-48961158D01*
X85178900Y-48954616D01*
X85172515Y-48942613D01*
X85154589Y-48912071D01*
X85126958Y-48866040D01*
X85091464Y-48807571D01*
X85049943Y-48739714D01*
X85020150Y-48691295D01*
X84975512Y-48618218D01*
X84935727Y-48551761D01*
X84902654Y-48495137D01*
X84878151Y-48451560D01*
X84864076Y-48424244D01*
X84861400Y-48416781D01*
X84867103Y-48408940D01*
X84886580Y-48403778D01*
X84923377Y-48400858D01*
X84981041Y-48399746D01*
X85000572Y-48399700D01*
X85139745Y-48399700D01*
X85247794Y-48564800D01*
X85247794Y-48564800D01*
G37*
X85247794Y-48564800D02*
X85285495Y-48621470D01*
X85318772Y-48669733D01*
X85345023Y-48705949D01*
X85361644Y-48726481D01*
X85365797Y-48729771D01*
X85376719Y-48720345D01*
X85400637Y-48694336D01*
X85434702Y-48655015D01*
X85476066Y-48605651D01*
X85509100Y-48565316D01*
X85642450Y-48400990D01*
X85772625Y-48400345D01*
X85826881Y-48401144D01*
X85869983Y-48403818D01*
X85896681Y-48407920D01*
X85902800Y-48411462D01*
X85895345Y-48425245D01*
X85874903Y-48454876D01*
X85844354Y-48496373D01*
X85806578Y-48545750D01*
X85794908Y-48560687D01*
X85744117Y-48625568D01*
X85688365Y-48697057D01*
X85634841Y-48765924D01*
X85595399Y-48816888D01*
X85503781Y-48935626D01*
X85544644Y-49013738D01*
X85564718Y-49049712D01*
X85595542Y-49101967D01*
X85634061Y-49165462D01*
X85677218Y-49235158D01*
X85718753Y-49300985D01*
X85759860Y-49365991D01*
X85795821Y-49423789D01*
X85824543Y-49470940D01*
X85843936Y-49504007D01*
X85851909Y-49519552D01*
X85852000Y-49520060D01*
X85840122Y-49523912D01*
X85807776Y-49527069D01*
X85759888Y-49529206D01*
X85701388Y-49529999D01*
X85700869Y-49530000D01*
X85549739Y-49530000D01*
X85443367Y-49361725D01*
X85397457Y-49290839D01*
X85362206Y-49240564D01*
X85336244Y-49209138D01*
X85318202Y-49194800D01*
X85312575Y-49193450D01*
X85293545Y-49203793D01*
X85260927Y-49234294D01*
X85215495Y-49284160D01*
X85159962Y-49350220D01*
X85115044Y-49404408D01*
X85074591Y-49451823D01*
X85041792Y-49488835D01*
X85019834Y-49511815D01*
X85013259Y-49517318D01*
X84991881Y-49522974D01*
X84952792Y-49528373D01*
X84903342Y-49533022D01*
X84850884Y-49536428D01*
X84802768Y-49538097D01*
X84766345Y-49537534D01*
X84750185Y-49534985D01*
X84744971Y-49531506D01*
X84743350Y-49525544D01*
X84746787Y-49515031D01*
X84756745Y-49497901D01*
X84774691Y-49472088D01*
X84802090Y-49435526D01*
X84840407Y-49386149D01*
X84891107Y-49321889D01*
X84955655Y-49240682D01*
X84984893Y-49203977D01*
X85038508Y-49136462D01*
X85086443Y-49075658D01*
X85126547Y-49024330D01*
X85156670Y-48985242D01*
X85174661Y-48961158D01*
X85178900Y-48954616D01*
X85172515Y-48942613D01*
X85154589Y-48912071D01*
X85126958Y-48866040D01*
X85091464Y-48807571D01*
X85049943Y-48739714D01*
X85020150Y-48691295D01*
X84975512Y-48618218D01*
X84935727Y-48551761D01*
X84902654Y-48495137D01*
X84878151Y-48451560D01*
X84864076Y-48424244D01*
X84861400Y-48416781D01*
X84867103Y-48408940D01*
X84886580Y-48403778D01*
X84923377Y-48400858D01*
X84981041Y-48399746D01*
X85000572Y-48399700D01*
X85139745Y-48399700D01*
X85247794Y-48564800D01*
G36*
X78796852Y-48428275D02*
X78788614Y-48452054D01*
X78772292Y-48495444D01*
X78749080Y-48555481D01*
X78720173Y-48629202D01*
X78686764Y-48713643D01*
X78650048Y-48805841D01*
X78611216Y-48902830D01*
X78571465Y-49001649D01*
X78531987Y-49099333D01*
X78493976Y-49192917D01*
X78458626Y-49279440D01*
X78427131Y-49355936D01*
X78400685Y-49419443D01*
X78380481Y-49466996D01*
X78367714Y-49495632D01*
X78364160Y-49502444D01*
X78344859Y-49530000D01*
X77780429Y-49530000D01*
X77639497Y-49529729D01*
X77516665Y-49528935D01*
X77413135Y-49527644D01*
X77330109Y-49525882D01*
X77268788Y-49523674D01*
X77230373Y-49521047D01*
X77216067Y-49518026D01*
X77216000Y-49517791D01*
X77221114Y-49503848D01*
X77235886Y-49468714D01*
X77259455Y-49414318D01*
X77290961Y-49342589D01*
X77303894Y-49313383D01*
X77622115Y-49313383D01*
X77630442Y-49331113D01*
X77653836Y-49340880D01*
X77694825Y-49344743D01*
X77755941Y-49344759D01*
X77839711Y-49342985D01*
X77847825Y-49342821D01*
X77922680Y-49341057D01*
X77990124Y-49338958D01*
X78045462Y-49336707D01*
X78083998Y-49334494D01*
X78099867Y-49332816D01*
X78117597Y-49321474D01*
X78138755Y-49292548D01*
X78165130Y-49243352D01*
X78179242Y-49213748D01*
X78205311Y-49158221D01*
X78223294Y-49116608D01*
X78230875Y-49086913D01*
X78225740Y-49067138D01*
X78205573Y-49055288D01*
X78168058Y-49049367D01*
X78110881Y-49047378D01*
X78031725Y-49047324D01*
X77986318Y-49047400D01*
X77898079Y-49047269D01*
X77831434Y-49048004D01*
X77782592Y-49051296D01*
X77747761Y-49058833D01*
X77723148Y-49072306D01*
X77704962Y-49093405D01*
X77689410Y-49123820D01*
X77672701Y-49165241D01*
X77662238Y-49191837D01*
X77640543Y-49245803D01*
X77626325Y-49285632D01*
X77622115Y-49313383D01*
X77303894Y-49313383D01*
X77329547Y-49255456D01*
X77374351Y-49154849D01*
X77424515Y-49042698D01*
X77479179Y-48920931D01*
X77514290Y-48842976D01*
X77831194Y-48842976D01*
X77846320Y-48847766D01*
X77881911Y-48851588D01*
X77933050Y-48854419D01*
X77994819Y-48856238D01*
X78062301Y-48857021D01*
X78130578Y-48856746D01*
X78194733Y-48855392D01*
X78249849Y-48852935D01*
X78291007Y-48849353D01*
X78312002Y-48845168D01*
X78330090Y-48832792D01*
X78348495Y-48807215D01*
X78369678Y-48764378D01*
X78389029Y-48718080D01*
X78408795Y-48667474D01*
X78424334Y-48625365D01*
X78433560Y-48597532D01*
X78435200Y-48590112D01*
X78422785Y-48585510D01*
X78386651Y-48581870D01*
X78328464Y-48579276D01*
X78249890Y-48577810D01*
X78183233Y-48577500D01*
X77931267Y-48577500D01*
X77876928Y-48703276D01*
X77855497Y-48755848D01*
X77839726Y-48800381D01*
X77831381Y-48831476D01*
X77831194Y-48842976D01*
X77514290Y-48842976D01*
X77537485Y-48791478D01*
X77598571Y-48656269D01*
X77661580Y-48517232D01*
X77667371Y-48504475D01*
X77714941Y-48399700D01*
X78805211Y-48399700D01*
X78796852Y-48428275D01*
X78796852Y-48428275D01*
G37*
X78796852Y-48428275D02*
X78788614Y-48452054D01*
X78772292Y-48495444D01*
X78749080Y-48555481D01*
X78720173Y-48629202D01*
X78686764Y-48713643D01*
X78650048Y-48805841D01*
X78611216Y-48902830D01*
X78571465Y-49001649D01*
X78531987Y-49099333D01*
X78493976Y-49192917D01*
X78458626Y-49279440D01*
X78427131Y-49355936D01*
X78400685Y-49419443D01*
X78380481Y-49466996D01*
X78367714Y-49495632D01*
X78364160Y-49502444D01*
X78344859Y-49530000D01*
X77780429Y-49530000D01*
X77639497Y-49529729D01*
X77516665Y-49528935D01*
X77413135Y-49527644D01*
X77330109Y-49525882D01*
X77268788Y-49523674D01*
X77230373Y-49521047D01*
X77216067Y-49518026D01*
X77216000Y-49517791D01*
X77221114Y-49503848D01*
X77235886Y-49468714D01*
X77259455Y-49414318D01*
X77290961Y-49342589D01*
X77303894Y-49313383D01*
X77622115Y-49313383D01*
X77630442Y-49331113D01*
X77653836Y-49340880D01*
X77694825Y-49344743D01*
X77755941Y-49344759D01*
X77839711Y-49342985D01*
X77847825Y-49342821D01*
X77922680Y-49341057D01*
X77990124Y-49338958D01*
X78045462Y-49336707D01*
X78083998Y-49334494D01*
X78099867Y-49332816D01*
X78117597Y-49321474D01*
X78138755Y-49292548D01*
X78165130Y-49243352D01*
X78179242Y-49213748D01*
X78205311Y-49158221D01*
X78223294Y-49116608D01*
X78230875Y-49086913D01*
X78225740Y-49067138D01*
X78205573Y-49055288D01*
X78168058Y-49049367D01*
X78110881Y-49047378D01*
X78031725Y-49047324D01*
X77986318Y-49047400D01*
X77898079Y-49047269D01*
X77831434Y-49048004D01*
X77782592Y-49051296D01*
X77747761Y-49058833D01*
X77723148Y-49072306D01*
X77704962Y-49093405D01*
X77689410Y-49123820D01*
X77672701Y-49165241D01*
X77662238Y-49191837D01*
X77640543Y-49245803D01*
X77626325Y-49285632D01*
X77622115Y-49313383D01*
X77303894Y-49313383D01*
X77329547Y-49255456D01*
X77374351Y-49154849D01*
X77424515Y-49042698D01*
X77479179Y-48920931D01*
X77514290Y-48842976D01*
X77831194Y-48842976D01*
X77846320Y-48847766D01*
X77881911Y-48851588D01*
X77933050Y-48854419D01*
X77994819Y-48856238D01*
X78062301Y-48857021D01*
X78130578Y-48856746D01*
X78194733Y-48855392D01*
X78249849Y-48852935D01*
X78291007Y-48849353D01*
X78312002Y-48845168D01*
X78330090Y-48832792D01*
X78348495Y-48807215D01*
X78369678Y-48764378D01*
X78389029Y-48718080D01*
X78408795Y-48667474D01*
X78424334Y-48625365D01*
X78433560Y-48597532D01*
X78435200Y-48590112D01*
X78422785Y-48585510D01*
X78386651Y-48581870D01*
X78328464Y-48579276D01*
X78249890Y-48577810D01*
X78183233Y-48577500D01*
X77931267Y-48577500D01*
X77876928Y-48703276D01*
X77855497Y-48755848D01*
X77839726Y-48800381D01*
X77831381Y-48831476D01*
X77831194Y-48842976D01*
X77514290Y-48842976D01*
X77537485Y-48791478D01*
X77598571Y-48656269D01*
X77661580Y-48517232D01*
X77667371Y-48504475D01*
X77714941Y-48399700D01*
X78805211Y-48399700D01*
X78796852Y-48428275D01*
G36*
X79450920Y-48401288D02*
X79579510Y-48401992D01*
X79638547Y-48402398D01*
X80149744Y-48406050D01*
X80088013Y-48584951D01*
X80065434Y-48649554D01*
X80044933Y-48706678D01*
X80028287Y-48751480D01*
X80017274Y-48779121D01*
X80014741Y-48784477D01*
X80000303Y-48801411D01*
X79971232Y-48829598D01*
X79932588Y-48864244D01*
X79911082Y-48882640D01*
X79818966Y-48960179D01*
X79842926Y-48994264D01*
X79866136Y-49030628D01*
X79888076Y-49069832D01*
X79896628Y-49088978D01*
X79901129Y-49108481D01*
X79900798Y-49132021D01*
X79894849Y-49163279D01*
X79882501Y-49205935D01*
X79862969Y-49263671D01*
X79835472Y-49340165D01*
X79823690Y-49372409D01*
X79765984Y-49530000D01*
X78613638Y-49530000D01*
X78650252Y-49431575D01*
X78660711Y-49404031D01*
X78678960Y-49356589D01*
X78689867Y-49328371D01*
X79014021Y-49328371D01*
X79028651Y-49332353D01*
X79063828Y-49335424D01*
X79114715Y-49337592D01*
X79176478Y-49338865D01*
X79244279Y-49339250D01*
X79313283Y-49338756D01*
X79378653Y-49337391D01*
X79435553Y-49335162D01*
X79479146Y-49332077D01*
X79504598Y-49328144D01*
X79506322Y-49327570D01*
X79530250Y-49307146D01*
X79554252Y-49267314D01*
X79575830Y-49213934D01*
X79592486Y-49152870D01*
X79599977Y-49107862D01*
X79607137Y-49047400D01*
X79377807Y-49047400D01*
X79302861Y-49047822D01*
X79235844Y-49048993D01*
X79181250Y-49050773D01*
X79143571Y-49053018D01*
X79127918Y-49055289D01*
X79108242Y-49071441D01*
X79088372Y-49099948D01*
X79087196Y-49102170D01*
X79070382Y-49139072D01*
X79052607Y-49184980D01*
X79035978Y-49233380D01*
X79022603Y-49277760D01*
X79014588Y-49311605D01*
X79014021Y-49328371D01*
X78689867Y-49328371D01*
X78703719Y-49292538D01*
X78733705Y-49215166D01*
X78767638Y-49127765D01*
X78804236Y-49033622D01*
X78842220Y-48936029D01*
X78877139Y-48846401D01*
X79192210Y-48846401D01*
X79206377Y-48849726D01*
X79241836Y-48852618D01*
X79294481Y-48854897D01*
X79360205Y-48856383D01*
X79432899Y-48856900D01*
X79516494Y-48856680D01*
X79578434Y-48855795D01*
X79622460Y-48853905D01*
X79652314Y-48850671D01*
X79671739Y-48845753D01*
X79684477Y-48838811D01*
X79690471Y-48833528D01*
X79706830Y-48809488D01*
X79725908Y-48770343D01*
X79745132Y-48723125D01*
X79761929Y-48674870D01*
X79773726Y-48632610D01*
X79777951Y-48603379D01*
X79776982Y-48597007D01*
X79771154Y-48590183D01*
X79757480Y-48585122D01*
X79732712Y-48581574D01*
X79693602Y-48579293D01*
X79636902Y-48578030D01*
X79559364Y-48577537D01*
X79521448Y-48577500D01*
X79445206Y-48577660D01*
X79378456Y-48578108D01*
X79325045Y-48578792D01*
X79288820Y-48579660D01*
X79273629Y-48580662D01*
X79273400Y-48580805D01*
X79269491Y-48593389D01*
X79258926Y-48624819D01*
X79243442Y-48669969D01*
X79229560Y-48710006D01*
X79212037Y-48762947D01*
X79199145Y-48807039D01*
X79192384Y-48836810D01*
X79192210Y-48846401D01*
X78877139Y-48846401D01*
X78880306Y-48838274D01*
X78917215Y-48743647D01*
X78951665Y-48655437D01*
X78982375Y-48576935D01*
X79008063Y-48511429D01*
X79027450Y-48462209D01*
X79039253Y-48432565D01*
X79040859Y-48428620D01*
X79045906Y-48421453D01*
X79056045Y-48415540D01*
X79073434Y-48410785D01*
X79100232Y-48407095D01*
X79138597Y-48404374D01*
X79190690Y-48402527D01*
X79258669Y-48401460D01*
X79344693Y-48401079D01*
X79450920Y-48401288D01*
X79450920Y-48401288D01*
G37*
X79450920Y-48401288D02*
X79579510Y-48401992D01*
X79638547Y-48402398D01*
X80149744Y-48406050D01*
X80088013Y-48584951D01*
X80065434Y-48649554D01*
X80044933Y-48706678D01*
X80028287Y-48751480D01*
X80017274Y-48779121D01*
X80014741Y-48784477D01*
X80000303Y-48801411D01*
X79971232Y-48829598D01*
X79932588Y-48864244D01*
X79911082Y-48882640D01*
X79818966Y-48960179D01*
X79842926Y-48994264D01*
X79866136Y-49030628D01*
X79888076Y-49069832D01*
X79896628Y-49088978D01*
X79901129Y-49108481D01*
X79900798Y-49132021D01*
X79894849Y-49163279D01*
X79882501Y-49205935D01*
X79862969Y-49263671D01*
X79835472Y-49340165D01*
X79823690Y-49372409D01*
X79765984Y-49530000D01*
X78613638Y-49530000D01*
X78650252Y-49431575D01*
X78660711Y-49404031D01*
X78678960Y-49356589D01*
X78689867Y-49328371D01*
X79014021Y-49328371D01*
X79028651Y-49332353D01*
X79063828Y-49335424D01*
X79114715Y-49337592D01*
X79176478Y-49338865D01*
X79244279Y-49339250D01*
X79313283Y-49338756D01*
X79378653Y-49337391D01*
X79435553Y-49335162D01*
X79479146Y-49332077D01*
X79504598Y-49328144D01*
X79506322Y-49327570D01*
X79530250Y-49307146D01*
X79554252Y-49267314D01*
X79575830Y-49213934D01*
X79592486Y-49152870D01*
X79599977Y-49107862D01*
X79607137Y-49047400D01*
X79377807Y-49047400D01*
X79302861Y-49047822D01*
X79235844Y-49048993D01*
X79181250Y-49050773D01*
X79143571Y-49053018D01*
X79127918Y-49055289D01*
X79108242Y-49071441D01*
X79088372Y-49099948D01*
X79087196Y-49102170D01*
X79070382Y-49139072D01*
X79052607Y-49184980D01*
X79035978Y-49233380D01*
X79022603Y-49277760D01*
X79014588Y-49311605D01*
X79014021Y-49328371D01*
X78689867Y-49328371D01*
X78703719Y-49292538D01*
X78733705Y-49215166D01*
X78767638Y-49127765D01*
X78804236Y-49033622D01*
X78842220Y-48936029D01*
X78877139Y-48846401D01*
X79192210Y-48846401D01*
X79206377Y-48849726D01*
X79241836Y-48852618D01*
X79294481Y-48854897D01*
X79360205Y-48856383D01*
X79432899Y-48856900D01*
X79516494Y-48856680D01*
X79578434Y-48855795D01*
X79622460Y-48853905D01*
X79652314Y-48850671D01*
X79671739Y-48845753D01*
X79684477Y-48838811D01*
X79690471Y-48833528D01*
X79706830Y-48809488D01*
X79725908Y-48770343D01*
X79745132Y-48723125D01*
X79761929Y-48674870D01*
X79773726Y-48632610D01*
X79777951Y-48603379D01*
X79776982Y-48597007D01*
X79771154Y-48590183D01*
X79757480Y-48585122D01*
X79732712Y-48581574D01*
X79693602Y-48579293D01*
X79636902Y-48578030D01*
X79559364Y-48577537D01*
X79521448Y-48577500D01*
X79445206Y-48577660D01*
X79378456Y-48578108D01*
X79325045Y-48578792D01*
X79288820Y-48579660D01*
X79273629Y-48580662D01*
X79273400Y-48580805D01*
X79269491Y-48593389D01*
X79258926Y-48624819D01*
X79243442Y-48669969D01*
X79229560Y-48710006D01*
X79212037Y-48762947D01*
X79199145Y-48807039D01*
X79192384Y-48836810D01*
X79192210Y-48846401D01*
X78877139Y-48846401D01*
X78880306Y-48838274D01*
X78917215Y-48743647D01*
X78951665Y-48655437D01*
X78982375Y-48576935D01*
X79008063Y-48511429D01*
X79027450Y-48462209D01*
X79039253Y-48432565D01*
X79040859Y-48428620D01*
X79045906Y-48421453D01*
X79056045Y-48415540D01*
X79073434Y-48410785D01*
X79100232Y-48407095D01*
X79138597Y-48404374D01*
X79190690Y-48402527D01*
X79258669Y-48401460D01*
X79344693Y-48401079D01*
X79450920Y-48401288D01*
G36*
X84449642Y-48397820D02*
X84505819Y-48399786D01*
X84551473Y-48401677D01*
X84581359Y-48403259D01*
X84590436Y-48404170D01*
X84589446Y-48416674D01*
X84585887Y-48451567D01*
X84580076Y-48506000D01*
X84572332Y-48577128D01*
X84562972Y-48662102D01*
X84552313Y-48758076D01*
X84540674Y-48862202D01*
X84528372Y-48971634D01*
X84515724Y-49083523D01*
X84503050Y-49195024D01*
X84490666Y-49303288D01*
X84478890Y-49405469D01*
X84473651Y-49450625D01*
X84464419Y-49530000D01*
X84313659Y-49530000D01*
X84249860Y-49529845D01*
X84207205Y-49528817D01*
X84181437Y-49526070D01*
X84168301Y-49520757D01*
X84163541Y-49512033D01*
X84162900Y-49500026D01*
X84164530Y-49478523D01*
X84169130Y-49435251D01*
X84176263Y-49373597D01*
X84185493Y-49296947D01*
X84196383Y-49208688D01*
X84208497Y-49112207D01*
X84221399Y-49010889D01*
X84234652Y-48908122D01*
X84247820Y-48807292D01*
X84260467Y-48711786D01*
X84272155Y-48624989D01*
X84282449Y-48550290D01*
X84290913Y-48491074D01*
X84297109Y-48450727D01*
X84300323Y-48433586D01*
X84310934Y-48393350D01*
X84449642Y-48397820D01*
X84449642Y-48397820D01*
G37*
X84449642Y-48397820D02*
X84505819Y-48399786D01*
X84551473Y-48401677D01*
X84581359Y-48403259D01*
X84590436Y-48404170D01*
X84589446Y-48416674D01*
X84585887Y-48451567D01*
X84580076Y-48506000D01*
X84572332Y-48577128D01*
X84562972Y-48662102D01*
X84552313Y-48758076D01*
X84540674Y-48862202D01*
X84528372Y-48971634D01*
X84515724Y-49083523D01*
X84503050Y-49195024D01*
X84490666Y-49303288D01*
X84478890Y-49405469D01*
X84473651Y-49450625D01*
X84464419Y-49530000D01*
X84313659Y-49530000D01*
X84249860Y-49529845D01*
X84207205Y-49528817D01*
X84181437Y-49526070D01*
X84168301Y-49520757D01*
X84163541Y-49512033D01*
X84162900Y-49500026D01*
X84164530Y-49478523D01*
X84169130Y-49435251D01*
X84176263Y-49373597D01*
X84185493Y-49296947D01*
X84196383Y-49208688D01*
X84208497Y-49112207D01*
X84221399Y-49010889D01*
X84234652Y-48908122D01*
X84247820Y-48807292D01*
X84260467Y-48711786D01*
X84272155Y-48624989D01*
X84282449Y-48550290D01*
X84290913Y-48491074D01*
X84297109Y-48450727D01*
X84300323Y-48433586D01*
X84310934Y-48393350D01*
X84449642Y-48397820D01*
G36*
X86849813Y-48399898D02*
X86967265Y-48400523D01*
X87062394Y-48401615D01*
X87136736Y-48403216D01*
X87191828Y-48405368D01*
X87229207Y-48408113D01*
X87250410Y-48411492D01*
X87256716Y-48414610D01*
X87261764Y-48435276D01*
X87264121Y-48470039D01*
X87263872Y-48509218D01*
X87261099Y-48543127D01*
X87255886Y-48562084D01*
X87255448Y-48562585D01*
X87240664Y-48565886D01*
X87205264Y-48569746D01*
X87154010Y-48573756D01*
X87091667Y-48577506D01*
X87067435Y-48578714D01*
X87002741Y-48581852D01*
X86947871Y-48584684D01*
X86907434Y-48586957D01*
X86886042Y-48588420D01*
X86883875Y-48588708D01*
X86882864Y-48601235D01*
X86881983Y-48635148D01*
X86881285Y-48686432D01*
X86880827Y-48751073D01*
X86880664Y-48821975D01*
X86880118Y-48918624D01*
X86878641Y-49029496D01*
X86876429Y-49143440D01*
X86873682Y-49249302D01*
X86872306Y-49291875D01*
X86863983Y-49530000D01*
X86560536Y-49530000D01*
X86569550Y-48583850D01*
X86369525Y-48580352D01*
X86169500Y-48576855D01*
X86169500Y-48399700D01*
X86708500Y-48399700D01*
X86849813Y-48399898D01*
X86849813Y-48399898D01*
G37*
X86849813Y-48399898D02*
X86967265Y-48400523D01*
X87062394Y-48401615D01*
X87136736Y-48403216D01*
X87191828Y-48405368D01*
X87229207Y-48408113D01*
X87250410Y-48411492D01*
X87256716Y-48414610D01*
X87261764Y-48435276D01*
X87264121Y-48470039D01*
X87263872Y-48509218D01*
X87261099Y-48543127D01*
X87255886Y-48562084D01*
X87255448Y-48562585D01*
X87240664Y-48565886D01*
X87205264Y-48569746D01*
X87154010Y-48573756D01*
X87091667Y-48577506D01*
X87067435Y-48578714D01*
X87002741Y-48581852D01*
X86947871Y-48584684D01*
X86907434Y-48586957D01*
X86886042Y-48588420D01*
X86883875Y-48588708D01*
X86882864Y-48601235D01*
X86881983Y-48635148D01*
X86881285Y-48686432D01*
X86880827Y-48751073D01*
X86880664Y-48821975D01*
X86880118Y-48918624D01*
X86878641Y-49029496D01*
X86876429Y-49143440D01*
X86873682Y-49249302D01*
X86872306Y-49291875D01*
X86863983Y-49530000D01*
X86560536Y-49530000D01*
X86569550Y-48583850D01*
X86369525Y-48580352D01*
X86169500Y-48576855D01*
X86169500Y-48399700D01*
X86708500Y-48399700D01*
X86849813Y-48399898D01*
G36*
X88600083Y-48461178D02*
X88604564Y-48499954D01*
X88610653Y-48559863D01*
X88617989Y-48636716D01*
X88626209Y-48726323D01*
X88634952Y-48824494D01*
X88643856Y-48927040D01*
X88652560Y-49029770D01*
X88660701Y-49128496D01*
X88667919Y-49219026D01*
X88673850Y-49297171D01*
X88678134Y-49358742D01*
X88679476Y-49380775D01*
X88687911Y-49530000D01*
X88393827Y-49530000D01*
X88386410Y-49463325D01*
X88382054Y-49422029D01*
X88376277Y-49364342D01*
X88369962Y-49299170D01*
X88365980Y-49256950D01*
X88358601Y-49182934D01*
X88351924Y-49130258D01*
X88345098Y-49094907D01*
X88337271Y-49072866D01*
X88327592Y-49060123D01*
X88323613Y-49057119D01*
X88306945Y-49054167D01*
X88269121Y-49051578D01*
X88214386Y-49049513D01*
X88146984Y-49048131D01*
X88071325Y-49047594D01*
X87833200Y-49047400D01*
X87833200Y-49530000D01*
X87544607Y-49530000D01*
X87536939Y-49450625D01*
X87533953Y-49411032D01*
X87530697Y-49352856D01*
X87527271Y-49279441D01*
X87523773Y-49194129D01*
X87520301Y-49100262D01*
X87516953Y-49001185D01*
X87513827Y-48900240D01*
X87511022Y-48800769D01*
X87508636Y-48706115D01*
X87506766Y-48619622D01*
X87506313Y-48592492D01*
X87801450Y-48592492D01*
X87809869Y-48702471D01*
X87813838Y-48755194D01*
X87817090Y-48799975D01*
X87819090Y-48829408D01*
X87819394Y-48834675D01*
X87821560Y-48842231D01*
X87829360Y-48847860D01*
X87846033Y-48851842D01*
X87874817Y-48854456D01*
X87918951Y-48855984D01*
X87981673Y-48856704D01*
X88066221Y-48856898D01*
X88076315Y-48856900D01*
X88332131Y-48856900D01*
X88323183Y-48726991D01*
X88317596Y-48665998D01*
X88310548Y-48619707D01*
X88302786Y-48592457D01*
X88299143Y-48587485D01*
X88281512Y-48584137D01*
X88243678Y-48581485D01*
X88190827Y-48579557D01*
X88128147Y-48578379D01*
X88060825Y-48577978D01*
X87994048Y-48578381D01*
X87933004Y-48579615D01*
X87882879Y-48581706D01*
X87848862Y-48584683D01*
X87845900Y-48585135D01*
X87801450Y-48592492D01*
X87506313Y-48592492D01*
X87505512Y-48544632D01*
X87504972Y-48484488D01*
X87505243Y-48442533D01*
X87506425Y-48422110D01*
X87506688Y-48421105D01*
X87510350Y-48415874D01*
X87518449Y-48411565D01*
X87533245Y-48408091D01*
X87556995Y-48405363D01*
X87591960Y-48403292D01*
X87640397Y-48401790D01*
X87704566Y-48400769D01*
X87786725Y-48400140D01*
X87889133Y-48399814D01*
X88014049Y-48399704D01*
X88053415Y-48399700D01*
X88591927Y-48399700D01*
X88600083Y-48461178D01*
X88600083Y-48461178D01*
G37*
X88600083Y-48461178D02*
X88604564Y-48499954D01*
X88610653Y-48559863D01*
X88617989Y-48636716D01*
X88626209Y-48726323D01*
X88634952Y-48824494D01*
X88643856Y-48927040D01*
X88652560Y-49029770D01*
X88660701Y-49128496D01*
X88667919Y-49219026D01*
X88673850Y-49297171D01*
X88678134Y-49358742D01*
X88679476Y-49380775D01*
X88687911Y-49530000D01*
X88393827Y-49530000D01*
X88386410Y-49463325D01*
X88382054Y-49422029D01*
X88376277Y-49364342D01*
X88369962Y-49299170D01*
X88365980Y-49256950D01*
X88358601Y-49182934D01*
X88351924Y-49130258D01*
X88345098Y-49094907D01*
X88337271Y-49072866D01*
X88327592Y-49060123D01*
X88323613Y-49057119D01*
X88306945Y-49054167D01*
X88269121Y-49051578D01*
X88214386Y-49049513D01*
X88146984Y-49048131D01*
X88071325Y-49047594D01*
X87833200Y-49047400D01*
X87833200Y-49530000D01*
X87544607Y-49530000D01*
X87536939Y-49450625D01*
X87533953Y-49411032D01*
X87530697Y-49352856D01*
X87527271Y-49279441D01*
X87523773Y-49194129D01*
X87520301Y-49100262D01*
X87516953Y-49001185D01*
X87513827Y-48900240D01*
X87511022Y-48800769D01*
X87508636Y-48706115D01*
X87506766Y-48619622D01*
X87506313Y-48592492D01*
X87801450Y-48592492D01*
X87809869Y-48702471D01*
X87813838Y-48755194D01*
X87817090Y-48799975D01*
X87819090Y-48829408D01*
X87819394Y-48834675D01*
X87821560Y-48842231D01*
X87829360Y-48847860D01*
X87846033Y-48851842D01*
X87874817Y-48854456D01*
X87918951Y-48855984D01*
X87981673Y-48856704D01*
X88066221Y-48856898D01*
X88076315Y-48856900D01*
X88332131Y-48856900D01*
X88323183Y-48726991D01*
X88317596Y-48665998D01*
X88310548Y-48619707D01*
X88302786Y-48592457D01*
X88299143Y-48587485D01*
X88281512Y-48584137D01*
X88243678Y-48581485D01*
X88190827Y-48579557D01*
X88128147Y-48578379D01*
X88060825Y-48577978D01*
X87994048Y-48578381D01*
X87933004Y-48579615D01*
X87882879Y-48581706D01*
X87848862Y-48584683D01*
X87845900Y-48585135D01*
X87801450Y-48592492D01*
X87506313Y-48592492D01*
X87505512Y-48544632D01*
X87504972Y-48484488D01*
X87505243Y-48442533D01*
X87506425Y-48422110D01*
X87506688Y-48421105D01*
X87510350Y-48415874D01*
X87518449Y-48411565D01*
X87533245Y-48408091D01*
X87556995Y-48405363D01*
X87591960Y-48403292D01*
X87640397Y-48401790D01*
X87704566Y-48400769D01*
X87786725Y-48400140D01*
X87889133Y-48399814D01*
X88014049Y-48399704D01*
X88053415Y-48399700D01*
X88591927Y-48399700D01*
X88600083Y-48461178D01*
G36*
X89497294Y-48399830D02*
X89604106Y-48400203D01*
X89700090Y-48400791D01*
X89782653Y-48401566D01*
X89849203Y-48402501D01*
X89897149Y-48403569D01*
X89923897Y-48404741D01*
X89928700Y-48405510D01*
X89930724Y-48419132D01*
X89936413Y-48454293D01*
X89945184Y-48507487D01*
X89956458Y-48575210D01*
X89969655Y-48653956D01*
X89979561Y-48712788D01*
X89997108Y-48819795D01*
X90009621Y-48903231D01*
X90017253Y-48964391D01*
X90020160Y-49004568D01*
X90018495Y-49025056D01*
X90017035Y-49027653D01*
X89999937Y-49031991D01*
X89958370Y-49035866D01*
X89893263Y-49039235D01*
X89805545Y-49042058D01*
X89696143Y-49044295D01*
X89610573Y-49045452D01*
X89217500Y-49049854D01*
X89217604Y-49115302D01*
X89219857Y-49173919D01*
X89226475Y-49257354D01*
X89237463Y-49365679D01*
X89249330Y-49469675D01*
X89256474Y-49530000D01*
X88953626Y-49530000D01*
X88946032Y-49488725D01*
X88943343Y-49468446D01*
X88938521Y-49426214D01*
X88931903Y-49365355D01*
X88923829Y-49289195D01*
X88914638Y-49201060D01*
X88904671Y-49104275D01*
X88894266Y-49002168D01*
X88883762Y-48898064D01*
X88873499Y-48795288D01*
X88863817Y-48697168D01*
X88855055Y-48607029D01*
X88852108Y-48576058D01*
X89145487Y-48576058D01*
X89150456Y-48618054D01*
X89158786Y-48683904D01*
X89167479Y-48744947D01*
X89175694Y-48795920D01*
X89182591Y-48831561D01*
X89186904Y-48846068D01*
X89201077Y-48849365D01*
X89236719Y-48852258D01*
X89289897Y-48854583D01*
X89356682Y-48856178D01*
X89433141Y-48856881D01*
X89448262Y-48856900D01*
X89702926Y-48856900D01*
X89695673Y-48815625D01*
X89690292Y-48779933D01*
X89684087Y-48731560D01*
X89680095Y-48696529D01*
X89673981Y-48652286D01*
X89666628Y-48617030D01*
X89661018Y-48601279D01*
X89651652Y-48594939D01*
X89630428Y-48589994D01*
X89594487Y-48586214D01*
X89540970Y-48583367D01*
X89467017Y-48581220D01*
X89397876Y-48579954D01*
X89145487Y-48576058D01*
X88852108Y-48576058D01*
X88847552Y-48528197D01*
X88843008Y-48479075D01*
X88835792Y-48399700D01*
X89382246Y-48399700D01*
X89497294Y-48399830D01*
X89497294Y-48399830D01*
G37*
X89497294Y-48399830D02*
X89604106Y-48400203D01*
X89700090Y-48400791D01*
X89782653Y-48401566D01*
X89849203Y-48402501D01*
X89897149Y-48403569D01*
X89923897Y-48404741D01*
X89928700Y-48405510D01*
X89930724Y-48419132D01*
X89936413Y-48454293D01*
X89945184Y-48507487D01*
X89956458Y-48575210D01*
X89969655Y-48653956D01*
X89979561Y-48712788D01*
X89997108Y-48819795D01*
X90009621Y-48903231D01*
X90017253Y-48964391D01*
X90020160Y-49004568D01*
X90018495Y-49025056D01*
X90017035Y-49027653D01*
X89999937Y-49031991D01*
X89958370Y-49035866D01*
X89893263Y-49039235D01*
X89805545Y-49042058D01*
X89696143Y-49044295D01*
X89610573Y-49045452D01*
X89217500Y-49049854D01*
X89217604Y-49115302D01*
X89219857Y-49173919D01*
X89226475Y-49257354D01*
X89237463Y-49365679D01*
X89249330Y-49469675D01*
X89256474Y-49530000D01*
X88953626Y-49530000D01*
X88946032Y-49488725D01*
X88943343Y-49468446D01*
X88938521Y-49426214D01*
X88931903Y-49365355D01*
X88923829Y-49289195D01*
X88914638Y-49201060D01*
X88904671Y-49104275D01*
X88894266Y-49002168D01*
X88883762Y-48898064D01*
X88873499Y-48795288D01*
X88863817Y-48697168D01*
X88855055Y-48607029D01*
X88852108Y-48576058D01*
X89145487Y-48576058D01*
X89150456Y-48618054D01*
X89158786Y-48683904D01*
X89167479Y-48744947D01*
X89175694Y-48795920D01*
X89182591Y-48831561D01*
X89186904Y-48846068D01*
X89201077Y-48849365D01*
X89236719Y-48852258D01*
X89289897Y-48854583D01*
X89356682Y-48856178D01*
X89433141Y-48856881D01*
X89448262Y-48856900D01*
X89702926Y-48856900D01*
X89695673Y-48815625D01*
X89690292Y-48779933D01*
X89684087Y-48731560D01*
X89680095Y-48696529D01*
X89673981Y-48652286D01*
X89666628Y-48617030D01*
X89661018Y-48601279D01*
X89651652Y-48594939D01*
X89630428Y-48589994D01*
X89594487Y-48586214D01*
X89540970Y-48583367D01*
X89467017Y-48581220D01*
X89397876Y-48579954D01*
X89145487Y-48576058D01*
X88852108Y-48576058D01*
X88847552Y-48528197D01*
X88843008Y-48479075D01*
X88835792Y-48399700D01*
X89382246Y-48399700D01*
X89497294Y-48399830D01*
G36*
X90850684Y-48399855D02*
X90963387Y-48400361D01*
X91054614Y-48401276D01*
X91126327Y-48402660D01*
X91180486Y-48404571D01*
X91219054Y-48407068D01*
X91243991Y-48410210D01*
X91257258Y-48414057D01*
X91259996Y-48416094D01*
X91270834Y-48437658D01*
X91281673Y-48471931D01*
X91290502Y-48510038D01*
X91295310Y-48543106D01*
X91294089Y-48562262D01*
X91293341Y-48563310D01*
X91279163Y-48565370D01*
X91242724Y-48567475D01*
X91187165Y-48569534D01*
X91115625Y-48571456D01*
X91031243Y-48573147D01*
X90937159Y-48574518D01*
X90892860Y-48575002D01*
X90782308Y-48576181D01*
X90694563Y-48577420D01*
X90627031Y-48578886D01*
X90577118Y-48580749D01*
X90542230Y-48583176D01*
X90519775Y-48586335D01*
X90507158Y-48590394D01*
X90501787Y-48595522D01*
X90500959Y-48600402D01*
X90503582Y-48622022D01*
X90509952Y-48661583D01*
X90518915Y-48712104D01*
X90523429Y-48736250D01*
X90545139Y-48850550D01*
X90938594Y-48858392D01*
X91036881Y-48860390D01*
X91127576Y-48862309D01*
X91207400Y-48864074D01*
X91273074Y-48865609D01*
X91321317Y-48866839D01*
X91348850Y-48867688D01*
X91353496Y-48867917D01*
X91365981Y-48874901D01*
X91375795Y-48895935D01*
X91383866Y-48934467D01*
X91391119Y-48993946D01*
X91393207Y-49015650D01*
X91393103Y-49022723D01*
X91389617Y-49028401D01*
X91380155Y-49032892D01*
X91362122Y-49036401D01*
X91332923Y-49039137D01*
X91289966Y-49041306D01*
X91230655Y-49043116D01*
X91152397Y-49044773D01*
X91052597Y-49046485D01*
X90995500Y-49047400D01*
X90595450Y-49053750D01*
X90598637Y-49110900D01*
X90603437Y-49154224D01*
X90612678Y-49208911D01*
X90622230Y-49253775D01*
X90642636Y-49339500D01*
X90974643Y-49339590D01*
X91069259Y-49339924D01*
X91160196Y-49340816D01*
X91242900Y-49342177D01*
X91312819Y-49343920D01*
X91365398Y-49345955D01*
X91391208Y-49347667D01*
X91475766Y-49355655D01*
X91488916Y-49407902D01*
X91499282Y-49450524D01*
X91508093Y-49489077D01*
X91509375Y-49495075D01*
X91516683Y-49530000D01*
X90362604Y-49530000D01*
X90349739Y-49469675D01*
X90341782Y-49429397D01*
X90330998Y-49370463D01*
X90317939Y-49296270D01*
X90303162Y-49210214D01*
X90287220Y-49115693D01*
X90270666Y-49016105D01*
X90254056Y-48914845D01*
X90237943Y-48815312D01*
X90222882Y-48720903D01*
X90209426Y-48635014D01*
X90198130Y-48561043D01*
X90189548Y-48502386D01*
X90184233Y-48462442D01*
X90182700Y-48445639D01*
X90182700Y-48399700D01*
X90714544Y-48399700D01*
X90850684Y-48399855D01*
X90850684Y-48399855D01*
G37*
X90850684Y-48399855D02*
X90963387Y-48400361D01*
X91054614Y-48401276D01*
X91126327Y-48402660D01*
X91180486Y-48404571D01*
X91219054Y-48407068D01*
X91243991Y-48410210D01*
X91257258Y-48414057D01*
X91259996Y-48416094D01*
X91270834Y-48437658D01*
X91281673Y-48471931D01*
X91290502Y-48510038D01*
X91295310Y-48543106D01*
X91294089Y-48562262D01*
X91293341Y-48563310D01*
X91279163Y-48565370D01*
X91242724Y-48567475D01*
X91187165Y-48569534D01*
X91115625Y-48571456D01*
X91031243Y-48573147D01*
X90937159Y-48574518D01*
X90892860Y-48575002D01*
X90782308Y-48576181D01*
X90694563Y-48577420D01*
X90627031Y-48578886D01*
X90577118Y-48580749D01*
X90542230Y-48583176D01*
X90519775Y-48586335D01*
X90507158Y-48590394D01*
X90501787Y-48595522D01*
X90500959Y-48600402D01*
X90503582Y-48622022D01*
X90509952Y-48661583D01*
X90518915Y-48712104D01*
X90523429Y-48736250D01*
X90545139Y-48850550D01*
X90938594Y-48858392D01*
X91036881Y-48860390D01*
X91127576Y-48862309D01*
X91207400Y-48864074D01*
X91273074Y-48865609D01*
X91321317Y-48866839D01*
X91348850Y-48867688D01*
X91353496Y-48867917D01*
X91365981Y-48874901D01*
X91375795Y-48895935D01*
X91383866Y-48934467D01*
X91391119Y-48993946D01*
X91393207Y-49015650D01*
X91393103Y-49022723D01*
X91389617Y-49028401D01*
X91380155Y-49032892D01*
X91362122Y-49036401D01*
X91332923Y-49039137D01*
X91289966Y-49041306D01*
X91230655Y-49043116D01*
X91152397Y-49044773D01*
X91052597Y-49046485D01*
X90995500Y-49047400D01*
X90595450Y-49053750D01*
X90598637Y-49110900D01*
X90603437Y-49154224D01*
X90612678Y-49208911D01*
X90622230Y-49253775D01*
X90642636Y-49339500D01*
X90974643Y-49339590D01*
X91069259Y-49339924D01*
X91160196Y-49340816D01*
X91242900Y-49342177D01*
X91312819Y-49343920D01*
X91365398Y-49345955D01*
X91391208Y-49347667D01*
X91475766Y-49355655D01*
X91488916Y-49407902D01*
X91499282Y-49450524D01*
X91508093Y-49489077D01*
X91509375Y-49495075D01*
X91516683Y-49530000D01*
X90362604Y-49530000D01*
X90349739Y-49469675D01*
X90341782Y-49429397D01*
X90330998Y-49370463D01*
X90317939Y-49296270D01*
X90303162Y-49210214D01*
X90287220Y-49115693D01*
X90270666Y-49016105D01*
X90254056Y-48914845D01*
X90237943Y-48815312D01*
X90222882Y-48720903D01*
X90209426Y-48635014D01*
X90198130Y-48561043D01*
X90189548Y-48502386D01*
X90184233Y-48462442D01*
X90182700Y-48445639D01*
X90182700Y-48399700D01*
X90714544Y-48399700D01*
X90850684Y-48399855D01*
G36*
X92527000Y-48536225D02*
X92644919Y-48642279D01*
X92745174Y-48732093D01*
X92828821Y-48806587D01*
X92896919Y-48866684D01*
X92950526Y-48913308D01*
X92990699Y-48947380D01*
X93018497Y-48969823D01*
X93034977Y-48981560D01*
X93040377Y-48983900D01*
X93047582Y-48973257D01*
X93044973Y-48948975D01*
X93039525Y-48928814D01*
X93028261Y-48888829D01*
X93012497Y-48833570D01*
X92993546Y-48767591D01*
X92972725Y-48695444D01*
X92951348Y-48621683D01*
X92930730Y-48550860D01*
X92912186Y-48487528D01*
X92897030Y-48436240D01*
X92892754Y-48421925D01*
X92891939Y-48412167D01*
X92899233Y-48405758D01*
X92918750Y-48402006D01*
X92954605Y-48400220D01*
X93010914Y-48399709D01*
X93025089Y-48399700D01*
X93097212Y-48401001D01*
X93145676Y-48405017D01*
X93172094Y-48411918D01*
X93176891Y-48415575D01*
X93185395Y-48433317D01*
X93199261Y-48470138D01*
X93216614Y-48520771D01*
X93235579Y-48579947D01*
X93236788Y-48583850D01*
X93250843Y-48629125D01*
X93270103Y-48690864D01*
X93293527Y-48765761D01*
X93320077Y-48850509D01*
X93348714Y-48941803D01*
X93378397Y-49036336D01*
X93408088Y-49130801D01*
X93436748Y-49221894D01*
X93463336Y-49306307D01*
X93486814Y-49380734D01*
X93506143Y-49441869D01*
X93520282Y-49486407D01*
X93528194Y-49511040D01*
X93529222Y-49514125D01*
X93525555Y-49521092D01*
X93506886Y-49525808D01*
X93470200Y-49528588D01*
X93412485Y-49529747D01*
X93379526Y-49529826D01*
X93224350Y-49529652D01*
X92882437Y-49212326D01*
X92804318Y-49140081D01*
X92731908Y-49073609D01*
X92667339Y-49014829D01*
X92612741Y-48965659D01*
X92570246Y-48928020D01*
X92541986Y-48903829D01*
X92530091Y-48895007D01*
X92530012Y-48895000D01*
X92524670Y-48896409D01*
X92521859Y-48902477D01*
X92522153Y-48915963D01*
X92526122Y-48939623D01*
X92534340Y-48976218D01*
X92547378Y-49028505D01*
X92565809Y-49099244D01*
X92590205Y-49191192D01*
X92595790Y-49212145D01*
X92617445Y-49294020D01*
X92636704Y-49368124D01*
X92652641Y-49430791D01*
X92664331Y-49478356D01*
X92670851Y-49507155D01*
X92671900Y-49513770D01*
X92660242Y-49521104D01*
X92629283Y-49526455D01*
X92585045Y-49529814D01*
X92533550Y-49531176D01*
X92480820Y-49530532D01*
X92432877Y-49527875D01*
X92395743Y-49523199D01*
X92375439Y-49516495D01*
X92373543Y-49514125D01*
X92366088Y-49489513D01*
X92353505Y-49444616D01*
X92336596Y-49382523D01*
X92316164Y-49306321D01*
X92293011Y-49219098D01*
X92267942Y-49123944D01*
X92241759Y-49023947D01*
X92215265Y-48922194D01*
X92189263Y-48821775D01*
X92164556Y-48725777D01*
X92141947Y-48637289D01*
X92122239Y-48559400D01*
X92106235Y-48495198D01*
X92094738Y-48447771D01*
X92088552Y-48420207D01*
X92087700Y-48414765D01*
X92096629Y-48407591D01*
X92124855Y-48402845D01*
X92174530Y-48400301D01*
X92231561Y-48399700D01*
X92375423Y-48399700D01*
X92527000Y-48536225D01*
X92527000Y-48536225D01*
G37*
X92527000Y-48536225D02*
X92644919Y-48642279D01*
X92745174Y-48732093D01*
X92828821Y-48806587D01*
X92896919Y-48866684D01*
X92950526Y-48913308D01*
X92990699Y-48947380D01*
X93018497Y-48969823D01*
X93034977Y-48981560D01*
X93040377Y-48983900D01*
X93047582Y-48973257D01*
X93044973Y-48948975D01*
X93039525Y-48928814D01*
X93028261Y-48888829D01*
X93012497Y-48833570D01*
X92993546Y-48767591D01*
X92972725Y-48695444D01*
X92951348Y-48621683D01*
X92930730Y-48550860D01*
X92912186Y-48487528D01*
X92897030Y-48436240D01*
X92892754Y-48421925D01*
X92891939Y-48412167D01*
X92899233Y-48405758D01*
X92918750Y-48402006D01*
X92954605Y-48400220D01*
X93010914Y-48399709D01*
X93025089Y-48399700D01*
X93097212Y-48401001D01*
X93145676Y-48405017D01*
X93172094Y-48411918D01*
X93176891Y-48415575D01*
X93185395Y-48433317D01*
X93199261Y-48470138D01*
X93216614Y-48520771D01*
X93235579Y-48579947D01*
X93236788Y-48583850D01*
X93250843Y-48629125D01*
X93270103Y-48690864D01*
X93293527Y-48765761D01*
X93320077Y-48850509D01*
X93348714Y-48941803D01*
X93378397Y-49036336D01*
X93408088Y-49130801D01*
X93436748Y-49221894D01*
X93463336Y-49306307D01*
X93486814Y-49380734D01*
X93506143Y-49441869D01*
X93520282Y-49486407D01*
X93528194Y-49511040D01*
X93529222Y-49514125D01*
X93525555Y-49521092D01*
X93506886Y-49525808D01*
X93470200Y-49528588D01*
X93412485Y-49529747D01*
X93379526Y-49529826D01*
X93224350Y-49529652D01*
X92882437Y-49212326D01*
X92804318Y-49140081D01*
X92731908Y-49073609D01*
X92667339Y-49014829D01*
X92612741Y-48965659D01*
X92570246Y-48928020D01*
X92541986Y-48903829D01*
X92530091Y-48895007D01*
X92530012Y-48895000D01*
X92524670Y-48896409D01*
X92521859Y-48902477D01*
X92522153Y-48915963D01*
X92526122Y-48939623D01*
X92534340Y-48976218D01*
X92547378Y-49028505D01*
X92565809Y-49099244D01*
X92590205Y-49191192D01*
X92595790Y-49212145D01*
X92617445Y-49294020D01*
X92636704Y-49368124D01*
X92652641Y-49430791D01*
X92664331Y-49478356D01*
X92670851Y-49507155D01*
X92671900Y-49513770D01*
X92660242Y-49521104D01*
X92629283Y-49526455D01*
X92585045Y-49529814D01*
X92533550Y-49531176D01*
X92480820Y-49530532D01*
X92432877Y-49527875D01*
X92395743Y-49523199D01*
X92375439Y-49516495D01*
X92373543Y-49514125D01*
X92366088Y-49489513D01*
X92353505Y-49444616D01*
X92336596Y-49382523D01*
X92316164Y-49306321D01*
X92293011Y-49219098D01*
X92267942Y-49123944D01*
X92241759Y-49023947D01*
X92215265Y-48922194D01*
X92189263Y-48821775D01*
X92164556Y-48725777D01*
X92141947Y-48637289D01*
X92122239Y-48559400D01*
X92106235Y-48495198D01*
X92094738Y-48447771D01*
X92088552Y-48420207D01*
X92087700Y-48414765D01*
X92096629Y-48407591D01*
X92124855Y-48402845D01*
X92174530Y-48400301D01*
X92231561Y-48399700D01*
X92375423Y-48399700D01*
X92527000Y-48536225D01*
G36*
X93684853Y-48394894D02*
X93787785Y-48395512D01*
X93913282Y-48396654D01*
X93964125Y-48397181D01*
X94111318Y-48398994D01*
X94234087Y-48401064D01*
X94333407Y-48403427D01*
X94410251Y-48406117D01*
X94465594Y-48409171D01*
X94500412Y-48412623D01*
X94515677Y-48416509D01*
X94516387Y-48417198D01*
X94528711Y-48442363D01*
X94541516Y-48477843D01*
X94552369Y-48515222D01*
X94558837Y-48546088D01*
X94558486Y-48562028D01*
X94558328Y-48562205D01*
X94543974Y-48564469D01*
X94507393Y-48566824D01*
X94451758Y-48569164D01*
X94380241Y-48571380D01*
X94296015Y-48573366D01*
X94202251Y-48575015D01*
X94163334Y-48575549D01*
X94047381Y-48577271D01*
X93954898Y-48579260D01*
X93883955Y-48581620D01*
X93832624Y-48584449D01*
X93798973Y-48587850D01*
X93781075Y-48591924D01*
X93776800Y-48595830D01*
X93781597Y-48617771D01*
X93794203Y-48655010D01*
X93811936Y-48701120D01*
X93832113Y-48749669D01*
X93852055Y-48794229D01*
X93869078Y-48828370D01*
X93880502Y-48845664D01*
X93881231Y-48846218D01*
X93897541Y-48848768D01*
X93936035Y-48851100D01*
X93993497Y-48853133D01*
X94066711Y-48854785D01*
X94152461Y-48855973D01*
X94247532Y-48856615D01*
X94292883Y-48856705D01*
X94688316Y-48856900D01*
X94720165Y-48942625D01*
X94734955Y-48985342D01*
X94744252Y-49018031D01*
X94746244Y-49034224D01*
X94745960Y-49034700D01*
X94732231Y-49036470D01*
X94696229Y-49038463D01*
X94641079Y-49040577D01*
X94569906Y-49042713D01*
X94485834Y-49044771D01*
X94391990Y-49046652D01*
X94348289Y-49047400D01*
X94250972Y-49049246D01*
X94161913Y-49051451D01*
X94084264Y-49053896D01*
X94021178Y-49056461D01*
X93975810Y-49059028D01*
X93951311Y-49061479D01*
X93947963Y-49062481D01*
X93948204Y-49077352D01*
X93955582Y-49110885D01*
X93968774Y-49157792D01*
X93982888Y-49202181D01*
X94026523Y-49333150D01*
X94393786Y-49340909D01*
X94491094Y-49342983D01*
X94582915Y-49344973D01*
X94665374Y-49346792D01*
X94734593Y-49348355D01*
X94786698Y-49349575D01*
X94817812Y-49350365D01*
X94820209Y-49350434D01*
X94879368Y-49352200D01*
X94905934Y-49430865D01*
X94919587Y-49472761D01*
X94929174Y-49504975D01*
X94932500Y-49519765D01*
X94920315Y-49521991D01*
X94885817Y-49523943D01*
X94832092Y-49525619D01*
X94762226Y-49527016D01*
X94679304Y-49528134D01*
X94586413Y-49528970D01*
X94486637Y-49529522D01*
X94383064Y-49529789D01*
X94278777Y-49529768D01*
X94176864Y-49529457D01*
X94080410Y-49528856D01*
X93992501Y-49527961D01*
X93916222Y-49526771D01*
X93854659Y-49525284D01*
X93810898Y-49523498D01*
X93788025Y-49521411D01*
X93785405Y-49520475D01*
X93779443Y-49505130D01*
X93766709Y-49468748D01*
X93748176Y-49414291D01*
X93724815Y-49344725D01*
X93697596Y-49263013D01*
X93667491Y-49172120D01*
X93635472Y-49075009D01*
X93602510Y-48974645D01*
X93569575Y-48873992D01*
X93537640Y-48776014D01*
X93507676Y-48683675D01*
X93480653Y-48599940D01*
X93457543Y-48527772D01*
X93439318Y-48470136D01*
X93426949Y-48429996D01*
X93421406Y-48410315D01*
X93421200Y-48409000D01*
X93424497Y-48404692D01*
X93435778Y-48401224D01*
X93457126Y-48398550D01*
X93490625Y-48396626D01*
X93538356Y-48395405D01*
X93602405Y-48394843D01*
X93684853Y-48394894D01*
X93684853Y-48394894D01*
G37*
X93684853Y-48394894D02*
X93787785Y-48395512D01*
X93913282Y-48396654D01*
X93964125Y-48397181D01*
X94111318Y-48398994D01*
X94234087Y-48401064D01*
X94333407Y-48403427D01*
X94410251Y-48406117D01*
X94465594Y-48409171D01*
X94500412Y-48412623D01*
X94515677Y-48416509D01*
X94516387Y-48417198D01*
X94528711Y-48442363D01*
X94541516Y-48477843D01*
X94552369Y-48515222D01*
X94558837Y-48546088D01*
X94558486Y-48562028D01*
X94558328Y-48562205D01*
X94543974Y-48564469D01*
X94507393Y-48566824D01*
X94451758Y-48569164D01*
X94380241Y-48571380D01*
X94296015Y-48573366D01*
X94202251Y-48575015D01*
X94163334Y-48575549D01*
X94047381Y-48577271D01*
X93954898Y-48579260D01*
X93883955Y-48581620D01*
X93832624Y-48584449D01*
X93798973Y-48587850D01*
X93781075Y-48591924D01*
X93776800Y-48595830D01*
X93781597Y-48617771D01*
X93794203Y-48655010D01*
X93811936Y-48701120D01*
X93832113Y-48749669D01*
X93852055Y-48794229D01*
X93869078Y-48828370D01*
X93880502Y-48845664D01*
X93881231Y-48846218D01*
X93897541Y-48848768D01*
X93936035Y-48851100D01*
X93993497Y-48853133D01*
X94066711Y-48854785D01*
X94152461Y-48855973D01*
X94247532Y-48856615D01*
X94292883Y-48856705D01*
X94688316Y-48856900D01*
X94720165Y-48942625D01*
X94734955Y-48985342D01*
X94744252Y-49018031D01*
X94746244Y-49034224D01*
X94745960Y-49034700D01*
X94732231Y-49036470D01*
X94696229Y-49038463D01*
X94641079Y-49040577D01*
X94569906Y-49042713D01*
X94485834Y-49044771D01*
X94391990Y-49046652D01*
X94348289Y-49047400D01*
X94250972Y-49049246D01*
X94161913Y-49051451D01*
X94084264Y-49053896D01*
X94021178Y-49056461D01*
X93975810Y-49059028D01*
X93951311Y-49061479D01*
X93947963Y-49062481D01*
X93948204Y-49077352D01*
X93955582Y-49110885D01*
X93968774Y-49157792D01*
X93982888Y-49202181D01*
X94026523Y-49333150D01*
X94393786Y-49340909D01*
X94491094Y-49342983D01*
X94582915Y-49344973D01*
X94665374Y-49346792D01*
X94734593Y-49348355D01*
X94786698Y-49349575D01*
X94817812Y-49350365D01*
X94820209Y-49350434D01*
X94879368Y-49352200D01*
X94905934Y-49430865D01*
X94919587Y-49472761D01*
X94929174Y-49504975D01*
X94932500Y-49519765D01*
X94920315Y-49521991D01*
X94885817Y-49523943D01*
X94832092Y-49525619D01*
X94762226Y-49527016D01*
X94679304Y-49528134D01*
X94586413Y-49528970D01*
X94486637Y-49529522D01*
X94383064Y-49529789D01*
X94278777Y-49529768D01*
X94176864Y-49529457D01*
X94080410Y-49528856D01*
X93992501Y-49527961D01*
X93916222Y-49526771D01*
X93854659Y-49525284D01*
X93810898Y-49523498D01*
X93788025Y-49521411D01*
X93785405Y-49520475D01*
X93779443Y-49505130D01*
X93766709Y-49468748D01*
X93748176Y-49414291D01*
X93724815Y-49344725D01*
X93697596Y-49263013D01*
X93667491Y-49172120D01*
X93635472Y-49075009D01*
X93602510Y-48974645D01*
X93569575Y-48873992D01*
X93537640Y-48776014D01*
X93507676Y-48683675D01*
X93480653Y-48599940D01*
X93457543Y-48527772D01*
X93439318Y-48470136D01*
X93426949Y-48429996D01*
X93421406Y-48410315D01*
X93421200Y-48409000D01*
X93424497Y-48404692D01*
X93435778Y-48401224D01*
X93457126Y-48398550D01*
X93490625Y-48396626D01*
X93538356Y-48395405D01*
X93602405Y-48394843D01*
X93684853Y-48394894D01*
G36*
X95865071Y-48447325D02*
X95877486Y-48473803D01*
X95898404Y-48519143D01*
X95926501Y-48580427D01*
X95960453Y-48654737D01*
X95998938Y-48739156D01*
X96040630Y-48830767D01*
X96084206Y-48926651D01*
X96128342Y-49023892D01*
X96171714Y-49119571D01*
X96212998Y-49210772D01*
X96250870Y-49294576D01*
X96284007Y-49368067D01*
X96311084Y-49428326D01*
X96330777Y-49472437D01*
X96341764Y-49497480D01*
X96343393Y-49501425D01*
X96354271Y-49530000D01*
X95202094Y-49530000D01*
X95181905Y-49487454D01*
X95173183Y-49467146D01*
X95156414Y-49426360D01*
X95132852Y-49368251D01*
X95103754Y-49295976D01*
X95070375Y-49212691D01*
X95033971Y-49121553D01*
X94995797Y-49025717D01*
X94957111Y-48928340D01*
X94919166Y-48832577D01*
X94883219Y-48741586D01*
X94850527Y-48658522D01*
X94831786Y-48610657D01*
X95138624Y-48610657D01*
X95144956Y-48642775D01*
X95153456Y-48670212D01*
X95165381Y-48701481D01*
X95185367Y-48751065D01*
X95211576Y-48814634D01*
X95242167Y-48887857D01*
X95275302Y-48966404D01*
X95309140Y-49045947D01*
X95341842Y-49122153D01*
X95371570Y-49190695D01*
X95396483Y-49247240D01*
X95414743Y-49287460D01*
X95422188Y-49302827D01*
X95441152Y-49339500D01*
X95672601Y-49339305D01*
X95747680Y-49338634D01*
X95814635Y-49336889D01*
X95869056Y-49334278D01*
X95906532Y-49331006D01*
X95922234Y-49327603D01*
X95929145Y-49321028D01*
X95932416Y-49310457D01*
X95931229Y-49293559D01*
X95924768Y-49268007D01*
X95912215Y-49231472D01*
X95892754Y-49181624D01*
X95865565Y-49116136D01*
X95829834Y-49032677D01*
X95784741Y-48928920D01*
X95772469Y-48900815D01*
X95633975Y-48583850D01*
X95392223Y-48583850D01*
X95316165Y-48584361D01*
X95248848Y-48585784D01*
X95194387Y-48587952D01*
X95156902Y-48590700D01*
X95140509Y-48593860D01*
X95140331Y-48594012D01*
X95138624Y-48610657D01*
X94831786Y-48610657D01*
X94822344Y-48586542D01*
X94799926Y-48528802D01*
X94786199Y-48492899D01*
X94772225Y-48452024D01*
X94764336Y-48421103D01*
X94764158Y-48407174D01*
X94778051Y-48405582D01*
X94814676Y-48404106D01*
X94871365Y-48402783D01*
X94945449Y-48401648D01*
X95034262Y-48400740D01*
X95135135Y-48400095D01*
X95245400Y-48399749D01*
X95306914Y-48399700D01*
X95842195Y-48399700D01*
X95865071Y-48447325D01*
X95865071Y-48447325D01*
G37*
X95865071Y-48447325D02*
X95877486Y-48473803D01*
X95898404Y-48519143D01*
X95926501Y-48580427D01*
X95960453Y-48654737D01*
X95998938Y-48739156D01*
X96040630Y-48830767D01*
X96084206Y-48926651D01*
X96128342Y-49023892D01*
X96171714Y-49119571D01*
X96212998Y-49210772D01*
X96250870Y-49294576D01*
X96284007Y-49368067D01*
X96311084Y-49428326D01*
X96330777Y-49472437D01*
X96341764Y-49497480D01*
X96343393Y-49501425D01*
X96354271Y-49530000D01*
X95202094Y-49530000D01*
X95181905Y-49487454D01*
X95173183Y-49467146D01*
X95156414Y-49426360D01*
X95132852Y-49368251D01*
X95103754Y-49295976D01*
X95070375Y-49212691D01*
X95033971Y-49121553D01*
X94995797Y-49025717D01*
X94957111Y-48928340D01*
X94919166Y-48832577D01*
X94883219Y-48741586D01*
X94850527Y-48658522D01*
X94831786Y-48610657D01*
X95138624Y-48610657D01*
X95144956Y-48642775D01*
X95153456Y-48670212D01*
X95165381Y-48701481D01*
X95185367Y-48751065D01*
X95211576Y-48814634D01*
X95242167Y-48887857D01*
X95275302Y-48966404D01*
X95309140Y-49045947D01*
X95341842Y-49122153D01*
X95371570Y-49190695D01*
X95396483Y-49247240D01*
X95414743Y-49287460D01*
X95422188Y-49302827D01*
X95441152Y-49339500D01*
X95672601Y-49339305D01*
X95747680Y-49338634D01*
X95814635Y-49336889D01*
X95869056Y-49334278D01*
X95906532Y-49331006D01*
X95922234Y-49327603D01*
X95929145Y-49321028D01*
X95932416Y-49310457D01*
X95931229Y-49293559D01*
X95924768Y-49268007D01*
X95912215Y-49231472D01*
X95892754Y-49181624D01*
X95865565Y-49116136D01*
X95829834Y-49032677D01*
X95784741Y-48928920D01*
X95772469Y-48900815D01*
X95633975Y-48583850D01*
X95392223Y-48583850D01*
X95316165Y-48584361D01*
X95248848Y-48585784D01*
X95194387Y-48587952D01*
X95156902Y-48590700D01*
X95140509Y-48593860D01*
X95140331Y-48594012D01*
X95138624Y-48610657D01*
X94831786Y-48610657D01*
X94822344Y-48586542D01*
X94799926Y-48528802D01*
X94786199Y-48492899D01*
X94772225Y-48452024D01*
X94764336Y-48421103D01*
X94764158Y-48407174D01*
X94778051Y-48405582D01*
X94814676Y-48404106D01*
X94871365Y-48402783D01*
X94945449Y-48401648D01*
X95034262Y-48400740D01*
X95135135Y-48400095D01*
X95245400Y-48399749D01*
X95306914Y-48399700D01*
X95842195Y-48399700D01*
X95865071Y-48447325D01*
D12*
X88265000Y-54483000D03*
X83185000Y-66929000D03*
X85725000Y-66929000D03*
X88265000Y-66929000D03*
X90805000Y-54483000D03*
X85725000Y-54483000D03*
X83185000Y-54483000D03*
X90805000Y-66929000D03*
D13*
X72390000Y-64770000D03*
X93980000Y-53975000D03*
X101727000Y-64897000D03*
X77470000Y-53975000D03*
D14*
X101600000Y-57277000D03*
X96520000Y-53975000D03*
X72390000Y-57150000D03*
X72390000Y-60960000D03*
X80010000Y-53975000D03*
D15*
X94971000Y-63420000D03*
X98171000Y-63420000D03*
X94971000Y-58420000D03*
X98171000Y-58420000D03*
X75819000Y-63420000D03*
X79019000Y-63420000D03*
X75819000Y-58420000D03*
X79019000Y-58420000D03*
D16*
X101600000Y-64897000D03*
X101600000Y-61087000D03*
X101600000Y-57277000D03*
X109220000Y-61087000D03*
X109220000Y-64897000D03*
X109220000Y-57277000D03*
X64770000Y-64770000D03*
X64770000Y-60960000D03*
X64770000Y-57150000D03*
X72390000Y-60960000D03*
X72390000Y-64770000D03*
X72390000Y-57150000D03*
D17*
X101219000Y-49403000D03*
X101219000Y-52197000D03*
D18*
X83185000Y-64970000D03*
X90805000Y-56950000D03*
X85725000Y-64970000D03*
X88265000Y-56950000D03*
X88265000Y-64970000D03*
X85725000Y-56950000D03*
X90805000Y-64970000D03*
X83185000Y-56950000D03*
D19*
X81095980Y-61961542D02*
X81462522Y-61595000D01*
X81462522Y-61595000D02*
X82697532Y-60359990D01*
X79919001Y-63068541D02*
X81392542Y-61595000D01*
X81392542Y-61595000D02*
X81462522Y-61595000D01*
X79919001Y-64540001D02*
X79919001Y-63068541D01*
X79816002Y-64643000D02*
X79919001Y-64540001D01*
X81026000Y-61961542D02*
X81095980Y-61961542D01*
X98171000Y-58720000D02*
X96531010Y-60359990D01*
X98171000Y-58420000D02*
X98171000Y-58720000D01*
X96531010Y-60359990D02*
X82697532Y-60359990D01*
X78232000Y-64643000D02*
X77851000Y-64262000D01*
X77851000Y-64262000D02*
X77851000Y-60788000D01*
X77851000Y-60788000D02*
X79019000Y-59620000D01*
X79019000Y-59620000D02*
X79019000Y-58420000D01*
X79816002Y-64643000D02*
X78232000Y-64643000D01*
X79019000Y-58420000D02*
X81915000Y-58420000D01*
X81915000Y-58420000D02*
X83185000Y-57150000D01*
X103378000Y-52197000D02*
X98933000Y-52197000D01*
X101819000Y-52197000D02*
X103378000Y-52197000D01*
X101219000Y-52197000D02*
X101819000Y-52197000D01*
X96520000Y-53975000D02*
X97519999Y-52975001D01*
X97646999Y-52975001D02*
X98171000Y-52451000D01*
X97519999Y-52975001D02*
X97646999Y-52975001D01*
X98171000Y-52451000D02*
X98171000Y-50546000D01*
X98171000Y-50546000D02*
X99314000Y-49403000D01*
X99314000Y-49403000D02*
X100619000Y-49403000D01*
X100619000Y-49403000D02*
X101219000Y-49403000D01*
X82957000Y-59182000D02*
X88773000Y-59182000D01*
X88773000Y-59182000D02*
X90805000Y-57150000D01*
X79019000Y-63420000D02*
X79019000Y-63120000D01*
X79019000Y-63120000D02*
X82957000Y-59182000D01*
X98171000Y-63420000D02*
X98171000Y-63120000D01*
X98171000Y-63120000D02*
X96012000Y-60961000D01*
X96012000Y-60961000D02*
X96012000Y-60960000D01*
X96012000Y-60960000D02*
X82946064Y-60960000D01*
X82946064Y-60960000D02*
X80519011Y-63387053D01*
X80519011Y-63387053D02*
X80519011Y-64788533D01*
X80519011Y-64788533D02*
X80064534Y-65243010D01*
X75819000Y-58420000D02*
X76454000Y-58420000D01*
X77216000Y-58917000D02*
X76719000Y-58420000D01*
X76719000Y-58420000D02*
X76454000Y-58420000D01*
X77216000Y-64475542D02*
X77216000Y-58917000D01*
X80156544Y-65151000D02*
X80064534Y-65243010D01*
X80064534Y-65243010D02*
X77983467Y-65243009D01*
X77983467Y-65243009D02*
X77216000Y-64475542D01*
X74295000Y-64516000D02*
X74295000Y-59038441D01*
X80313067Y-65843019D02*
X75622019Y-65843019D01*
X75622019Y-65843019D02*
X74295000Y-64516000D01*
X83194596Y-61560010D02*
X83194596Y-61585404D01*
X83194596Y-61585404D02*
X81119021Y-63660979D01*
X81119021Y-63660979D02*
X81119020Y-65037066D01*
X81119020Y-65037066D02*
X80313067Y-65843019D01*
X87595010Y-61560010D02*
X83194596Y-61560010D01*
X88265000Y-64770000D02*
X88265000Y-62230000D01*
X88265000Y-62230000D02*
X87595010Y-61560010D01*
X73405442Y-58149999D02*
X73389999Y-58149999D01*
X74295000Y-59038441D02*
X73406000Y-58149441D01*
X73406000Y-58149441D02*
X73405442Y-58149999D01*
X73389999Y-58149999D02*
X72390000Y-57150000D01*
D20*
G36*
X72217160Y-48139452D02*
X72475099Y-48139517D01*
X72475120Y-48139513D01*
X72475140Y-48139517D01*
X72757311Y-48139550D01*
X72757329Y-48139546D01*
X72757347Y-48139550D01*
X74619281Y-48139550D01*
X75509993Y-50514782D01*
X75992285Y-51999149D01*
X75998211Y-52009731D01*
X76000576Y-52021619D01*
X76027100Y-52061315D01*
X76050433Y-52102980D01*
X76059954Y-52110486D01*
X76066691Y-52120569D01*
X76106392Y-52147096D01*
X76143889Y-52176657D01*
X76155561Y-52179949D01*
X76165641Y-52186684D01*
X76212474Y-52195999D01*
X76258427Y-52208959D01*
X76270466Y-52207534D01*
X76282360Y-52209900D01*
X97250252Y-52209790D01*
X97257302Y-52208388D01*
X97264409Y-52209461D01*
X97315431Y-52196824D01*
X97366969Y-52186572D01*
X97372944Y-52182580D01*
X97379924Y-52180851D01*
X97422216Y-52149658D01*
X97465919Y-52120457D01*
X97469915Y-52114477D01*
X97475697Y-52110212D01*
X97502828Y-52065218D01*
X97532034Y-52021507D01*
X97533436Y-52014456D01*
X97537148Y-52008301D01*
X97671000Y-51637308D01*
X97671000Y-52243893D01*
X97420002Y-52494891D01*
X97328657Y-52513061D01*
X97166446Y-52621448D01*
X97014980Y-52772914D01*
X96779721Y-52675226D01*
X96262548Y-52674774D01*
X95784571Y-52872271D01*
X95588000Y-53068499D01*
X95588000Y-52854062D01*
X95495438Y-52630596D01*
X95324405Y-52459563D01*
X95100939Y-52367000D01*
X94286000Y-52367000D01*
X94134000Y-52519000D01*
X94134000Y-53821000D01*
X94154000Y-53821000D01*
X94154000Y-54129000D01*
X94134000Y-54129000D01*
X94134000Y-55431000D01*
X94286000Y-55583000D01*
X95100939Y-55583000D01*
X95324405Y-55490437D01*
X95495438Y-55319404D01*
X95588000Y-55095938D01*
X95588000Y-54881457D01*
X95782647Y-55076444D01*
X96260279Y-55274774D01*
X96777452Y-55275226D01*
X97255429Y-55077729D01*
X97621444Y-54712353D01*
X97819774Y-54234721D01*
X97820226Y-53717548D01*
X97722082Y-53480024D01*
X97746995Y-53455111D01*
X97838341Y-53436941D01*
X98000552Y-53328554D01*
X98524553Y-52804554D01*
X98632940Y-52642342D01*
X98639024Y-52611756D01*
X98671000Y-52451000D01*
X98671000Y-50753106D01*
X99320973Y-50103133D01*
X99326500Y-50104233D01*
X99326500Y-50313167D01*
X99349717Y-50429885D01*
X99415832Y-50528835D01*
X99514782Y-50594950D01*
X99631500Y-50618167D01*
X99693030Y-50618167D01*
X99686333Y-50651833D01*
X99686333Y-50948167D01*
X99709550Y-51064885D01*
X99758827Y-51138635D01*
X99736670Y-51177549D01*
X99709550Y-51218137D01*
X99707398Y-51228957D01*
X99701939Y-51238544D01*
X99695857Y-51286974D01*
X99686333Y-51334855D01*
X99686333Y-51341667D01*
X99673833Y-51341667D01*
X99557115Y-51364884D01*
X99458165Y-51430999D01*
X99392050Y-51529949D01*
X99368833Y-51646667D01*
X99368833Y-51659133D01*
X99355537Y-51659168D01*
X99297661Y-51670838D01*
X99239615Y-51682384D01*
X99239277Y-51682610D01*
X99238880Y-51682690D01*
X99189940Y-51715575D01*
X99140665Y-51748499D01*
X99140439Y-51748837D01*
X99140103Y-51749063D01*
X99107405Y-51798276D01*
X99074550Y-51847449D01*
X99074471Y-51847846D01*
X99074246Y-51848185D01*
X99062896Y-51906036D01*
X99051333Y-51964167D01*
X99051333Y-52937833D01*
X99074550Y-53054551D01*
X99140665Y-53153501D01*
X99239615Y-53219616D01*
X99356333Y-53242833D01*
X99652667Y-53242833D01*
X99769385Y-53219616D01*
X99822000Y-53184460D01*
X99874615Y-53219616D01*
X99991333Y-53242833D01*
X100025000Y-53242833D01*
X100025000Y-53276500D01*
X100048217Y-53393218D01*
X100114332Y-53492168D01*
X100213282Y-53558283D01*
X100330000Y-53581500D01*
X100965000Y-53581500D01*
X101081718Y-53558283D01*
X101145458Y-53515694D01*
X101152580Y-53523295D01*
X101181421Y-53536355D01*
X101207362Y-53554517D01*
X101235108Y-53560666D01*
X101260988Y-53572386D01*
X101292629Y-53573415D01*
X101323548Y-53580268D01*
X101611913Y-53586544D01*
X101611981Y-53586532D01*
X101612048Y-53586547D01*
X101640234Y-53587148D01*
X101640567Y-53587089D01*
X101640895Y-53587161D01*
X101745162Y-53589158D01*
X101745769Y-53589049D01*
X101746373Y-53589179D01*
X101833649Y-53590504D01*
X101834636Y-53590323D01*
X101835616Y-53590527D01*
X101897456Y-53591067D01*
X101900723Y-53590447D01*
X101903992Y-53591054D01*
X101931955Y-53590699D01*
X101949989Y-53586873D01*
X101968393Y-53588049D01*
X101968573Y-53588024D01*
X101995560Y-53578813D01*
X102023867Y-53575329D01*
X102035528Y-53568727D01*
X102048368Y-53566003D01*
X102063461Y-53555639D01*
X102081199Y-53549585D01*
X102102609Y-53530747D01*
X102127426Y-53516696D01*
X102135811Y-53505957D01*
X102146471Y-53498637D01*
X102156314Y-53483492D01*
X102170543Y-53470973D01*
X102183115Y-53445372D01*
X102200664Y-53422896D01*
X102211338Y-53401702D01*
X102220107Y-53370043D01*
X102223000Y-53364153D01*
X102223378Y-53358236D01*
X102224562Y-53353960D01*
X102240936Y-53307195D01*
X102248424Y-53254224D01*
X102247786Y-53242833D01*
X102298500Y-53242833D01*
X102415218Y-53219616D01*
X102467834Y-53184460D01*
X102520449Y-53219616D01*
X102637167Y-53242833D01*
X102933500Y-53242833D01*
X103050218Y-53219616D01*
X103149168Y-53153501D01*
X103215283Y-53054551D01*
X103238500Y-52937833D01*
X103238500Y-51964167D01*
X103215283Y-51847449D01*
X103149168Y-51748499D01*
X103050218Y-51682384D01*
X102933500Y-51659167D01*
X102921000Y-51659167D01*
X102921000Y-51646667D01*
X102897783Y-51529949D01*
X102831668Y-51430999D01*
X102732718Y-51364884D01*
X102616000Y-51341667D01*
X102593299Y-51341667D01*
X102592620Y-51326291D01*
X102582601Y-51285437D01*
X102577399Y-51243705D01*
X102568545Y-51228121D01*
X102564275Y-51210711D01*
X102539389Y-51176806D01*
X102525956Y-51153164D01*
X102552796Y-51108918D01*
X102582217Y-51064885D01*
X102583540Y-51058236D01*
X102587055Y-51052441D01*
X102595103Y-51000105D01*
X102605434Y-50948167D01*
X102604112Y-50941519D01*
X102605142Y-50934818D01*
X102598883Y-50791944D01*
X102592625Y-50649071D01*
X102581473Y-50603523D01*
X102574195Y-50557205D01*
X102567416Y-50546111D01*
X102564323Y-50533480D01*
X102536590Y-50495667D01*
X102512141Y-50455659D01*
X102501632Y-50448004D01*
X102493941Y-50437518D01*
X102453845Y-50413195D01*
X102415949Y-50385591D01*
X102403311Y-50382540D01*
X102392193Y-50375796D01*
X102345846Y-50368669D01*
X102327195Y-50364167D01*
X102489000Y-50364167D01*
X102605718Y-50340950D01*
X102704668Y-50274835D01*
X102770783Y-50175885D01*
X102784666Y-50106089D01*
X102880885Y-50086950D01*
X102979835Y-50020835D01*
X103045950Y-49921885D01*
X103063233Y-49835000D01*
X103293333Y-49835000D01*
X103410051Y-49811783D01*
X103509001Y-49745668D01*
X103575116Y-49646718D01*
X103583779Y-49603167D01*
X103584370Y-49604408D01*
X103697058Y-49755485D01*
X103697059Y-49755487D01*
X103749135Y-49825302D01*
X103746926Y-52199639D01*
X103744707Y-54585108D01*
X103677149Y-54689059D01*
X103560412Y-54868683D01*
X103550037Y-54894664D01*
X103534473Y-54917911D01*
X103528182Y-54949390D01*
X103516277Y-54979200D01*
X103516633Y-55007172D01*
X103511150Y-55034608D01*
X103504800Y-62026240D01*
X103498494Y-68969816D01*
X103488587Y-69000380D01*
X103464745Y-69063924D01*
X103415617Y-69157000D01*
X103358698Y-69231366D01*
X103291256Y-69293460D01*
X103211373Y-69344833D01*
X103105968Y-69390126D01*
X103079969Y-69398954D01*
X86861628Y-69400112D01*
X86492687Y-69400137D01*
X85853274Y-69400174D01*
X85220191Y-69400204D01*
X84593911Y-69400226D01*
X83974915Y-69400240D01*
X83363678Y-69400247D01*
X82760678Y-69400246D01*
X82166388Y-69400238D01*
X81581288Y-69400223D01*
X81005853Y-69400200D01*
X80440561Y-69400171D01*
X79885888Y-69400135D01*
X79342312Y-69400092D01*
X78810309Y-69400042D01*
X78290356Y-69399986D01*
X77782930Y-69399923D01*
X77288508Y-69399854D01*
X76807566Y-69399778D01*
X76340581Y-69399697D01*
X75888031Y-69399609D01*
X75450392Y-69399516D01*
X75028139Y-69399416D01*
X74621754Y-69399312D01*
X74231709Y-69399201D01*
X73858482Y-69399085D01*
X73502552Y-69398964D01*
X73164393Y-69398837D01*
X72844485Y-69398705D01*
X72543303Y-69398568D01*
X72261324Y-69398426D01*
X71999027Y-69398280D01*
X71756891Y-69398129D01*
X71535392Y-69397973D01*
X71335008Y-69397812D01*
X71156221Y-69397647D01*
X70999513Y-69397478D01*
X70865373Y-69397305D01*
X70865372Y-69397305D01*
X70754155Y-69397128D01*
X70754151Y-69397129D01*
X70666840Y-69396949D01*
X70666837Y-69396948D01*
X70603466Y-69396763D01*
X70579092Y-69396647D01*
X70556178Y-69391527D01*
X70508854Y-69376242D01*
X70461871Y-69357146D01*
X70430470Y-69340915D01*
X70397156Y-69318732D01*
X70331544Y-69261947D01*
X70278801Y-69197909D01*
X70230207Y-69115083D01*
X70181722Y-68999369D01*
X70174248Y-68978295D01*
X70172316Y-65076000D01*
X70532320Y-65076000D01*
X70532320Y-65490379D01*
X70624883Y-65713845D01*
X70782000Y-65870962D01*
X70782000Y-65890938D01*
X70874562Y-66114404D01*
X71045595Y-66285437D01*
X71269061Y-66378000D01*
X72084000Y-66378000D01*
X72236000Y-66226000D01*
X72236000Y-64924000D01*
X70684320Y-64924000D01*
X70532320Y-65076000D01*
X70172316Y-65076000D01*
X70171808Y-64049621D01*
X70532320Y-64049621D01*
X70532320Y-64464000D01*
X70684320Y-64616000D01*
X72236000Y-64616000D01*
X72236000Y-63314000D01*
X72084000Y-63162000D01*
X71269061Y-63162000D01*
X71045595Y-63254563D01*
X70874562Y-63425596D01*
X70782000Y-63649062D01*
X70782000Y-63669038D01*
X70624883Y-63826155D01*
X70532320Y-64049621D01*
X70171808Y-64049621D01*
X70170809Y-62032999D01*
X70168094Y-56550560D01*
X70834443Y-56550560D01*
X70834443Y-57749440D01*
X70855362Y-57860613D01*
X70921065Y-57962719D01*
X71021317Y-58031218D01*
X71140320Y-58055317D01*
X71456862Y-58055317D01*
X71652647Y-58251444D01*
X72130279Y-58449774D01*
X72647452Y-58450226D01*
X72884976Y-58352082D01*
X73036446Y-58503552D01*
X73086350Y-58536897D01*
X73795000Y-59245547D01*
X73795000Y-60103596D01*
X73758683Y-60078782D01*
X73639680Y-60054683D01*
X73323138Y-60054683D01*
X73127353Y-59858556D01*
X72649721Y-59660226D01*
X72132548Y-59659774D01*
X71654571Y-59857271D01*
X71456814Y-60054683D01*
X71140320Y-60054683D01*
X71029147Y-60075602D01*
X70927041Y-60141305D01*
X70858542Y-60241557D01*
X70834443Y-60360560D01*
X70834443Y-61559440D01*
X70855362Y-61670613D01*
X70921065Y-61772719D01*
X71021317Y-61841218D01*
X71140320Y-61865317D01*
X71456862Y-61865317D01*
X71652647Y-62061444D01*
X72130279Y-62259774D01*
X72647452Y-62260226D01*
X73125429Y-62062729D01*
X73323186Y-61865317D01*
X73639680Y-61865317D01*
X73750853Y-61844398D01*
X73795000Y-61815990D01*
X73795000Y-63315158D01*
X73734405Y-63254563D01*
X73510939Y-63162000D01*
X72696000Y-63162000D01*
X72544000Y-63314000D01*
X72544000Y-64616000D01*
X72564000Y-64616000D01*
X72564000Y-64924000D01*
X72544000Y-64924000D01*
X72544000Y-66226000D01*
X72696000Y-66378000D01*
X73510939Y-66378000D01*
X73734405Y-66285437D01*
X73905438Y-66114404D01*
X73998000Y-65890938D01*
X73998000Y-65870962D01*
X74155117Y-65713845D01*
X74247680Y-65490379D01*
X74247680Y-65175786D01*
X75268465Y-66196572D01*
X75413432Y-66293436D01*
X75430677Y-66304959D01*
X75622019Y-66343019D01*
X80313067Y-66343019D01*
X80504409Y-66304959D01*
X80666620Y-66196572D01*
X81472574Y-65390619D01*
X81565258Y-65251907D01*
X81580960Y-65228408D01*
X81619020Y-65037066D01*
X81619020Y-64742572D01*
X81985000Y-64742572D01*
X81985000Y-65197428D01*
X82076345Y-65656648D01*
X82336472Y-66045956D01*
X82696346Y-66286416D01*
X82507188Y-66475245D01*
X82385139Y-66769172D01*
X82384861Y-67087432D01*
X82506397Y-67381572D01*
X82731245Y-67606812D01*
X83025172Y-67728861D01*
X83343432Y-67729139D01*
X83637572Y-67607603D01*
X83862812Y-67382755D01*
X83984861Y-67088828D01*
X83985139Y-66770568D01*
X83863603Y-66476428D01*
X83673814Y-66286309D01*
X84033528Y-66045956D01*
X84293655Y-65656648D01*
X84385000Y-65197428D01*
X84385000Y-64742572D01*
X84525000Y-64742572D01*
X84525000Y-65197428D01*
X84616345Y-65656648D01*
X84876472Y-66045956D01*
X85236346Y-66286416D01*
X85047188Y-66475245D01*
X84925139Y-66769172D01*
X84924861Y-67087432D01*
X85046397Y-67381572D01*
X85271245Y-67606812D01*
X85565172Y-67728861D01*
X85883432Y-67729139D01*
X86177572Y-67607603D01*
X86402812Y-67382755D01*
X86524861Y-67088828D01*
X86525139Y-66770568D01*
X86403603Y-66476428D01*
X86213814Y-66286309D01*
X86573528Y-66045956D01*
X86833655Y-65656648D01*
X86925000Y-65197428D01*
X86925000Y-64742572D01*
X86833655Y-64283352D01*
X86573528Y-63894044D01*
X86184220Y-63633917D01*
X85725000Y-63542572D01*
X85265780Y-63633917D01*
X84876472Y-63894044D01*
X84616345Y-64283352D01*
X84525000Y-64742572D01*
X84385000Y-64742572D01*
X84293655Y-64283352D01*
X84033528Y-63894044D01*
X83644220Y-63633917D01*
X83185000Y-63542572D01*
X82725780Y-63633917D01*
X82336472Y-63894044D01*
X82076345Y-64283352D01*
X81985000Y-64742572D01*
X81619020Y-64742572D01*
X81619021Y-63868085D01*
X83427097Y-62060010D01*
X87387904Y-62060010D01*
X87765000Y-62437106D01*
X87765000Y-63661165D01*
X87416472Y-63894044D01*
X87156345Y-64283352D01*
X87065000Y-64742572D01*
X87065000Y-65197428D01*
X87156345Y-65656648D01*
X87416472Y-66045956D01*
X87776346Y-66286416D01*
X87587188Y-66475245D01*
X87465139Y-66769172D01*
X87464861Y-67087432D01*
X87586397Y-67381572D01*
X87811245Y-67606812D01*
X88105172Y-67728861D01*
X88423432Y-67729139D01*
X88717572Y-67607603D01*
X88942812Y-67382755D01*
X89064861Y-67088828D01*
X89065139Y-66770568D01*
X88943603Y-66476428D01*
X88753814Y-66286309D01*
X89113528Y-66045956D01*
X89373655Y-65656648D01*
X89385363Y-65597788D01*
X89493185Y-65919931D01*
X89880027Y-66364856D01*
X90123648Y-66483770D01*
X90005139Y-66769172D01*
X90004861Y-67087432D01*
X90126397Y-67381572D01*
X90351245Y-67606812D01*
X90645172Y-67728861D01*
X90963432Y-67729139D01*
X91257572Y-67607603D01*
X91482812Y-67382755D01*
X91604861Y-67088828D01*
X91605139Y-66770568D01*
X91486589Y-66483654D01*
X91729973Y-66364856D01*
X92116815Y-65919931D01*
X92303945Y-65360836D01*
X92210244Y-65203000D01*
X99742320Y-65203000D01*
X99742320Y-65617379D01*
X99834883Y-65840845D01*
X100005916Y-66011878D01*
X100139390Y-66067164D01*
X100211562Y-66241404D01*
X100382595Y-66412437D01*
X100606061Y-66505000D01*
X101421000Y-66505000D01*
X101573000Y-66353000D01*
X101573000Y-65051000D01*
X101754000Y-65051000D01*
X101754000Y-65952440D01*
X101881000Y-66079440D01*
X101881000Y-66353000D01*
X102033000Y-66505000D01*
X102847939Y-66505000D01*
X103071405Y-66412437D01*
X103242438Y-66241404D01*
X103335000Y-66017938D01*
X103335000Y-65870962D01*
X103365117Y-65840845D01*
X103457680Y-65617379D01*
X103457680Y-65203000D01*
X103305680Y-65051000D01*
X101754000Y-65051000D01*
X101573000Y-65051000D01*
X99894320Y-65051000D01*
X99742320Y-65203000D01*
X92210244Y-65203000D01*
X92163344Y-65124000D01*
X90959000Y-65124000D01*
X90959000Y-65144000D01*
X90651000Y-65144000D01*
X90651000Y-65124000D01*
X90631000Y-65124000D01*
X90631000Y-64816000D01*
X90651000Y-64816000D01*
X90651000Y-63422773D01*
X90959000Y-63422773D01*
X90959000Y-64816000D01*
X92163344Y-64816000D01*
X92303945Y-64579164D01*
X92116815Y-64020069D01*
X91861136Y-63726000D01*
X93863000Y-63726000D01*
X93863000Y-64340939D01*
X93955563Y-64564405D01*
X94126596Y-64735438D01*
X94350062Y-64828000D01*
X94665000Y-64828000D01*
X94817000Y-64676000D01*
X94817000Y-63574000D01*
X95125000Y-63574000D01*
X95125000Y-64676000D01*
X95277000Y-64828000D01*
X95591938Y-64828000D01*
X95815404Y-64735438D01*
X95986437Y-64564405D01*
X96079000Y-64340939D01*
X96079000Y-63726000D01*
X95927000Y-63574000D01*
X95125000Y-63574000D01*
X94817000Y-63574000D01*
X94015000Y-63574000D01*
X93863000Y-63726000D01*
X91861136Y-63726000D01*
X91729973Y-63575144D01*
X91191774Y-63312444D01*
X90959000Y-63422773D01*
X90651000Y-63422773D01*
X90418226Y-63312444D01*
X89880027Y-63575144D01*
X89493185Y-64020069D01*
X89385363Y-64342212D01*
X89373655Y-64283352D01*
X89113528Y-63894044D01*
X88765000Y-63661165D01*
X88765000Y-62499061D01*
X93863000Y-62499061D01*
X93863000Y-63114000D01*
X94015000Y-63266000D01*
X94817000Y-63266000D01*
X94817000Y-62164000D01*
X95125000Y-62164000D01*
X95125000Y-63266000D01*
X95927000Y-63266000D01*
X96079000Y-63114000D01*
X96079000Y-62499061D01*
X95986437Y-62275595D01*
X95815404Y-62104562D01*
X95591938Y-62012000D01*
X95277000Y-62012000D01*
X95125000Y-62164000D01*
X94817000Y-62164000D01*
X94665000Y-62012000D01*
X94350062Y-62012000D01*
X94126596Y-62104562D01*
X93955563Y-62275595D01*
X93863000Y-62499061D01*
X88765000Y-62499061D01*
X88765000Y-62230000D01*
X88726940Y-62038658D01*
X88618553Y-61876447D01*
X88202106Y-61460000D01*
X95803894Y-61460000D01*
X97365123Y-63021229D01*
X97365123Y-64220000D01*
X97386042Y-64331173D01*
X97451745Y-64433279D01*
X97551997Y-64501778D01*
X97671000Y-64525877D01*
X98671000Y-64525877D01*
X98782173Y-64504958D01*
X98884279Y-64439255D01*
X98952778Y-64339003D01*
X98976877Y-64220000D01*
X98976877Y-64176621D01*
X99742320Y-64176621D01*
X99742320Y-64591000D01*
X99894320Y-64743000D01*
X101573000Y-64743000D01*
X101573000Y-63841560D01*
X101754000Y-63841560D01*
X101754000Y-64743000D01*
X103305680Y-64743000D01*
X103457680Y-64591000D01*
X103457680Y-64176621D01*
X103365117Y-63953155D01*
X103335000Y-63923038D01*
X103335000Y-63776062D01*
X103242438Y-63552596D01*
X103071405Y-63381563D01*
X102847939Y-63289000D01*
X102033000Y-63289000D01*
X101881000Y-63441000D01*
X101881000Y-63714560D01*
X101754000Y-63841560D01*
X101573000Y-63841560D01*
X101573000Y-63441000D01*
X101421000Y-63289000D01*
X100606061Y-63289000D01*
X100382595Y-63381563D01*
X100211562Y-63552596D01*
X100139390Y-63726836D01*
X100005916Y-63782122D01*
X99834883Y-63953155D01*
X99742320Y-64176621D01*
X98976877Y-64176621D01*
X98976877Y-62620000D01*
X98955958Y-62508827D01*
X98890255Y-62406721D01*
X98790003Y-62338222D01*
X98671000Y-62314123D01*
X98072229Y-62314123D01*
X96603648Y-60845542D01*
X96722352Y-60821930D01*
X96884563Y-60713543D01*
X97110546Y-60487560D01*
X100044443Y-60487560D01*
X100044443Y-61686440D01*
X100065362Y-61797613D01*
X100131065Y-61899719D01*
X100231317Y-61968218D01*
X100350320Y-61992317D01*
X102849680Y-61992317D01*
X102960853Y-61971398D01*
X103062959Y-61905695D01*
X103131458Y-61805443D01*
X103155557Y-61686440D01*
X103155557Y-60487560D01*
X103134638Y-60376387D01*
X103068935Y-60274281D01*
X102968683Y-60205782D01*
X102849680Y-60181683D01*
X100350320Y-60181683D01*
X100239147Y-60202602D01*
X100137041Y-60268305D01*
X100068542Y-60368557D01*
X100044443Y-60487560D01*
X97110546Y-60487560D01*
X98072229Y-59525877D01*
X98671000Y-59525877D01*
X98782173Y-59504958D01*
X98884279Y-59439255D01*
X98952778Y-59339003D01*
X98976877Y-59220000D01*
X98976877Y-57620000D01*
X98955958Y-57508827D01*
X98890255Y-57406721D01*
X98790003Y-57338222D01*
X98671000Y-57314123D01*
X97671000Y-57314123D01*
X97559827Y-57335042D01*
X97457721Y-57400745D01*
X97389222Y-57500997D01*
X97365123Y-57620000D01*
X97365123Y-58818771D01*
X96323904Y-59859990D01*
X82986116Y-59859990D01*
X83164106Y-59682000D01*
X88773000Y-59682000D01*
X88964342Y-59643940D01*
X89126553Y-59535553D01*
X90371005Y-58291101D01*
X90805000Y-58377428D01*
X91264220Y-58286083D01*
X91653528Y-58025956D01*
X91913655Y-57636648D01*
X91916966Y-57620000D01*
X94165123Y-57620000D01*
X94165123Y-59220000D01*
X94186042Y-59331173D01*
X94251745Y-59433279D01*
X94351997Y-59501778D01*
X94471000Y-59525877D01*
X95471000Y-59525877D01*
X95582173Y-59504958D01*
X95684279Y-59439255D01*
X95752778Y-59339003D01*
X95776877Y-59220000D01*
X95776877Y-57620000D01*
X95755958Y-57508827D01*
X95690255Y-57406721D01*
X95590003Y-57338222D01*
X95471000Y-57314123D01*
X94471000Y-57314123D01*
X94359827Y-57335042D01*
X94257721Y-57400745D01*
X94189222Y-57500997D01*
X94165123Y-57620000D01*
X91916966Y-57620000D01*
X92005000Y-57177428D01*
X92005000Y-56722572D01*
X91996047Y-56677560D01*
X100044443Y-56677560D01*
X100044443Y-57876440D01*
X100065362Y-57987613D01*
X100131065Y-58089719D01*
X100231317Y-58158218D01*
X100350320Y-58182317D01*
X100666862Y-58182317D01*
X100862647Y-58378444D01*
X101340279Y-58576774D01*
X101857452Y-58577226D01*
X102335429Y-58379729D01*
X102533186Y-58182317D01*
X102849680Y-58182317D01*
X102960853Y-58161398D01*
X103062959Y-58095695D01*
X103131458Y-57995443D01*
X103155557Y-57876440D01*
X103155557Y-56677560D01*
X103134638Y-56566387D01*
X103068935Y-56464281D01*
X102968683Y-56395782D01*
X102849680Y-56371683D01*
X102533138Y-56371683D01*
X102337353Y-56175556D01*
X101859721Y-55977226D01*
X101342548Y-55976774D01*
X100864571Y-56174271D01*
X100666814Y-56371683D01*
X100350320Y-56371683D01*
X100239147Y-56392602D01*
X100137041Y-56458305D01*
X100068542Y-56558557D01*
X100044443Y-56677560D01*
X91996047Y-56677560D01*
X91913655Y-56263352D01*
X91653528Y-55874044D01*
X91264220Y-55613917D01*
X90805000Y-55522572D01*
X90345780Y-55613917D01*
X89956472Y-55874044D01*
X89696345Y-56263352D01*
X89605000Y-56722572D01*
X89605000Y-57177428D01*
X89682226Y-57565668D01*
X88565894Y-58682000D01*
X82957000Y-58682000D01*
X82765960Y-58720000D01*
X82765658Y-58720060D01*
X82603447Y-58828447D01*
X79117771Y-62314123D01*
X78519000Y-62314123D01*
X78407827Y-62335042D01*
X78351000Y-62371609D01*
X78351000Y-60995106D01*
X79372553Y-59973554D01*
X79480940Y-59811342D01*
X79519000Y-59620000D01*
X79519000Y-59525877D01*
X79630173Y-59504958D01*
X79732279Y-59439255D01*
X79800778Y-59339003D01*
X79824877Y-59220000D01*
X79824877Y-58920000D01*
X81915000Y-58920000D01*
X82106342Y-58881940D01*
X82268553Y-58773553D01*
X82751006Y-58291101D01*
X83185000Y-58377428D01*
X83644220Y-58286083D01*
X84033528Y-58025956D01*
X84293655Y-57636648D01*
X84385000Y-57177428D01*
X84385000Y-56722572D01*
X84525000Y-56722572D01*
X84525000Y-57177428D01*
X84616345Y-57636648D01*
X84876472Y-58025956D01*
X85265780Y-58286083D01*
X85725000Y-58377428D01*
X86184220Y-58286083D01*
X86573528Y-58025956D01*
X86833655Y-57636648D01*
X86925000Y-57177428D01*
X86925000Y-56722572D01*
X87065000Y-56722572D01*
X87065000Y-57177428D01*
X87156345Y-57636648D01*
X87416472Y-58025956D01*
X87805780Y-58286083D01*
X88265000Y-58377428D01*
X88724220Y-58286083D01*
X89113528Y-58025956D01*
X89373655Y-57636648D01*
X89465000Y-57177428D01*
X89465000Y-56722572D01*
X89373655Y-56263352D01*
X89113528Y-55874044D01*
X88724220Y-55613917D01*
X88265000Y-55522572D01*
X87805780Y-55613917D01*
X87416472Y-55874044D01*
X87156345Y-56263352D01*
X87065000Y-56722572D01*
X86925000Y-56722572D01*
X86833655Y-56263352D01*
X86573528Y-55874044D01*
X86184220Y-55613917D01*
X85725000Y-55522572D01*
X85265780Y-55613917D01*
X84876472Y-55874044D01*
X84616345Y-56263352D01*
X84525000Y-56722572D01*
X84385000Y-56722572D01*
X84293655Y-56263352D01*
X84033528Y-55874044D01*
X83644220Y-55613917D01*
X83185000Y-55522572D01*
X82725780Y-55613917D01*
X82336472Y-55874044D01*
X82076345Y-56263352D01*
X81985000Y-56722572D01*
X81985000Y-57177428D01*
X82062226Y-57565668D01*
X81707894Y-57920000D01*
X79824877Y-57920000D01*
X79824877Y-57620000D01*
X79803958Y-57508827D01*
X79738255Y-57406721D01*
X79638003Y-57338222D01*
X79519000Y-57314123D01*
X78519000Y-57314123D01*
X78407827Y-57335042D01*
X78305721Y-57400745D01*
X78237222Y-57500997D01*
X78213123Y-57620000D01*
X78213123Y-59220000D01*
X78234042Y-59331173D01*
X78299745Y-59433279D01*
X78399997Y-59501778D01*
X78425043Y-59506850D01*
X77716000Y-60215894D01*
X77716000Y-58917000D01*
X77677940Y-58725658D01*
X77569553Y-58563447D01*
X77072553Y-58066447D01*
X76910342Y-57958060D01*
X76719000Y-57920000D01*
X76624877Y-57920000D01*
X76624877Y-57620000D01*
X76603958Y-57508827D01*
X76538255Y-57406721D01*
X76438003Y-57338222D01*
X76319000Y-57314123D01*
X75319000Y-57314123D01*
X75207827Y-57335042D01*
X75105721Y-57400745D01*
X75037222Y-57500997D01*
X75013123Y-57620000D01*
X75013123Y-59220000D01*
X75034042Y-59331173D01*
X75099745Y-59433279D01*
X75199997Y-59501778D01*
X75319000Y-59525877D01*
X76319000Y-59525877D01*
X76430173Y-59504958D01*
X76532279Y-59439255D01*
X76600778Y-59339003D01*
X76624877Y-59220000D01*
X76624877Y-59032983D01*
X76716000Y-59124106D01*
X76716000Y-62157158D01*
X76663404Y-62104562D01*
X76439938Y-62012000D01*
X76125000Y-62012000D01*
X75973000Y-62164000D01*
X75973000Y-63266000D01*
X75993000Y-63266000D01*
X75993000Y-63574000D01*
X75973000Y-63574000D01*
X75973000Y-64676000D01*
X76125000Y-64828000D01*
X76439938Y-64828000D01*
X76663404Y-64735438D01*
X76750393Y-64648449D01*
X76754060Y-64666884D01*
X76862447Y-64829095D01*
X77376370Y-65343019D01*
X75829126Y-65343019D01*
X75314107Y-64828000D01*
X75513000Y-64828000D01*
X75665000Y-64676000D01*
X75665000Y-63574000D01*
X75645000Y-63574000D01*
X75645000Y-63266000D01*
X75665000Y-63266000D01*
X75665000Y-62164000D01*
X75513000Y-62012000D01*
X75198062Y-62012000D01*
X74974596Y-62104562D01*
X74803563Y-62275595D01*
X74795000Y-62296268D01*
X74795000Y-59038441D01*
X74756940Y-58847099D01*
X74648553Y-58684888D01*
X73885189Y-57921524D01*
X73921458Y-57868443D01*
X73945557Y-57749440D01*
X73945557Y-56550560D01*
X73924638Y-56439387D01*
X73858935Y-56337281D01*
X73758683Y-56268782D01*
X73639680Y-56244683D01*
X73323138Y-56244683D01*
X73127353Y-56048556D01*
X72649721Y-55850226D01*
X72132548Y-55849774D01*
X71654571Y-56047271D01*
X71456814Y-56244683D01*
X71140320Y-56244683D01*
X71029147Y-56265602D01*
X70927041Y-56331305D01*
X70858542Y-56431557D01*
X70834443Y-56550560D01*
X70168094Y-56550560D01*
X70167343Y-55035299D01*
X70159633Y-54996637D01*
X70157159Y-54957296D01*
X70148097Y-54938796D01*
X70144068Y-54918592D01*
X70122150Y-54885824D01*
X70104810Y-54850424D01*
X69967394Y-54670347D01*
X69892034Y-54571590D01*
X69890685Y-54281000D01*
X75862000Y-54281000D01*
X75862000Y-55095938D01*
X75954562Y-55319404D01*
X76125595Y-55490437D01*
X76349061Y-55583000D01*
X77164000Y-55583000D01*
X77316000Y-55431000D01*
X77316000Y-54129000D01*
X76014000Y-54129000D01*
X75862000Y-54281000D01*
X69890685Y-54281000D01*
X69884060Y-52854062D01*
X75862000Y-52854062D01*
X75862000Y-53669000D01*
X76014000Y-53821000D01*
X77316000Y-53821000D01*
X77316000Y-52519000D01*
X77624000Y-52519000D01*
X77624000Y-53821000D01*
X77644000Y-53821000D01*
X77644000Y-54129000D01*
X77624000Y-54129000D01*
X77624000Y-55431000D01*
X77776000Y-55583000D01*
X78590939Y-55583000D01*
X78814405Y-55490437D01*
X78985438Y-55319404D01*
X79078000Y-55095938D01*
X79078000Y-54881457D01*
X79272647Y-55076444D01*
X79750279Y-55274774D01*
X80267452Y-55275226D01*
X80745429Y-55077729D01*
X81111444Y-54712353D01*
X81140892Y-54641432D01*
X82384861Y-54641432D01*
X82506397Y-54935572D01*
X82731245Y-55160812D01*
X83025172Y-55282861D01*
X83343432Y-55283139D01*
X83637572Y-55161603D01*
X83862812Y-54936755D01*
X83984861Y-54642828D01*
X83984862Y-54641432D01*
X84924861Y-54641432D01*
X85046397Y-54935572D01*
X85271245Y-55160812D01*
X85565172Y-55282861D01*
X85883432Y-55283139D01*
X86177572Y-55161603D01*
X86402812Y-54936755D01*
X86524861Y-54642828D01*
X86524862Y-54641432D01*
X87464861Y-54641432D01*
X87586397Y-54935572D01*
X87811245Y-55160812D01*
X88105172Y-55282861D01*
X88423432Y-55283139D01*
X88717572Y-55161603D01*
X88942812Y-54936755D01*
X89064861Y-54642828D01*
X89064862Y-54641432D01*
X90004861Y-54641432D01*
X90126397Y-54935572D01*
X90351245Y-55160812D01*
X90645172Y-55282861D01*
X90963432Y-55283139D01*
X91257572Y-55161603D01*
X91482812Y-54936755D01*
X91604861Y-54642828D01*
X91605139Y-54324568D01*
X91587138Y-54281000D01*
X92372000Y-54281000D01*
X92372000Y-55095938D01*
X92464562Y-55319404D01*
X92635595Y-55490437D01*
X92859061Y-55583000D01*
X93674000Y-55583000D01*
X93826000Y-55431000D01*
X93826000Y-54129000D01*
X92524000Y-54129000D01*
X92372000Y-54281000D01*
X91587138Y-54281000D01*
X91483603Y-54030428D01*
X91258755Y-53805188D01*
X90964828Y-53683139D01*
X90646568Y-53682861D01*
X90352428Y-53804397D01*
X90127188Y-54029245D01*
X90005139Y-54323172D01*
X90004861Y-54641432D01*
X89064862Y-54641432D01*
X89065139Y-54324568D01*
X88943603Y-54030428D01*
X88718755Y-53805188D01*
X88424828Y-53683139D01*
X88106568Y-53682861D01*
X87812428Y-53804397D01*
X87587188Y-54029245D01*
X87465139Y-54323172D01*
X87464861Y-54641432D01*
X86524862Y-54641432D01*
X86525139Y-54324568D01*
X86403603Y-54030428D01*
X86178755Y-53805188D01*
X85884828Y-53683139D01*
X85566568Y-53682861D01*
X85272428Y-53804397D01*
X85047188Y-54029245D01*
X84925139Y-54323172D01*
X84924861Y-54641432D01*
X83984862Y-54641432D01*
X83985139Y-54324568D01*
X83863603Y-54030428D01*
X83638755Y-53805188D01*
X83344828Y-53683139D01*
X83026568Y-53682861D01*
X82732428Y-53804397D01*
X82507188Y-54029245D01*
X82385139Y-54323172D01*
X82384861Y-54641432D01*
X81140892Y-54641432D01*
X81309774Y-54234721D01*
X81310226Y-53717548D01*
X81112729Y-53239571D01*
X80747353Y-52873556D01*
X80700407Y-52854062D01*
X92372000Y-52854062D01*
X92372000Y-53669000D01*
X92524000Y-53821000D01*
X93826000Y-53821000D01*
X93826000Y-52519000D01*
X93674000Y-52367000D01*
X92859061Y-52367000D01*
X92635595Y-52459563D01*
X92464562Y-52630596D01*
X92372000Y-52854062D01*
X80700407Y-52854062D01*
X80269721Y-52675226D01*
X79752548Y-52674774D01*
X79274571Y-52872271D01*
X79078000Y-53068499D01*
X79078000Y-52854062D01*
X78985438Y-52630596D01*
X78814405Y-52459563D01*
X78590939Y-52367000D01*
X77776000Y-52367000D01*
X77624000Y-52519000D01*
X77316000Y-52519000D01*
X77164000Y-52367000D01*
X76349061Y-52367000D01*
X76125595Y-52459563D01*
X75954562Y-52630596D01*
X75862000Y-52854062D01*
X69884060Y-52854062D01*
X69884058Y-52853707D01*
X69883699Y-52775929D01*
X69883699Y-52775928D01*
X69882681Y-52548616D01*
X69882681Y-52548615D01*
X69881702Y-52320501D01*
X69881702Y-52320500D01*
X69880768Y-52093808D01*
X69880769Y-52093804D01*
X69879889Y-51870553D01*
X69879889Y-51870552D01*
X69879069Y-51653091D01*
X69879069Y-51653090D01*
X69878318Y-51443556D01*
X69878318Y-51443555D01*
X69877643Y-51244133D01*
X69877643Y-51244132D01*
X69877051Y-51057091D01*
X69877052Y-51057087D01*
X69876551Y-50884369D01*
X69876551Y-50884368D01*
X69876148Y-50728410D01*
X69876148Y-50728409D01*
X69875851Y-50591508D01*
X69875852Y-50591505D01*
X69875668Y-50475325D01*
X69875668Y-50475324D01*
X69875604Y-50382633D01*
X69875601Y-49833604D01*
X70048248Y-49606774D01*
X70064317Y-49573866D01*
X70085201Y-49543788D01*
X70090182Y-49520893D01*
X70100464Y-49499836D01*
X70102716Y-49463284D01*
X70110501Y-49427504D01*
X70118223Y-48995787D01*
X70119403Y-48930801D01*
X70119403Y-48930800D01*
X70121451Y-48827217D01*
X70123466Y-48744943D01*
X70125612Y-48682222D01*
X70127973Y-48636881D01*
X70130438Y-48606972D01*
X70132703Y-48589421D01*
X70134789Y-48578467D01*
X70137940Y-48565985D01*
X70141117Y-48555225D01*
X70179605Y-48459206D01*
X70227899Y-48378155D01*
X70287137Y-48306335D01*
X70353016Y-48248019D01*
X70434572Y-48197405D01*
X70453244Y-48187647D01*
X70454848Y-48186356D01*
X70456813Y-48185751D01*
X70475663Y-48175579D01*
X70488534Y-48168773D01*
X70494317Y-48165964D01*
X70495636Y-48165413D01*
X70496595Y-48165090D01*
X70501513Y-48163809D01*
X70513543Y-48161463D01*
X70534563Y-48158453D01*
X70565496Y-48155238D01*
X70606958Y-48152136D01*
X70659523Y-48149326D01*
X70723819Y-48146889D01*
X70800521Y-48144850D01*
X70890968Y-48143188D01*
X70995180Y-48141894D01*
X71115226Y-48140917D01*
X71251253Y-48140226D01*
X71405141Y-48139773D01*
X71577612Y-48139513D01*
X71577613Y-48139513D01*
X71769566Y-48139404D01*
X71982304Y-48139399D01*
X72217160Y-48139452D01*
X72217160Y-48139452D01*
G37*
X72217160Y-48139452D02*
X72475099Y-48139517D01*
X72475120Y-48139513D01*
X72475140Y-48139517D01*
X72757311Y-48139550D01*
X72757329Y-48139546D01*
X72757347Y-48139550D01*
X74619281Y-48139550D01*
X75509993Y-50514782D01*
X75992285Y-51999149D01*
X75998211Y-52009731D01*
X76000576Y-52021619D01*
X76027100Y-52061315D01*
X76050433Y-52102980D01*
X76059954Y-52110486D01*
X76066691Y-52120569D01*
X76106392Y-52147096D01*
X76143889Y-52176657D01*
X76155561Y-52179949D01*
X76165641Y-52186684D01*
X76212474Y-52195999D01*
X76258427Y-52208959D01*
X76270466Y-52207534D01*
X76282360Y-52209900D01*
X97250252Y-52209790D01*
X97257302Y-52208388D01*
X97264409Y-52209461D01*
X97315431Y-52196824D01*
X97366969Y-52186572D01*
X97372944Y-52182580D01*
X97379924Y-52180851D01*
X97422216Y-52149658D01*
X97465919Y-52120457D01*
X97469915Y-52114477D01*
X97475697Y-52110212D01*
X97502828Y-52065218D01*
X97532034Y-52021507D01*
X97533436Y-52014456D01*
X97537148Y-52008301D01*
X97671000Y-51637308D01*
X97671000Y-52243893D01*
X97420002Y-52494891D01*
X97328657Y-52513061D01*
X97166446Y-52621448D01*
X97014980Y-52772914D01*
X96779721Y-52675226D01*
X96262548Y-52674774D01*
X95784571Y-52872271D01*
X95588000Y-53068499D01*
X95588000Y-52854062D01*
X95495438Y-52630596D01*
X95324405Y-52459563D01*
X95100939Y-52367000D01*
X94286000Y-52367000D01*
X94134000Y-52519000D01*
X94134000Y-53821000D01*
X94154000Y-53821000D01*
X94154000Y-54129000D01*
X94134000Y-54129000D01*
X94134000Y-55431000D01*
X94286000Y-55583000D01*
X95100939Y-55583000D01*
X95324405Y-55490437D01*
X95495438Y-55319404D01*
X95588000Y-55095938D01*
X95588000Y-54881457D01*
X95782647Y-55076444D01*
X96260279Y-55274774D01*
X96777452Y-55275226D01*
X97255429Y-55077729D01*
X97621444Y-54712353D01*
X97819774Y-54234721D01*
X97820226Y-53717548D01*
X97722082Y-53480024D01*
X97746995Y-53455111D01*
X97838341Y-53436941D01*
X98000552Y-53328554D01*
X98524553Y-52804554D01*
X98632940Y-52642342D01*
X98639024Y-52611756D01*
X98671000Y-52451000D01*
X98671000Y-50753106D01*
X99320973Y-50103133D01*
X99326500Y-50104233D01*
X99326500Y-50313167D01*
X99349717Y-50429885D01*
X99415832Y-50528835D01*
X99514782Y-50594950D01*
X99631500Y-50618167D01*
X99693030Y-50618167D01*
X99686333Y-50651833D01*
X99686333Y-50948167D01*
X99709550Y-51064885D01*
X99758827Y-51138635D01*
X99736670Y-51177549D01*
X99709550Y-51218137D01*
X99707398Y-51228957D01*
X99701939Y-51238544D01*
X99695857Y-51286974D01*
X99686333Y-51334855D01*
X99686333Y-51341667D01*
X99673833Y-51341667D01*
X99557115Y-51364884D01*
X99458165Y-51430999D01*
X99392050Y-51529949D01*
X99368833Y-51646667D01*
X99368833Y-51659133D01*
X99355537Y-51659168D01*
X99297661Y-51670838D01*
X99239615Y-51682384D01*
X99239277Y-51682610D01*
X99238880Y-51682690D01*
X99189940Y-51715575D01*
X99140665Y-51748499D01*
X99140439Y-51748837D01*
X99140103Y-51749063D01*
X99107405Y-51798276D01*
X99074550Y-51847449D01*
X99074471Y-51847846D01*
X99074246Y-51848185D01*
X99062896Y-51906036D01*
X99051333Y-51964167D01*
X99051333Y-52937833D01*
X99074550Y-53054551D01*
X99140665Y-53153501D01*
X99239615Y-53219616D01*
X99356333Y-53242833D01*
X99652667Y-53242833D01*
X99769385Y-53219616D01*
X99822000Y-53184460D01*
X99874615Y-53219616D01*
X99991333Y-53242833D01*
X100025000Y-53242833D01*
X100025000Y-53276500D01*
X100048217Y-53393218D01*
X100114332Y-53492168D01*
X100213282Y-53558283D01*
X100330000Y-53581500D01*
X100965000Y-53581500D01*
X101081718Y-53558283D01*
X101145458Y-53515694D01*
X101152580Y-53523295D01*
X101181421Y-53536355D01*
X101207362Y-53554517D01*
X101235108Y-53560666D01*
X101260988Y-53572386D01*
X101292629Y-53573415D01*
X101323548Y-53580268D01*
X101611913Y-53586544D01*
X101611981Y-53586532D01*
X101612048Y-53586547D01*
X101640234Y-53587148D01*
X101640567Y-53587089D01*
X101640895Y-53587161D01*
X101745162Y-53589158D01*
X101745769Y-53589049D01*
X101746373Y-53589179D01*
X101833649Y-53590504D01*
X101834636Y-53590323D01*
X101835616Y-53590527D01*
X101897456Y-53591067D01*
X101900723Y-53590447D01*
X101903992Y-53591054D01*
X101931955Y-53590699D01*
X101949989Y-53586873D01*
X101968393Y-53588049D01*
X101968573Y-53588024D01*
X101995560Y-53578813D01*
X102023867Y-53575329D01*
X102035528Y-53568727D01*
X102048368Y-53566003D01*
X102063461Y-53555639D01*
X102081199Y-53549585D01*
X102102609Y-53530747D01*
X102127426Y-53516696D01*
X102135811Y-53505957D01*
X102146471Y-53498637D01*
X102156314Y-53483492D01*
X102170543Y-53470973D01*
X102183115Y-53445372D01*
X102200664Y-53422896D01*
X102211338Y-53401702D01*
X102220107Y-53370043D01*
X102223000Y-53364153D01*
X102223378Y-53358236D01*
X102224562Y-53353960D01*
X102240936Y-53307195D01*
X102248424Y-53254224D01*
X102247786Y-53242833D01*
X102298500Y-53242833D01*
X102415218Y-53219616D01*
X102467834Y-53184460D01*
X102520449Y-53219616D01*
X102637167Y-53242833D01*
X102933500Y-53242833D01*
X103050218Y-53219616D01*
X103149168Y-53153501D01*
X103215283Y-53054551D01*
X103238500Y-52937833D01*
X103238500Y-51964167D01*
X103215283Y-51847449D01*
X103149168Y-51748499D01*
X103050218Y-51682384D01*
X102933500Y-51659167D01*
X102921000Y-51659167D01*
X102921000Y-51646667D01*
X102897783Y-51529949D01*
X102831668Y-51430999D01*
X102732718Y-51364884D01*
X102616000Y-51341667D01*
X102593299Y-51341667D01*
X102592620Y-51326291D01*
X102582601Y-51285437D01*
X102577399Y-51243705D01*
X102568545Y-51228121D01*
X102564275Y-51210711D01*
X102539389Y-51176806D01*
X102525956Y-51153164D01*
X102552796Y-51108918D01*
X102582217Y-51064885D01*
X102583540Y-51058236D01*
X102587055Y-51052441D01*
X102595103Y-51000105D01*
X102605434Y-50948167D01*
X102604112Y-50941519D01*
X102605142Y-50934818D01*
X102598883Y-50791944D01*
X102592625Y-50649071D01*
X102581473Y-50603523D01*
X102574195Y-50557205D01*
X102567416Y-50546111D01*
X102564323Y-50533480D01*
X102536590Y-50495667D01*
X102512141Y-50455659D01*
X102501632Y-50448004D01*
X102493941Y-50437518D01*
X102453845Y-50413195D01*
X102415949Y-50385591D01*
X102403311Y-50382540D01*
X102392193Y-50375796D01*
X102345846Y-50368669D01*
X102327195Y-50364167D01*
X102489000Y-50364167D01*
X102605718Y-50340950D01*
X102704668Y-50274835D01*
X102770783Y-50175885D01*
X102784666Y-50106089D01*
X102880885Y-50086950D01*
X102979835Y-50020835D01*
X103045950Y-49921885D01*
X103063233Y-49835000D01*
X103293333Y-49835000D01*
X103410051Y-49811783D01*
X103509001Y-49745668D01*
X103575116Y-49646718D01*
X103583779Y-49603167D01*
X103584370Y-49604408D01*
X103697058Y-49755485D01*
X103697059Y-49755487D01*
X103749135Y-49825302D01*
X103746926Y-52199639D01*
X103744707Y-54585108D01*
X103677149Y-54689059D01*
X103560412Y-54868683D01*
X103550037Y-54894664D01*
X103534473Y-54917911D01*
X103528182Y-54949390D01*
X103516277Y-54979200D01*
X103516633Y-55007172D01*
X103511150Y-55034608D01*
X103504800Y-62026240D01*
X103498494Y-68969816D01*
X103488587Y-69000380D01*
X103464745Y-69063924D01*
X103415617Y-69157000D01*
X103358698Y-69231366D01*
X103291256Y-69293460D01*
X103211373Y-69344833D01*
X103105968Y-69390126D01*
X103079969Y-69398954D01*
X86861628Y-69400112D01*
X86492687Y-69400137D01*
X85853274Y-69400174D01*
X85220191Y-69400204D01*
X84593911Y-69400226D01*
X83974915Y-69400240D01*
X83363678Y-69400247D01*
X82760678Y-69400246D01*
X82166388Y-69400238D01*
X81581288Y-69400223D01*
X81005853Y-69400200D01*
X80440561Y-69400171D01*
X79885888Y-69400135D01*
X79342312Y-69400092D01*
X78810309Y-69400042D01*
X78290356Y-69399986D01*
X77782930Y-69399923D01*
X77288508Y-69399854D01*
X76807566Y-69399778D01*
X76340581Y-69399697D01*
X75888031Y-69399609D01*
X75450392Y-69399516D01*
X75028139Y-69399416D01*
X74621754Y-69399312D01*
X74231709Y-69399201D01*
X73858482Y-69399085D01*
X73502552Y-69398964D01*
X73164393Y-69398837D01*
X72844485Y-69398705D01*
X72543303Y-69398568D01*
X72261324Y-69398426D01*
X71999027Y-69398280D01*
X71756891Y-69398129D01*
X71535392Y-69397973D01*
X71335008Y-69397812D01*
X71156221Y-69397647D01*
X70999513Y-69397478D01*
X70865373Y-69397305D01*
X70865372Y-69397305D01*
X70754155Y-69397128D01*
X70754151Y-69397129D01*
X70666840Y-69396949D01*
X70666837Y-69396948D01*
X70603466Y-69396763D01*
X70579092Y-69396647D01*
X70556178Y-69391527D01*
X70508854Y-69376242D01*
X70461871Y-69357146D01*
X70430470Y-69340915D01*
X70397156Y-69318732D01*
X70331544Y-69261947D01*
X70278801Y-69197909D01*
X70230207Y-69115083D01*
X70181722Y-68999369D01*
X70174248Y-68978295D01*
X70172316Y-65076000D01*
X70532320Y-65076000D01*
X70532320Y-65490379D01*
X70624883Y-65713845D01*
X70782000Y-65870962D01*
X70782000Y-65890938D01*
X70874562Y-66114404D01*
X71045595Y-66285437D01*
X71269061Y-66378000D01*
X72084000Y-66378000D01*
X72236000Y-66226000D01*
X72236000Y-64924000D01*
X70684320Y-64924000D01*
X70532320Y-65076000D01*
X70172316Y-65076000D01*
X70171808Y-64049621D01*
X70532320Y-64049621D01*
X70532320Y-64464000D01*
X70684320Y-64616000D01*
X72236000Y-64616000D01*
X72236000Y-63314000D01*
X72084000Y-63162000D01*
X71269061Y-63162000D01*
X71045595Y-63254563D01*
X70874562Y-63425596D01*
X70782000Y-63649062D01*
X70782000Y-63669038D01*
X70624883Y-63826155D01*
X70532320Y-64049621D01*
X70171808Y-64049621D01*
X70170809Y-62032999D01*
X70168094Y-56550560D01*
X70834443Y-56550560D01*
X70834443Y-57749440D01*
X70855362Y-57860613D01*
X70921065Y-57962719D01*
X71021317Y-58031218D01*
X71140320Y-58055317D01*
X71456862Y-58055317D01*
X71652647Y-58251444D01*
X72130279Y-58449774D01*
X72647452Y-58450226D01*
X72884976Y-58352082D01*
X73036446Y-58503552D01*
X73086350Y-58536897D01*
X73795000Y-59245547D01*
X73795000Y-60103596D01*
X73758683Y-60078782D01*
X73639680Y-60054683D01*
X73323138Y-60054683D01*
X73127353Y-59858556D01*
X72649721Y-59660226D01*
X72132548Y-59659774D01*
X71654571Y-59857271D01*
X71456814Y-60054683D01*
X71140320Y-60054683D01*
X71029147Y-60075602D01*
X70927041Y-60141305D01*
X70858542Y-60241557D01*
X70834443Y-60360560D01*
X70834443Y-61559440D01*
X70855362Y-61670613D01*
X70921065Y-61772719D01*
X71021317Y-61841218D01*
X71140320Y-61865317D01*
X71456862Y-61865317D01*
X71652647Y-62061444D01*
X72130279Y-62259774D01*
X72647452Y-62260226D01*
X73125429Y-62062729D01*
X73323186Y-61865317D01*
X73639680Y-61865317D01*
X73750853Y-61844398D01*
X73795000Y-61815990D01*
X73795000Y-63315158D01*
X73734405Y-63254563D01*
X73510939Y-63162000D01*
X72696000Y-63162000D01*
X72544000Y-63314000D01*
X72544000Y-64616000D01*
X72564000Y-64616000D01*
X72564000Y-64924000D01*
X72544000Y-64924000D01*
X72544000Y-66226000D01*
X72696000Y-66378000D01*
X73510939Y-66378000D01*
X73734405Y-66285437D01*
X73905438Y-66114404D01*
X73998000Y-65890938D01*
X73998000Y-65870962D01*
X74155117Y-65713845D01*
X74247680Y-65490379D01*
X74247680Y-65175786D01*
X75268465Y-66196572D01*
X75413432Y-66293436D01*
X75430677Y-66304959D01*
X75622019Y-66343019D01*
X80313067Y-66343019D01*
X80504409Y-66304959D01*
X80666620Y-66196572D01*
X81472574Y-65390619D01*
X81565258Y-65251907D01*
X81580960Y-65228408D01*
X81619020Y-65037066D01*
X81619020Y-64742572D01*
X81985000Y-64742572D01*
X81985000Y-65197428D01*
X82076345Y-65656648D01*
X82336472Y-66045956D01*
X82696346Y-66286416D01*
X82507188Y-66475245D01*
X82385139Y-66769172D01*
X82384861Y-67087432D01*
X82506397Y-67381572D01*
X82731245Y-67606812D01*
X83025172Y-67728861D01*
X83343432Y-67729139D01*
X83637572Y-67607603D01*
X83862812Y-67382755D01*
X83984861Y-67088828D01*
X83985139Y-66770568D01*
X83863603Y-66476428D01*
X83673814Y-66286309D01*
X84033528Y-66045956D01*
X84293655Y-65656648D01*
X84385000Y-65197428D01*
X84385000Y-64742572D01*
X84525000Y-64742572D01*
X84525000Y-65197428D01*
X84616345Y-65656648D01*
X84876472Y-66045956D01*
X85236346Y-66286416D01*
X85047188Y-66475245D01*
X84925139Y-66769172D01*
X84924861Y-67087432D01*
X85046397Y-67381572D01*
X85271245Y-67606812D01*
X85565172Y-67728861D01*
X85883432Y-67729139D01*
X86177572Y-67607603D01*
X86402812Y-67382755D01*
X86524861Y-67088828D01*
X86525139Y-66770568D01*
X86403603Y-66476428D01*
X86213814Y-66286309D01*
X86573528Y-66045956D01*
X86833655Y-65656648D01*
X86925000Y-65197428D01*
X86925000Y-64742572D01*
X86833655Y-64283352D01*
X86573528Y-63894044D01*
X86184220Y-63633917D01*
X85725000Y-63542572D01*
X85265780Y-63633917D01*
X84876472Y-63894044D01*
X84616345Y-64283352D01*
X84525000Y-64742572D01*
X84385000Y-64742572D01*
X84293655Y-64283352D01*
X84033528Y-63894044D01*
X83644220Y-63633917D01*
X83185000Y-63542572D01*
X82725780Y-63633917D01*
X82336472Y-63894044D01*
X82076345Y-64283352D01*
X81985000Y-64742572D01*
X81619020Y-64742572D01*
X81619021Y-63868085D01*
X83427097Y-62060010D01*
X87387904Y-62060010D01*
X87765000Y-62437106D01*
X87765000Y-63661165D01*
X87416472Y-63894044D01*
X87156345Y-64283352D01*
X87065000Y-64742572D01*
X87065000Y-65197428D01*
X87156345Y-65656648D01*
X87416472Y-66045956D01*
X87776346Y-66286416D01*
X87587188Y-66475245D01*
X87465139Y-66769172D01*
X87464861Y-67087432D01*
X87586397Y-67381572D01*
X87811245Y-67606812D01*
X88105172Y-67728861D01*
X88423432Y-67729139D01*
X88717572Y-67607603D01*
X88942812Y-67382755D01*
X89064861Y-67088828D01*
X89065139Y-66770568D01*
X88943603Y-66476428D01*
X88753814Y-66286309D01*
X89113528Y-66045956D01*
X89373655Y-65656648D01*
X89385363Y-65597788D01*
X89493185Y-65919931D01*
X89880027Y-66364856D01*
X90123648Y-66483770D01*
X90005139Y-66769172D01*
X90004861Y-67087432D01*
X90126397Y-67381572D01*
X90351245Y-67606812D01*
X90645172Y-67728861D01*
X90963432Y-67729139D01*
X91257572Y-67607603D01*
X91482812Y-67382755D01*
X91604861Y-67088828D01*
X91605139Y-66770568D01*
X91486589Y-66483654D01*
X91729973Y-66364856D01*
X92116815Y-65919931D01*
X92303945Y-65360836D01*
X92210244Y-65203000D01*
X99742320Y-65203000D01*
X99742320Y-65617379D01*
X99834883Y-65840845D01*
X100005916Y-66011878D01*
X100139390Y-66067164D01*
X100211562Y-66241404D01*
X100382595Y-66412437D01*
X100606061Y-66505000D01*
X101421000Y-66505000D01*
X101573000Y-66353000D01*
X101573000Y-65051000D01*
X101754000Y-65051000D01*
X101754000Y-65952440D01*
X101881000Y-66079440D01*
X101881000Y-66353000D01*
X102033000Y-66505000D01*
X102847939Y-66505000D01*
X103071405Y-66412437D01*
X103242438Y-66241404D01*
X103335000Y-66017938D01*
X103335000Y-65870962D01*
X103365117Y-65840845D01*
X103457680Y-65617379D01*
X103457680Y-65203000D01*
X103305680Y-65051000D01*
X101754000Y-65051000D01*
X101573000Y-65051000D01*
X99894320Y-65051000D01*
X99742320Y-65203000D01*
X92210244Y-65203000D01*
X92163344Y-65124000D01*
X90959000Y-65124000D01*
X90959000Y-65144000D01*
X90651000Y-65144000D01*
X90651000Y-65124000D01*
X90631000Y-65124000D01*
X90631000Y-64816000D01*
X90651000Y-64816000D01*
X90651000Y-63422773D01*
X90959000Y-63422773D01*
X90959000Y-64816000D01*
X92163344Y-64816000D01*
X92303945Y-64579164D01*
X92116815Y-64020069D01*
X91861136Y-63726000D01*
X93863000Y-63726000D01*
X93863000Y-64340939D01*
X93955563Y-64564405D01*
X94126596Y-64735438D01*
X94350062Y-64828000D01*
X94665000Y-64828000D01*
X94817000Y-64676000D01*
X94817000Y-63574000D01*
X95125000Y-63574000D01*
X95125000Y-64676000D01*
X95277000Y-64828000D01*
X95591938Y-64828000D01*
X95815404Y-64735438D01*
X95986437Y-64564405D01*
X96079000Y-64340939D01*
X96079000Y-63726000D01*
X95927000Y-63574000D01*
X95125000Y-63574000D01*
X94817000Y-63574000D01*
X94015000Y-63574000D01*
X93863000Y-63726000D01*
X91861136Y-63726000D01*
X91729973Y-63575144D01*
X91191774Y-63312444D01*
X90959000Y-63422773D01*
X90651000Y-63422773D01*
X90418226Y-63312444D01*
X89880027Y-63575144D01*
X89493185Y-64020069D01*
X89385363Y-64342212D01*
X89373655Y-64283352D01*
X89113528Y-63894044D01*
X88765000Y-63661165D01*
X88765000Y-62499061D01*
X93863000Y-62499061D01*
X93863000Y-63114000D01*
X94015000Y-63266000D01*
X94817000Y-63266000D01*
X94817000Y-62164000D01*
X95125000Y-62164000D01*
X95125000Y-63266000D01*
X95927000Y-63266000D01*
X96079000Y-63114000D01*
X96079000Y-62499061D01*
X95986437Y-62275595D01*
X95815404Y-62104562D01*
X95591938Y-62012000D01*
X95277000Y-62012000D01*
X95125000Y-62164000D01*
X94817000Y-62164000D01*
X94665000Y-62012000D01*
X94350062Y-62012000D01*
X94126596Y-62104562D01*
X93955563Y-62275595D01*
X93863000Y-62499061D01*
X88765000Y-62499061D01*
X88765000Y-62230000D01*
X88726940Y-62038658D01*
X88618553Y-61876447D01*
X88202106Y-61460000D01*
X95803894Y-61460000D01*
X97365123Y-63021229D01*
X97365123Y-64220000D01*
X97386042Y-64331173D01*
X97451745Y-64433279D01*
X97551997Y-64501778D01*
X97671000Y-64525877D01*
X98671000Y-64525877D01*
X98782173Y-64504958D01*
X98884279Y-64439255D01*
X98952778Y-64339003D01*
X98976877Y-64220000D01*
X98976877Y-64176621D01*
X99742320Y-64176621D01*
X99742320Y-64591000D01*
X99894320Y-64743000D01*
X101573000Y-64743000D01*
X101573000Y-63841560D01*
X101754000Y-63841560D01*
X101754000Y-64743000D01*
X103305680Y-64743000D01*
X103457680Y-64591000D01*
X103457680Y-64176621D01*
X103365117Y-63953155D01*
X103335000Y-63923038D01*
X103335000Y-63776062D01*
X103242438Y-63552596D01*
X103071405Y-63381563D01*
X102847939Y-63289000D01*
X102033000Y-63289000D01*
X101881000Y-63441000D01*
X101881000Y-63714560D01*
X101754000Y-63841560D01*
X101573000Y-63841560D01*
X101573000Y-63441000D01*
X101421000Y-63289000D01*
X100606061Y-63289000D01*
X100382595Y-63381563D01*
X100211562Y-63552596D01*
X100139390Y-63726836D01*
X100005916Y-63782122D01*
X99834883Y-63953155D01*
X99742320Y-64176621D01*
X98976877Y-64176621D01*
X98976877Y-62620000D01*
X98955958Y-62508827D01*
X98890255Y-62406721D01*
X98790003Y-62338222D01*
X98671000Y-62314123D01*
X98072229Y-62314123D01*
X96603648Y-60845542D01*
X96722352Y-60821930D01*
X96884563Y-60713543D01*
X97110546Y-60487560D01*
X100044443Y-60487560D01*
X100044443Y-61686440D01*
X100065362Y-61797613D01*
X100131065Y-61899719D01*
X100231317Y-61968218D01*
X100350320Y-61992317D01*
X102849680Y-61992317D01*
X102960853Y-61971398D01*
X103062959Y-61905695D01*
X103131458Y-61805443D01*
X103155557Y-61686440D01*
X103155557Y-60487560D01*
X103134638Y-60376387D01*
X103068935Y-60274281D01*
X102968683Y-60205782D01*
X102849680Y-60181683D01*
X100350320Y-60181683D01*
X100239147Y-60202602D01*
X100137041Y-60268305D01*
X100068542Y-60368557D01*
X100044443Y-60487560D01*
X97110546Y-60487560D01*
X98072229Y-59525877D01*
X98671000Y-59525877D01*
X98782173Y-59504958D01*
X98884279Y-59439255D01*
X98952778Y-59339003D01*
X98976877Y-59220000D01*
X98976877Y-57620000D01*
X98955958Y-57508827D01*
X98890255Y-57406721D01*
X98790003Y-57338222D01*
X98671000Y-57314123D01*
X97671000Y-57314123D01*
X97559827Y-57335042D01*
X97457721Y-57400745D01*
X97389222Y-57500997D01*
X97365123Y-57620000D01*
X97365123Y-58818771D01*
X96323904Y-59859990D01*
X82986116Y-59859990D01*
X83164106Y-59682000D01*
X88773000Y-59682000D01*
X88964342Y-59643940D01*
X89126553Y-59535553D01*
X90371005Y-58291101D01*
X90805000Y-58377428D01*
X91264220Y-58286083D01*
X91653528Y-58025956D01*
X91913655Y-57636648D01*
X91916966Y-57620000D01*
X94165123Y-57620000D01*
X94165123Y-59220000D01*
X94186042Y-59331173D01*
X94251745Y-59433279D01*
X94351997Y-59501778D01*
X94471000Y-59525877D01*
X95471000Y-59525877D01*
X95582173Y-59504958D01*
X95684279Y-59439255D01*
X95752778Y-59339003D01*
X95776877Y-59220000D01*
X95776877Y-57620000D01*
X95755958Y-57508827D01*
X95690255Y-57406721D01*
X95590003Y-57338222D01*
X95471000Y-57314123D01*
X94471000Y-57314123D01*
X94359827Y-57335042D01*
X94257721Y-57400745D01*
X94189222Y-57500997D01*
X94165123Y-57620000D01*
X91916966Y-57620000D01*
X92005000Y-57177428D01*
X92005000Y-56722572D01*
X91996047Y-56677560D01*
X100044443Y-56677560D01*
X100044443Y-57876440D01*
X100065362Y-57987613D01*
X100131065Y-58089719D01*
X100231317Y-58158218D01*
X100350320Y-58182317D01*
X100666862Y-58182317D01*
X100862647Y-58378444D01*
X101340279Y-58576774D01*
X101857452Y-58577226D01*
X102335429Y-58379729D01*
X102533186Y-58182317D01*
X102849680Y-58182317D01*
X102960853Y-58161398D01*
X103062959Y-58095695D01*
X103131458Y-57995443D01*
X103155557Y-57876440D01*
X103155557Y-56677560D01*
X103134638Y-56566387D01*
X103068935Y-56464281D01*
X102968683Y-56395782D01*
X102849680Y-56371683D01*
X102533138Y-56371683D01*
X102337353Y-56175556D01*
X101859721Y-55977226D01*
X101342548Y-55976774D01*
X100864571Y-56174271D01*
X100666814Y-56371683D01*
X100350320Y-56371683D01*
X100239147Y-56392602D01*
X100137041Y-56458305D01*
X100068542Y-56558557D01*
X100044443Y-56677560D01*
X91996047Y-56677560D01*
X91913655Y-56263352D01*
X91653528Y-55874044D01*
X91264220Y-55613917D01*
X90805000Y-55522572D01*
X90345780Y-55613917D01*
X89956472Y-55874044D01*
X89696345Y-56263352D01*
X89605000Y-56722572D01*
X89605000Y-57177428D01*
X89682226Y-57565668D01*
X88565894Y-58682000D01*
X82957000Y-58682000D01*
X82765960Y-58720000D01*
X82765658Y-58720060D01*
X82603447Y-58828447D01*
X79117771Y-62314123D01*
X78519000Y-62314123D01*
X78407827Y-62335042D01*
X78351000Y-62371609D01*
X78351000Y-60995106D01*
X79372553Y-59973554D01*
X79480940Y-59811342D01*
X79519000Y-59620000D01*
X79519000Y-59525877D01*
X79630173Y-59504958D01*
X79732279Y-59439255D01*
X79800778Y-59339003D01*
X79824877Y-59220000D01*
X79824877Y-58920000D01*
X81915000Y-58920000D01*
X82106342Y-58881940D01*
X82268553Y-58773553D01*
X82751006Y-58291101D01*
X83185000Y-58377428D01*
X83644220Y-58286083D01*
X84033528Y-58025956D01*
X84293655Y-57636648D01*
X84385000Y-57177428D01*
X84385000Y-56722572D01*
X84525000Y-56722572D01*
X84525000Y-57177428D01*
X84616345Y-57636648D01*
X84876472Y-58025956D01*
X85265780Y-58286083D01*
X85725000Y-58377428D01*
X86184220Y-58286083D01*
X86573528Y-58025956D01*
X86833655Y-57636648D01*
X86925000Y-57177428D01*
X86925000Y-56722572D01*
X87065000Y-56722572D01*
X87065000Y-57177428D01*
X87156345Y-57636648D01*
X87416472Y-58025956D01*
X87805780Y-58286083D01*
X88265000Y-58377428D01*
X88724220Y-58286083D01*
X89113528Y-58025956D01*
X89373655Y-57636648D01*
X89465000Y-57177428D01*
X89465000Y-56722572D01*
X89373655Y-56263352D01*
X89113528Y-55874044D01*
X88724220Y-55613917D01*
X88265000Y-55522572D01*
X87805780Y-55613917D01*
X87416472Y-55874044D01*
X87156345Y-56263352D01*
X87065000Y-56722572D01*
X86925000Y-56722572D01*
X86833655Y-56263352D01*
X86573528Y-55874044D01*
X86184220Y-55613917D01*
X85725000Y-55522572D01*
X85265780Y-55613917D01*
X84876472Y-55874044D01*
X84616345Y-56263352D01*
X84525000Y-56722572D01*
X84385000Y-56722572D01*
X84293655Y-56263352D01*
X84033528Y-55874044D01*
X83644220Y-55613917D01*
X83185000Y-55522572D01*
X82725780Y-55613917D01*
X82336472Y-55874044D01*
X82076345Y-56263352D01*
X81985000Y-56722572D01*
X81985000Y-57177428D01*
X82062226Y-57565668D01*
X81707894Y-57920000D01*
X79824877Y-57920000D01*
X79824877Y-57620000D01*
X79803958Y-57508827D01*
X79738255Y-57406721D01*
X79638003Y-57338222D01*
X79519000Y-57314123D01*
X78519000Y-57314123D01*
X78407827Y-57335042D01*
X78305721Y-57400745D01*
X78237222Y-57500997D01*
X78213123Y-57620000D01*
X78213123Y-59220000D01*
X78234042Y-59331173D01*
X78299745Y-59433279D01*
X78399997Y-59501778D01*
X78425043Y-59506850D01*
X77716000Y-60215894D01*
X77716000Y-58917000D01*
X77677940Y-58725658D01*
X77569553Y-58563447D01*
X77072553Y-58066447D01*
X76910342Y-57958060D01*
X76719000Y-57920000D01*
X76624877Y-57920000D01*
X76624877Y-57620000D01*
X76603958Y-57508827D01*
X76538255Y-57406721D01*
X76438003Y-57338222D01*
X76319000Y-57314123D01*
X75319000Y-57314123D01*
X75207827Y-57335042D01*
X75105721Y-57400745D01*
X75037222Y-57500997D01*
X75013123Y-57620000D01*
X75013123Y-59220000D01*
X75034042Y-59331173D01*
X75099745Y-59433279D01*
X75199997Y-59501778D01*
X75319000Y-59525877D01*
X76319000Y-59525877D01*
X76430173Y-59504958D01*
X76532279Y-59439255D01*
X76600778Y-59339003D01*
X76624877Y-59220000D01*
X76624877Y-59032983D01*
X76716000Y-59124106D01*
X76716000Y-62157158D01*
X76663404Y-62104562D01*
X76439938Y-62012000D01*
X76125000Y-62012000D01*
X75973000Y-62164000D01*
X75973000Y-63266000D01*
X75993000Y-63266000D01*
X75993000Y-63574000D01*
X75973000Y-63574000D01*
X75973000Y-64676000D01*
X76125000Y-64828000D01*
X76439938Y-64828000D01*
X76663404Y-64735438D01*
X76750393Y-64648449D01*
X76754060Y-64666884D01*
X76862447Y-64829095D01*
X77376370Y-65343019D01*
X75829126Y-65343019D01*
X75314107Y-64828000D01*
X75513000Y-64828000D01*
X75665000Y-64676000D01*
X75665000Y-63574000D01*
X75645000Y-63574000D01*
X75645000Y-63266000D01*
X75665000Y-63266000D01*
X75665000Y-62164000D01*
X75513000Y-62012000D01*
X75198062Y-62012000D01*
X74974596Y-62104562D01*
X74803563Y-62275595D01*
X74795000Y-62296268D01*
X74795000Y-59038441D01*
X74756940Y-58847099D01*
X74648553Y-58684888D01*
X73885189Y-57921524D01*
X73921458Y-57868443D01*
X73945557Y-57749440D01*
X73945557Y-56550560D01*
X73924638Y-56439387D01*
X73858935Y-56337281D01*
X73758683Y-56268782D01*
X73639680Y-56244683D01*
X73323138Y-56244683D01*
X73127353Y-56048556D01*
X72649721Y-55850226D01*
X72132548Y-55849774D01*
X71654571Y-56047271D01*
X71456814Y-56244683D01*
X71140320Y-56244683D01*
X71029147Y-56265602D01*
X70927041Y-56331305D01*
X70858542Y-56431557D01*
X70834443Y-56550560D01*
X70168094Y-56550560D01*
X70167343Y-55035299D01*
X70159633Y-54996637D01*
X70157159Y-54957296D01*
X70148097Y-54938796D01*
X70144068Y-54918592D01*
X70122150Y-54885824D01*
X70104810Y-54850424D01*
X69967394Y-54670347D01*
X69892034Y-54571590D01*
X69890685Y-54281000D01*
X75862000Y-54281000D01*
X75862000Y-55095938D01*
X75954562Y-55319404D01*
X76125595Y-55490437D01*
X76349061Y-55583000D01*
X77164000Y-55583000D01*
X77316000Y-55431000D01*
X77316000Y-54129000D01*
X76014000Y-54129000D01*
X75862000Y-54281000D01*
X69890685Y-54281000D01*
X69884060Y-52854062D01*
X75862000Y-52854062D01*
X75862000Y-53669000D01*
X76014000Y-53821000D01*
X77316000Y-53821000D01*
X77316000Y-52519000D01*
X77624000Y-52519000D01*
X77624000Y-53821000D01*
X77644000Y-53821000D01*
X77644000Y-54129000D01*
X77624000Y-54129000D01*
X77624000Y-55431000D01*
X77776000Y-55583000D01*
X78590939Y-55583000D01*
X78814405Y-55490437D01*
X78985438Y-55319404D01*
X79078000Y-55095938D01*
X79078000Y-54881457D01*
X79272647Y-55076444D01*
X79750279Y-55274774D01*
X80267452Y-55275226D01*
X80745429Y-55077729D01*
X81111444Y-54712353D01*
X81140892Y-54641432D01*
X82384861Y-54641432D01*
X82506397Y-54935572D01*
X82731245Y-55160812D01*
X83025172Y-55282861D01*
X83343432Y-55283139D01*
X83637572Y-55161603D01*
X83862812Y-54936755D01*
X83984861Y-54642828D01*
X83984862Y-54641432D01*
X84924861Y-54641432D01*
X85046397Y-54935572D01*
X85271245Y-55160812D01*
X85565172Y-55282861D01*
X85883432Y-55283139D01*
X86177572Y-55161603D01*
X86402812Y-54936755D01*
X86524861Y-54642828D01*
X86524862Y-54641432D01*
X87464861Y-54641432D01*
X87586397Y-54935572D01*
X87811245Y-55160812D01*
X88105172Y-55282861D01*
X88423432Y-55283139D01*
X88717572Y-55161603D01*
X88942812Y-54936755D01*
X89064861Y-54642828D01*
X89064862Y-54641432D01*
X90004861Y-54641432D01*
X90126397Y-54935572D01*
X90351245Y-55160812D01*
X90645172Y-55282861D01*
X90963432Y-55283139D01*
X91257572Y-55161603D01*
X91482812Y-54936755D01*
X91604861Y-54642828D01*
X91605139Y-54324568D01*
X91587138Y-54281000D01*
X92372000Y-54281000D01*
X92372000Y-55095938D01*
X92464562Y-55319404D01*
X92635595Y-55490437D01*
X92859061Y-55583000D01*
X93674000Y-55583000D01*
X93826000Y-55431000D01*
X93826000Y-54129000D01*
X92524000Y-54129000D01*
X92372000Y-54281000D01*
X91587138Y-54281000D01*
X91483603Y-54030428D01*
X91258755Y-53805188D01*
X90964828Y-53683139D01*
X90646568Y-53682861D01*
X90352428Y-53804397D01*
X90127188Y-54029245D01*
X90005139Y-54323172D01*
X90004861Y-54641432D01*
X89064862Y-54641432D01*
X89065139Y-54324568D01*
X88943603Y-54030428D01*
X88718755Y-53805188D01*
X88424828Y-53683139D01*
X88106568Y-53682861D01*
X87812428Y-53804397D01*
X87587188Y-54029245D01*
X87465139Y-54323172D01*
X87464861Y-54641432D01*
X86524862Y-54641432D01*
X86525139Y-54324568D01*
X86403603Y-54030428D01*
X86178755Y-53805188D01*
X85884828Y-53683139D01*
X85566568Y-53682861D01*
X85272428Y-53804397D01*
X85047188Y-54029245D01*
X84925139Y-54323172D01*
X84924861Y-54641432D01*
X83984862Y-54641432D01*
X83985139Y-54324568D01*
X83863603Y-54030428D01*
X83638755Y-53805188D01*
X83344828Y-53683139D01*
X83026568Y-53682861D01*
X82732428Y-53804397D01*
X82507188Y-54029245D01*
X82385139Y-54323172D01*
X82384861Y-54641432D01*
X81140892Y-54641432D01*
X81309774Y-54234721D01*
X81310226Y-53717548D01*
X81112729Y-53239571D01*
X80747353Y-52873556D01*
X80700407Y-52854062D01*
X92372000Y-52854062D01*
X92372000Y-53669000D01*
X92524000Y-53821000D01*
X93826000Y-53821000D01*
X93826000Y-52519000D01*
X93674000Y-52367000D01*
X92859061Y-52367000D01*
X92635595Y-52459563D01*
X92464562Y-52630596D01*
X92372000Y-52854062D01*
X80700407Y-52854062D01*
X80269721Y-52675226D01*
X79752548Y-52674774D01*
X79274571Y-52872271D01*
X79078000Y-53068499D01*
X79078000Y-52854062D01*
X78985438Y-52630596D01*
X78814405Y-52459563D01*
X78590939Y-52367000D01*
X77776000Y-52367000D01*
X77624000Y-52519000D01*
X77316000Y-52519000D01*
X77164000Y-52367000D01*
X76349061Y-52367000D01*
X76125595Y-52459563D01*
X75954562Y-52630596D01*
X75862000Y-52854062D01*
X69884060Y-52854062D01*
X69884058Y-52853707D01*
X69883699Y-52775929D01*
X69883699Y-52775928D01*
X69882681Y-52548616D01*
X69882681Y-52548615D01*
X69881702Y-52320501D01*
X69881702Y-52320500D01*
X69880768Y-52093808D01*
X69880769Y-52093804D01*
X69879889Y-51870553D01*
X69879889Y-51870552D01*
X69879069Y-51653091D01*
X69879069Y-51653090D01*
X69878318Y-51443556D01*
X69878318Y-51443555D01*
X69877643Y-51244133D01*
X69877643Y-51244132D01*
X69877051Y-51057091D01*
X69877052Y-51057087D01*
X69876551Y-50884369D01*
X69876551Y-50884368D01*
X69876148Y-50728410D01*
X69876148Y-50728409D01*
X69875851Y-50591508D01*
X69875852Y-50591505D01*
X69875668Y-50475325D01*
X69875668Y-50475324D01*
X69875604Y-50382633D01*
X69875601Y-49833604D01*
X70048248Y-49606774D01*
X70064317Y-49573866D01*
X70085201Y-49543788D01*
X70090182Y-49520893D01*
X70100464Y-49499836D01*
X70102716Y-49463284D01*
X70110501Y-49427504D01*
X70118223Y-48995787D01*
X70119403Y-48930801D01*
X70119403Y-48930800D01*
X70121451Y-48827217D01*
X70123466Y-48744943D01*
X70125612Y-48682222D01*
X70127973Y-48636881D01*
X70130438Y-48606972D01*
X70132703Y-48589421D01*
X70134789Y-48578467D01*
X70137940Y-48565985D01*
X70141117Y-48555225D01*
X70179605Y-48459206D01*
X70227899Y-48378155D01*
X70287137Y-48306335D01*
X70353016Y-48248019D01*
X70434572Y-48197405D01*
X70453244Y-48187647D01*
X70454848Y-48186356D01*
X70456813Y-48185751D01*
X70475663Y-48175579D01*
X70488534Y-48168773D01*
X70494317Y-48165964D01*
X70495636Y-48165413D01*
X70496595Y-48165090D01*
X70501513Y-48163809D01*
X70513543Y-48161463D01*
X70534563Y-48158453D01*
X70565496Y-48155238D01*
X70606958Y-48152136D01*
X70659523Y-48149326D01*
X70723819Y-48146889D01*
X70800521Y-48144850D01*
X70890968Y-48143188D01*
X70995180Y-48141894D01*
X71115226Y-48140917D01*
X71251253Y-48140226D01*
X71405141Y-48139773D01*
X71577612Y-48139513D01*
X71577613Y-48139513D01*
X71769566Y-48139404D01*
X71982304Y-48139399D01*
X72217160Y-48139452D01*
M02*
