G04 #@! TF.FileFunction,Legend,Bot*
%FSLAX46Y46*%
G04 Gerber Fmt 4.6, Leading zero omitted, Abs format (unit mm)*
G04 Created by KiCad (PCBNEW 4.0.7-e0-6372~58~ubuntu16.04.1) date Wed Aug  1 16:39:32 2018*
%MOMM*%
%LPD*%
G01*
G04 APERTURE LIST*
%ADD10C,0.100000*%
%ADD11C,0.010000*%
G04 APERTURE END LIST*
D10*
D11*
G36*
X78083833Y-67902666D02*
X76623333Y-67902666D01*
X76623333Y-67691000D01*
X78083833Y-67691000D01*
X78083833Y-67902666D01*
X78083833Y-67902666D01*
G37*
X78083833Y-67902666D02*
X76623333Y-67902666D01*
X76623333Y-67691000D01*
X78083833Y-67691000D01*
X78083833Y-67902666D01*
G36*
X76813833Y-66653833D02*
X77025500Y-66653833D01*
X77025500Y-66865500D01*
X77237166Y-66865500D01*
X77237166Y-67267666D01*
X76599847Y-67267666D01*
X76606298Y-67167125D01*
X76612750Y-67066583D01*
X77025500Y-67054467D01*
X77025500Y-66867819D01*
X76924958Y-66861368D01*
X76824416Y-66854916D01*
X76818010Y-66755489D01*
X76811604Y-66656061D01*
X76712177Y-66649655D01*
X76612750Y-66643250D01*
X76606298Y-66542708D01*
X76599847Y-66442166D01*
X76813833Y-66442166D01*
X76813833Y-66653833D01*
X76813833Y-66653833D01*
G37*
X76813833Y-66653833D02*
X77025500Y-66653833D01*
X77025500Y-66865500D01*
X77237166Y-66865500D01*
X77237166Y-67267666D01*
X76599847Y-67267666D01*
X76606298Y-67167125D01*
X76612750Y-67066583D01*
X77025500Y-67054467D01*
X77025500Y-66867819D01*
X76924958Y-66861368D01*
X76824416Y-66854916D01*
X76818010Y-66755489D01*
X76811604Y-66656061D01*
X76712177Y-66649655D01*
X76612750Y-66643250D01*
X76606298Y-66542708D01*
X76599847Y-66442166D01*
X76813833Y-66442166D01*
X76813833Y-66653833D01*
G36*
X77237166Y-66442166D02*
X76813833Y-66442166D01*
X76813833Y-66230500D01*
X77237166Y-66230500D01*
X77237166Y-66442166D01*
X77237166Y-66442166D01*
G37*
X77237166Y-66442166D02*
X76813833Y-66442166D01*
X76813833Y-66230500D01*
X77237166Y-66230500D01*
X77237166Y-66442166D01*
G36*
X77660500Y-66653833D02*
X77448833Y-66653833D01*
X77448833Y-66230500D01*
X77660500Y-66230500D01*
X77660500Y-66653833D01*
X77872166Y-66653833D01*
X77872166Y-66230500D01*
X77660500Y-66230500D01*
X77660500Y-66018833D01*
X78083833Y-66018833D01*
X78083833Y-67267666D01*
X77872166Y-67267666D01*
X77872166Y-66865500D01*
X77660500Y-66865500D01*
X77660500Y-66653833D01*
X77660500Y-66653833D01*
G37*
X77660500Y-66653833D02*
X77448833Y-66653833D01*
X77448833Y-66230500D01*
X77660500Y-66230500D01*
X77660500Y-66653833D01*
X77872166Y-66653833D01*
X77872166Y-66230500D01*
X77660500Y-66230500D01*
X77660500Y-66018833D01*
X78083833Y-66018833D01*
X78083833Y-67267666D01*
X77872166Y-67267666D01*
X77872166Y-66865500D01*
X77660500Y-66865500D01*
X77660500Y-66653833D01*
G36*
X77660500Y-67267666D02*
X77448833Y-67267666D01*
X77448833Y-66865500D01*
X77660500Y-66865500D01*
X77660500Y-67267666D01*
X77660500Y-67267666D01*
G37*
X77660500Y-67267666D02*
X77448833Y-67267666D01*
X77448833Y-66865500D01*
X77660500Y-66865500D01*
X77660500Y-67267666D01*
G36*
X78083833Y-65786000D02*
X76623333Y-65786000D01*
X76623333Y-65574333D01*
X78083833Y-65574333D01*
X78083833Y-65786000D01*
X78083833Y-65786000D01*
G37*
X78083833Y-65786000D02*
X76623333Y-65786000D01*
X76623333Y-65574333D01*
X78083833Y-65574333D01*
X78083833Y-65786000D01*
G36*
X93853000Y-65532000D02*
X93641333Y-65532000D01*
X93641333Y-64050333D01*
X93853000Y-64050333D01*
X93853000Y-65532000D01*
X93853000Y-65532000D01*
G37*
X93853000Y-65532000D02*
X93641333Y-65532000D01*
X93641333Y-64050333D01*
X93853000Y-64050333D01*
X93853000Y-65532000D01*
G36*
X96795166Y-65532000D02*
X96583500Y-65532000D01*
X96583500Y-64050333D01*
X96795166Y-64050333D01*
X96795166Y-65532000D01*
X96795166Y-65532000D01*
G37*
X96795166Y-65532000D02*
X96583500Y-65532000D01*
X96583500Y-64050333D01*
X96795166Y-64050333D01*
X96795166Y-65532000D01*
G36*
X94900750Y-65055750D02*
X94699666Y-65068652D01*
X94699666Y-65255300D01*
X95112416Y-65267416D01*
X95118868Y-65367958D01*
X95125319Y-65468500D01*
X94699666Y-65468500D01*
X94699666Y-65256833D01*
X94488000Y-65256833D01*
X94488000Y-65066333D01*
X94699666Y-65066333D01*
X94699666Y-64854666D01*
X94913652Y-64854666D01*
X94900750Y-65055750D01*
X94900750Y-65055750D01*
G37*
X94900750Y-65055750D02*
X94699666Y-65068652D01*
X94699666Y-65255300D01*
X95112416Y-65267416D01*
X95118868Y-65367958D01*
X95125319Y-65468500D01*
X94699666Y-65468500D01*
X94699666Y-65256833D01*
X94488000Y-65256833D01*
X94488000Y-65066333D01*
X94699666Y-65066333D01*
X94699666Y-64854666D01*
X94913652Y-64854666D01*
X94900750Y-65055750D01*
G36*
X94699666Y-64854666D02*
X94488000Y-64854666D01*
X94488000Y-64643000D01*
X94699666Y-64643000D01*
X94699666Y-64854666D01*
X94699666Y-64854666D01*
G37*
X94699666Y-64854666D02*
X94488000Y-64854666D01*
X94488000Y-64643000D01*
X94699666Y-64643000D01*
X94699666Y-64854666D01*
G36*
X95123000Y-64643000D02*
X94699666Y-64643000D01*
X94699666Y-64431333D01*
X95123000Y-64431333D01*
X95123000Y-64643000D01*
X95123000Y-64643000D01*
G37*
X95123000Y-64643000D02*
X94699666Y-64643000D01*
X94699666Y-64431333D01*
X95123000Y-64431333D01*
X95123000Y-64643000D01*
G36*
X95736833Y-65468500D02*
X95334666Y-65468500D01*
X95334666Y-65256833D01*
X95736833Y-65256833D01*
X95736833Y-65468500D01*
X95736833Y-65468500D01*
G37*
X95736833Y-65468500D02*
X95334666Y-65468500D01*
X95334666Y-65256833D01*
X95736833Y-65256833D01*
X95736833Y-65468500D01*
G36*
X95948500Y-65256833D02*
X95736833Y-65256833D01*
X95736833Y-64431333D01*
X95948500Y-64431333D01*
X95948500Y-65256833D01*
X95948500Y-65256833D01*
G37*
X95948500Y-65256833D02*
X95736833Y-65256833D01*
X95736833Y-64431333D01*
X95948500Y-64431333D01*
X95948500Y-65256833D01*
G36*
X95736833Y-64431333D02*
X95334666Y-64431333D01*
X95334666Y-64219666D01*
X95736833Y-64219666D01*
X95736833Y-64431333D01*
X95736833Y-64431333D01*
G37*
X95736833Y-64431333D02*
X95334666Y-64431333D01*
X95334666Y-64219666D01*
X95736833Y-64219666D01*
X95736833Y-64431333D01*
G36*
X78083833Y-65235666D02*
X76623333Y-65235666D01*
X76623333Y-65024000D01*
X78083833Y-65024000D01*
X78083833Y-65235666D01*
X78083833Y-65235666D01*
G37*
X78083833Y-65235666D02*
X76623333Y-65235666D01*
X76623333Y-65024000D01*
X78083833Y-65024000D01*
X78083833Y-65235666D01*
G36*
X77025500Y-63881000D02*
X77237166Y-63881000D01*
X77237166Y-64092666D01*
X77025500Y-64092666D01*
X77025500Y-64516000D01*
X77237166Y-64516000D01*
X77237166Y-64727666D01*
X76602166Y-64727666D01*
X76602166Y-64516000D01*
X76813833Y-64516000D01*
X76813833Y-63690500D01*
X77025500Y-63690500D01*
X77025500Y-63881000D01*
X77025500Y-63881000D01*
G37*
X77025500Y-63881000D02*
X77237166Y-63881000D01*
X77237166Y-64092666D01*
X77025500Y-64092666D01*
X77025500Y-64516000D01*
X77237166Y-64516000D01*
X77237166Y-64727666D01*
X76602166Y-64727666D01*
X76602166Y-64516000D01*
X76813833Y-64516000D01*
X76813833Y-63690500D01*
X77025500Y-63690500D01*
X77025500Y-63881000D01*
G36*
X77660500Y-64092666D02*
X77448833Y-64092666D01*
X77448833Y-63690500D01*
X77660500Y-63690500D01*
X77660500Y-64092666D01*
X77872166Y-64092666D01*
X77872166Y-63690500D01*
X77660500Y-63690500D01*
X77660500Y-63478833D01*
X78083833Y-63478833D01*
X78083833Y-64727666D01*
X77872166Y-64727666D01*
X77872166Y-64304333D01*
X77660500Y-64304333D01*
X77660500Y-64092666D01*
X77660500Y-64092666D01*
G37*
X77660500Y-64092666D02*
X77448833Y-64092666D01*
X77448833Y-63690500D01*
X77660500Y-63690500D01*
X77660500Y-64092666D01*
X77872166Y-64092666D01*
X77872166Y-63690500D01*
X77660500Y-63690500D01*
X77660500Y-63478833D01*
X78083833Y-63478833D01*
X78083833Y-64727666D01*
X77872166Y-64727666D01*
X77872166Y-64304333D01*
X77660500Y-64304333D01*
X77660500Y-64092666D01*
G36*
X77660500Y-64727666D02*
X77448833Y-64727666D01*
X77448833Y-64304333D01*
X77660500Y-64304333D01*
X77660500Y-64727666D01*
X77660500Y-64727666D01*
G37*
X77660500Y-64727666D02*
X77448833Y-64727666D01*
X77448833Y-64304333D01*
X77660500Y-64304333D01*
X77660500Y-64727666D01*
G36*
X82359500Y-58144833D02*
X81851500Y-58144833D01*
X81851500Y-59505504D01*
X82126666Y-59796625D01*
X82401833Y-60087746D01*
X82401833Y-61860194D01*
X82126666Y-62134750D01*
X81851500Y-62409305D01*
X81851500Y-63923333D01*
X82359500Y-63923333D01*
X82359500Y-64113833D01*
X81639833Y-64113833D01*
X81639833Y-62317842D01*
X82211333Y-61776882D01*
X82211333Y-60181477D01*
X81641467Y-59573583D01*
X81639833Y-57954333D01*
X82359500Y-57954333D01*
X82359500Y-58144833D01*
X82359500Y-58144833D01*
G37*
X82359500Y-58144833D02*
X81851500Y-58144833D01*
X81851500Y-59505504D01*
X82126666Y-59796625D01*
X82401833Y-60087746D01*
X82401833Y-61860194D01*
X82126666Y-62134750D01*
X81851500Y-62409305D01*
X81851500Y-63923333D01*
X82359500Y-63923333D01*
X82359500Y-64113833D01*
X81639833Y-64113833D01*
X81639833Y-62317842D01*
X82211333Y-61776882D01*
X82211333Y-60181477D01*
X81641467Y-59573583D01*
X81639833Y-57954333D01*
X82359500Y-57954333D01*
X82359500Y-58144833D01*
G36*
X92223166Y-64113833D02*
X91567000Y-64113833D01*
X91567000Y-63923333D01*
X92032817Y-63923333D01*
X92027450Y-61039375D01*
X92022083Y-58155416D01*
X91762791Y-58149473D01*
X91503500Y-58143530D01*
X91503500Y-57954333D01*
X92223166Y-57954333D01*
X92223166Y-64113833D01*
X92223166Y-64113833D01*
G37*
X92223166Y-64113833D02*
X91567000Y-64113833D01*
X91567000Y-63923333D01*
X92032817Y-63923333D01*
X92027450Y-61039375D01*
X92022083Y-58155416D01*
X91762791Y-58149473D01*
X91503500Y-58143530D01*
X91503500Y-57954333D01*
X92223166Y-57954333D01*
X92223166Y-64113833D01*
G36*
X82507666Y-63034333D02*
X82509703Y-63088526D01*
X82523960Y-63112607D01*
X82562659Y-63118796D01*
X82592333Y-63119000D01*
X82646526Y-63121036D01*
X82670607Y-63135294D01*
X82676796Y-63173992D01*
X82677000Y-63203666D01*
X82674963Y-63257860D01*
X82660705Y-63281941D01*
X82622007Y-63288129D01*
X82592333Y-63288333D01*
X82507666Y-63288333D01*
X82507666Y-63478833D01*
X82592333Y-63478833D01*
X82646526Y-63480870D01*
X82670607Y-63495127D01*
X82676796Y-63533825D01*
X82677000Y-63563500D01*
X82677000Y-63648166D01*
X82511194Y-63648166D01*
X82431108Y-63646478D01*
X82368240Y-63642005D01*
X82333893Y-63635633D01*
X82331277Y-63634055D01*
X82321519Y-63604945D01*
X82317180Y-63553727D01*
X82317166Y-63550666D01*
X82313499Y-63504904D01*
X82294152Y-63483860D01*
X82246608Y-63475575D01*
X82237791Y-63474819D01*
X82186934Y-63468014D01*
X82164358Y-63450198D01*
X82158589Y-63408182D01*
X82158416Y-63383583D01*
X82160850Y-63329134D01*
X82175800Y-63303816D01*
X82214743Y-63294439D01*
X82237791Y-63292347D01*
X82288921Y-63285438D01*
X82311419Y-63267323D01*
X82317023Y-63224697D01*
X82317166Y-63202388D01*
X82315075Y-63149013D01*
X82300655Y-63125295D01*
X82261685Y-63119200D01*
X82232500Y-63119000D01*
X82178306Y-63116963D01*
X82154225Y-63102705D01*
X82148036Y-63064007D01*
X82147833Y-63034333D01*
X82147833Y-62949666D01*
X82507666Y-62949666D01*
X82507666Y-63034333D01*
X82507666Y-63034333D01*
G37*
X82507666Y-63034333D02*
X82509703Y-63088526D01*
X82523960Y-63112607D01*
X82562659Y-63118796D01*
X82592333Y-63119000D01*
X82646526Y-63121036D01*
X82670607Y-63135294D01*
X82676796Y-63173992D01*
X82677000Y-63203666D01*
X82674963Y-63257860D01*
X82660705Y-63281941D01*
X82622007Y-63288129D01*
X82592333Y-63288333D01*
X82507666Y-63288333D01*
X82507666Y-63478833D01*
X82592333Y-63478833D01*
X82646526Y-63480870D01*
X82670607Y-63495127D01*
X82676796Y-63533825D01*
X82677000Y-63563500D01*
X82677000Y-63648166D01*
X82511194Y-63648166D01*
X82431108Y-63646478D01*
X82368240Y-63642005D01*
X82333893Y-63635633D01*
X82331277Y-63634055D01*
X82321519Y-63604945D01*
X82317180Y-63553727D01*
X82317166Y-63550666D01*
X82313499Y-63504904D01*
X82294152Y-63483860D01*
X82246608Y-63475575D01*
X82237791Y-63474819D01*
X82186934Y-63468014D01*
X82164358Y-63450198D01*
X82158589Y-63408182D01*
X82158416Y-63383583D01*
X82160850Y-63329134D01*
X82175800Y-63303816D01*
X82214743Y-63294439D01*
X82237791Y-63292347D01*
X82288921Y-63285438D01*
X82311419Y-63267323D01*
X82317023Y-63224697D01*
X82317166Y-63202388D01*
X82315075Y-63149013D01*
X82300655Y-63125295D01*
X82261685Y-63119200D01*
X82232500Y-63119000D01*
X82178306Y-63116963D01*
X82154225Y-63102705D01*
X82148036Y-63064007D01*
X82147833Y-63034333D01*
X82147833Y-62949666D01*
X82507666Y-62949666D01*
X82507666Y-63034333D01*
G36*
X83185000Y-63034333D02*
X83187036Y-63088526D01*
X83201294Y-63112607D01*
X83239992Y-63118796D01*
X83269666Y-63119000D01*
X83354333Y-63119000D01*
X83354333Y-63478833D01*
X83269666Y-63478833D01*
X83215473Y-63480870D01*
X83191392Y-63495127D01*
X83185203Y-63533825D01*
X83185000Y-63563500D01*
X83185000Y-63648166D01*
X82846333Y-63648166D01*
X82846333Y-63478833D01*
X83185000Y-63478833D01*
X83185000Y-63288333D01*
X82846333Y-63288333D01*
X82846333Y-62949666D01*
X83185000Y-62949666D01*
X83185000Y-63034333D01*
X83185000Y-63034333D01*
G37*
X83185000Y-63034333D02*
X83187036Y-63088526D01*
X83201294Y-63112607D01*
X83239992Y-63118796D01*
X83269666Y-63119000D01*
X83354333Y-63119000D01*
X83354333Y-63478833D01*
X83269666Y-63478833D01*
X83215473Y-63480870D01*
X83191392Y-63495127D01*
X83185203Y-63533825D01*
X83185000Y-63563500D01*
X83185000Y-63648166D01*
X82846333Y-63648166D01*
X82846333Y-63478833D01*
X83185000Y-63478833D01*
X83185000Y-63288333D01*
X82846333Y-63288333D01*
X82846333Y-62949666D01*
X83185000Y-62949666D01*
X83185000Y-63034333D01*
G36*
X84052833Y-63648166D02*
X83885212Y-63648166D01*
X83872916Y-63298916D01*
X83793541Y-63292347D01*
X83742411Y-63285438D01*
X83719914Y-63267323D01*
X83714309Y-63224697D01*
X83714166Y-63202388D01*
X83714166Y-63119000D01*
X83521111Y-63119000D01*
X83527680Y-63039625D01*
X83534485Y-62988767D01*
X83552301Y-62966192D01*
X83594317Y-62960422D01*
X83618916Y-62960250D01*
X83673365Y-62962683D01*
X83698683Y-62977634D01*
X83708060Y-63016576D01*
X83710152Y-63039625D01*
X83717061Y-63090755D01*
X83735176Y-63113252D01*
X83777802Y-63118856D01*
X83800111Y-63119000D01*
X83853486Y-63116908D01*
X83877204Y-63102488D01*
X83883299Y-63063519D01*
X83883500Y-63034333D01*
X83885536Y-62980139D01*
X83899794Y-62956058D01*
X83938492Y-62949870D01*
X83968166Y-62949666D01*
X84052833Y-62949666D01*
X84052833Y-63648166D01*
X84052833Y-63648166D01*
G37*
X84052833Y-63648166D02*
X83885212Y-63648166D01*
X83872916Y-63298916D01*
X83793541Y-63292347D01*
X83742411Y-63285438D01*
X83719914Y-63267323D01*
X83714309Y-63224697D01*
X83714166Y-63202388D01*
X83714166Y-63119000D01*
X83521111Y-63119000D01*
X83527680Y-63039625D01*
X83534485Y-62988767D01*
X83552301Y-62966192D01*
X83594317Y-62960422D01*
X83618916Y-62960250D01*
X83673365Y-62962683D01*
X83698683Y-62977634D01*
X83708060Y-63016576D01*
X83710152Y-63039625D01*
X83717061Y-63090755D01*
X83735176Y-63113252D01*
X83777802Y-63118856D01*
X83800111Y-63119000D01*
X83853486Y-63116908D01*
X83877204Y-63102488D01*
X83883299Y-63063519D01*
X83883500Y-63034333D01*
X83885536Y-62980139D01*
X83899794Y-62956058D01*
X83938492Y-62949870D01*
X83968166Y-62949666D01*
X84052833Y-62949666D01*
X84052833Y-63648166D01*
G36*
X85301666Y-62949666D02*
X84963000Y-62949666D01*
X84963000Y-63034333D01*
X84965036Y-63088526D01*
X84979294Y-63112607D01*
X85017992Y-63118796D01*
X85047666Y-63119000D01*
X85101860Y-63121036D01*
X85125941Y-63135294D01*
X85132129Y-63173992D01*
X85132333Y-63203666D01*
X85130296Y-63257860D01*
X85116039Y-63281941D01*
X85077340Y-63288129D01*
X85047666Y-63288333D01*
X84963000Y-63288333D01*
X84963000Y-63478833D01*
X85301666Y-63478833D01*
X85301666Y-63648166D01*
X84963000Y-63648166D01*
X84963000Y-63563500D01*
X84960963Y-63509306D01*
X84946705Y-63485225D01*
X84908007Y-63479036D01*
X84878333Y-63478833D01*
X84793666Y-63478833D01*
X84793666Y-63288333D01*
X84878333Y-63288333D01*
X84932526Y-63286296D01*
X84956607Y-63272039D01*
X84962796Y-63233340D01*
X84963000Y-63203666D01*
X84960963Y-63149473D01*
X84946705Y-63125392D01*
X84908007Y-63119203D01*
X84878333Y-63119000D01*
X84824139Y-63116963D01*
X84800058Y-63102705D01*
X84793870Y-63064007D01*
X84793666Y-63034333D01*
X84795703Y-62980139D01*
X84809960Y-62956058D01*
X84848659Y-62949870D01*
X84878333Y-62949666D01*
X84932526Y-62947629D01*
X84956607Y-62933372D01*
X84962796Y-62894674D01*
X84963000Y-62865000D01*
X84963000Y-62780333D01*
X85301666Y-62780333D01*
X85301666Y-62949666D01*
X85301666Y-62949666D01*
G37*
X85301666Y-62949666D02*
X84963000Y-62949666D01*
X84963000Y-63034333D01*
X84965036Y-63088526D01*
X84979294Y-63112607D01*
X85017992Y-63118796D01*
X85047666Y-63119000D01*
X85101860Y-63121036D01*
X85125941Y-63135294D01*
X85132129Y-63173992D01*
X85132333Y-63203666D01*
X85130296Y-63257860D01*
X85116039Y-63281941D01*
X85077340Y-63288129D01*
X85047666Y-63288333D01*
X84963000Y-63288333D01*
X84963000Y-63478833D01*
X85301666Y-63478833D01*
X85301666Y-63648166D01*
X84963000Y-63648166D01*
X84963000Y-63563500D01*
X84960963Y-63509306D01*
X84946705Y-63485225D01*
X84908007Y-63479036D01*
X84878333Y-63478833D01*
X84793666Y-63478833D01*
X84793666Y-63288333D01*
X84878333Y-63288333D01*
X84932526Y-63286296D01*
X84956607Y-63272039D01*
X84962796Y-63233340D01*
X84963000Y-63203666D01*
X84960963Y-63149473D01*
X84946705Y-63125392D01*
X84908007Y-63119203D01*
X84878333Y-63119000D01*
X84824139Y-63116963D01*
X84800058Y-63102705D01*
X84793870Y-63064007D01*
X84793666Y-63034333D01*
X84795703Y-62980139D01*
X84809960Y-62956058D01*
X84848659Y-62949870D01*
X84878333Y-62949666D01*
X84932526Y-62947629D01*
X84956607Y-62933372D01*
X84962796Y-62894674D01*
X84963000Y-62865000D01*
X84963000Y-62780333D01*
X85301666Y-62780333D01*
X85301666Y-62949666D01*
G36*
X86000166Y-63648166D02*
X85661500Y-63648166D01*
X85661500Y-63563500D01*
X85659463Y-63509306D01*
X85645205Y-63485225D01*
X85606507Y-63479036D01*
X85576833Y-63478833D01*
X85492166Y-63478833D01*
X85492166Y-63119000D01*
X85576833Y-63119000D01*
X85661500Y-63119000D01*
X85661500Y-63481388D01*
X85820250Y-63468250D01*
X85826397Y-63293625D01*
X85832545Y-63119000D01*
X85661500Y-63119000D01*
X85576833Y-63119000D01*
X85631026Y-63116963D01*
X85655107Y-63102705D01*
X85661296Y-63064007D01*
X85661500Y-63034333D01*
X85659463Y-62980139D01*
X85645205Y-62956058D01*
X85606507Y-62949870D01*
X85576833Y-62949666D01*
X85522639Y-62947629D01*
X85498558Y-62933372D01*
X85492370Y-62894674D01*
X85492166Y-62865000D01*
X85661500Y-62865000D01*
X85663536Y-62919193D01*
X85677794Y-62943274D01*
X85716492Y-62949463D01*
X85746166Y-62949666D01*
X85800360Y-62947629D01*
X85824441Y-62933372D01*
X85830629Y-62894674D01*
X85830833Y-62865000D01*
X85828796Y-62810806D01*
X85814539Y-62786725D01*
X85775840Y-62780536D01*
X85746166Y-62780333D01*
X85691973Y-62782370D01*
X85667892Y-62796627D01*
X85661703Y-62835325D01*
X85661500Y-62865000D01*
X85492166Y-62865000D01*
X85494203Y-62810806D01*
X85508460Y-62786725D01*
X85547159Y-62780536D01*
X85576833Y-62780333D01*
X85631026Y-62778296D01*
X85655107Y-62764039D01*
X85661296Y-62725340D01*
X85661500Y-62695666D01*
X85661500Y-62611000D01*
X86000166Y-62611000D01*
X86000166Y-63648166D01*
X86000166Y-63648166D01*
G37*
X86000166Y-63648166D02*
X85661500Y-63648166D01*
X85661500Y-63563500D01*
X85659463Y-63509306D01*
X85645205Y-63485225D01*
X85606507Y-63479036D01*
X85576833Y-63478833D01*
X85492166Y-63478833D01*
X85492166Y-63119000D01*
X85576833Y-63119000D01*
X85661500Y-63119000D01*
X85661500Y-63481388D01*
X85820250Y-63468250D01*
X85826397Y-63293625D01*
X85832545Y-63119000D01*
X85661500Y-63119000D01*
X85576833Y-63119000D01*
X85631026Y-63116963D01*
X85655107Y-63102705D01*
X85661296Y-63064007D01*
X85661500Y-63034333D01*
X85659463Y-62980139D01*
X85645205Y-62956058D01*
X85606507Y-62949870D01*
X85576833Y-62949666D01*
X85522639Y-62947629D01*
X85498558Y-62933372D01*
X85492370Y-62894674D01*
X85492166Y-62865000D01*
X85661500Y-62865000D01*
X85663536Y-62919193D01*
X85677794Y-62943274D01*
X85716492Y-62949463D01*
X85746166Y-62949666D01*
X85800360Y-62947629D01*
X85824441Y-62933372D01*
X85830629Y-62894674D01*
X85830833Y-62865000D01*
X85828796Y-62810806D01*
X85814539Y-62786725D01*
X85775840Y-62780536D01*
X85746166Y-62780333D01*
X85691973Y-62782370D01*
X85667892Y-62796627D01*
X85661703Y-62835325D01*
X85661500Y-62865000D01*
X85492166Y-62865000D01*
X85494203Y-62810806D01*
X85508460Y-62786725D01*
X85547159Y-62780536D01*
X85576833Y-62780333D01*
X85631026Y-62778296D01*
X85655107Y-62764039D01*
X85661296Y-62725340D01*
X85661500Y-62695666D01*
X85661500Y-62611000D01*
X86000166Y-62611000D01*
X86000166Y-63648166D01*
G36*
X86677500Y-63648166D02*
X86606944Y-63648166D01*
X86554643Y-63644294D01*
X86523233Y-63634888D01*
X86522277Y-63634055D01*
X86515605Y-63607548D01*
X86510635Y-63550019D01*
X86508254Y-63472770D01*
X86508166Y-63454138D01*
X86508166Y-63288333D01*
X86423500Y-63288333D01*
X86369306Y-63286296D01*
X86345225Y-63272039D01*
X86339036Y-63233340D01*
X86338833Y-63203666D01*
X86336796Y-63149473D01*
X86322539Y-63125392D01*
X86283840Y-63119203D01*
X86254166Y-63119000D01*
X86169500Y-63119000D01*
X86169500Y-62780333D01*
X86254166Y-62780333D01*
X86338833Y-62780333D01*
X86338833Y-63119000D01*
X86508166Y-63119000D01*
X86508166Y-62780333D01*
X86338833Y-62780333D01*
X86254166Y-62780333D01*
X86308360Y-62778296D01*
X86332441Y-62764039D01*
X86338629Y-62725340D01*
X86338833Y-62695666D01*
X86338833Y-62611000D01*
X86677500Y-62611000D01*
X86677500Y-63648166D01*
X86677500Y-63648166D01*
G37*
X86677500Y-63648166D02*
X86606944Y-63648166D01*
X86554643Y-63644294D01*
X86523233Y-63634888D01*
X86522277Y-63634055D01*
X86515605Y-63607548D01*
X86510635Y-63550019D01*
X86508254Y-63472770D01*
X86508166Y-63454138D01*
X86508166Y-63288333D01*
X86423500Y-63288333D01*
X86369306Y-63286296D01*
X86345225Y-63272039D01*
X86339036Y-63233340D01*
X86338833Y-63203666D01*
X86336796Y-63149473D01*
X86322539Y-63125392D01*
X86283840Y-63119203D01*
X86254166Y-63119000D01*
X86169500Y-63119000D01*
X86169500Y-62780333D01*
X86254166Y-62780333D01*
X86338833Y-62780333D01*
X86338833Y-63119000D01*
X86508166Y-63119000D01*
X86508166Y-62780333D01*
X86338833Y-62780333D01*
X86254166Y-62780333D01*
X86308360Y-62778296D01*
X86332441Y-62764039D01*
X86338629Y-62725340D01*
X86338833Y-62695666D01*
X86338833Y-62611000D01*
X86677500Y-62611000D01*
X86677500Y-63648166D01*
G36*
X87493693Y-62782370D02*
X87517774Y-62796627D01*
X87523963Y-62835325D01*
X87524166Y-62865000D01*
X87526203Y-62919193D01*
X87540460Y-62943274D01*
X87579159Y-62949463D01*
X87608833Y-62949666D01*
X87663026Y-62951703D01*
X87687107Y-62965960D01*
X87693296Y-63004659D01*
X87693500Y-63034333D01*
X87695536Y-63088526D01*
X87709794Y-63112607D01*
X87748492Y-63118796D01*
X87778166Y-63119000D01*
X87862833Y-63119000D01*
X87862833Y-63478833D01*
X87524166Y-63478833D01*
X87524166Y-63563500D01*
X87522129Y-63617693D01*
X87507872Y-63641774D01*
X87469174Y-63647963D01*
X87439500Y-63648166D01*
X87354833Y-63648166D01*
X87354833Y-63203666D01*
X87524166Y-63203666D01*
X87526203Y-63257860D01*
X87540460Y-63281941D01*
X87579159Y-63288129D01*
X87608833Y-63288333D01*
X87663026Y-63286296D01*
X87687107Y-63272039D01*
X87693296Y-63233340D01*
X87693500Y-63203666D01*
X87691463Y-63149473D01*
X87677205Y-63125392D01*
X87638507Y-63119203D01*
X87608833Y-63119000D01*
X87554639Y-63121036D01*
X87530558Y-63135294D01*
X87524370Y-63173992D01*
X87524166Y-63203666D01*
X87354833Y-63203666D01*
X87354833Y-62780333D01*
X87439500Y-62780333D01*
X87493693Y-62782370D01*
X87493693Y-62782370D01*
G37*
X87493693Y-62782370D02*
X87517774Y-62796627D01*
X87523963Y-62835325D01*
X87524166Y-62865000D01*
X87526203Y-62919193D01*
X87540460Y-62943274D01*
X87579159Y-62949463D01*
X87608833Y-62949666D01*
X87663026Y-62951703D01*
X87687107Y-62965960D01*
X87693296Y-63004659D01*
X87693500Y-63034333D01*
X87695536Y-63088526D01*
X87709794Y-63112607D01*
X87748492Y-63118796D01*
X87778166Y-63119000D01*
X87862833Y-63119000D01*
X87862833Y-63478833D01*
X87524166Y-63478833D01*
X87524166Y-63563500D01*
X87522129Y-63617693D01*
X87507872Y-63641774D01*
X87469174Y-63647963D01*
X87439500Y-63648166D01*
X87354833Y-63648166D01*
X87354833Y-63203666D01*
X87524166Y-63203666D01*
X87526203Y-63257860D01*
X87540460Y-63281941D01*
X87579159Y-63288129D01*
X87608833Y-63288333D01*
X87663026Y-63286296D01*
X87687107Y-63272039D01*
X87693296Y-63233340D01*
X87693500Y-63203666D01*
X87691463Y-63149473D01*
X87677205Y-63125392D01*
X87638507Y-63119203D01*
X87608833Y-63119000D01*
X87554639Y-63121036D01*
X87530558Y-63135294D01*
X87524370Y-63173992D01*
X87524166Y-63203666D01*
X87354833Y-63203666D01*
X87354833Y-62780333D01*
X87439500Y-62780333D01*
X87493693Y-62782370D01*
G36*
X88556417Y-63124291D02*
X88550750Y-63637583D01*
X88376125Y-63643731D01*
X88201500Y-63649878D01*
X88201500Y-63478833D01*
X88032166Y-63478833D01*
X88032166Y-63119000D01*
X88116833Y-63119000D01*
X88201500Y-63119000D01*
X88201500Y-63478833D01*
X88370833Y-63478833D01*
X88370833Y-63119000D01*
X88201500Y-63119000D01*
X88116833Y-63119000D01*
X88171026Y-63116963D01*
X88195107Y-63102705D01*
X88201296Y-63064007D01*
X88201500Y-63034333D01*
X88199463Y-62980139D01*
X88185205Y-62956058D01*
X88146507Y-62949870D01*
X88116833Y-62949666D01*
X88062639Y-62947629D01*
X88038558Y-62933372D01*
X88032370Y-62894674D01*
X88032166Y-62865000D01*
X88201500Y-62865000D01*
X88203536Y-62919193D01*
X88217794Y-62943274D01*
X88256492Y-62949463D01*
X88286166Y-62949666D01*
X88340360Y-62947629D01*
X88364441Y-62933372D01*
X88370629Y-62894674D01*
X88370833Y-62865000D01*
X88368796Y-62810806D01*
X88354539Y-62786725D01*
X88315840Y-62780536D01*
X88286166Y-62780333D01*
X88231973Y-62782370D01*
X88207892Y-62796627D01*
X88201703Y-62835325D01*
X88201500Y-62865000D01*
X88032166Y-62865000D01*
X88034203Y-62810806D01*
X88048460Y-62786725D01*
X88087159Y-62780536D01*
X88116833Y-62780333D01*
X88171026Y-62778296D01*
X88195107Y-62764039D01*
X88201296Y-62725340D01*
X88201500Y-62695666D01*
X88201500Y-62611000D01*
X88562085Y-62611000D01*
X88556417Y-63124291D01*
X88556417Y-63124291D01*
G37*
X88556417Y-63124291D02*
X88550750Y-63637583D01*
X88376125Y-63643731D01*
X88201500Y-63649878D01*
X88201500Y-63478833D01*
X88032166Y-63478833D01*
X88032166Y-63119000D01*
X88116833Y-63119000D01*
X88201500Y-63119000D01*
X88201500Y-63478833D01*
X88370833Y-63478833D01*
X88370833Y-63119000D01*
X88201500Y-63119000D01*
X88116833Y-63119000D01*
X88171026Y-63116963D01*
X88195107Y-63102705D01*
X88201296Y-63064007D01*
X88201500Y-63034333D01*
X88199463Y-62980139D01*
X88185205Y-62956058D01*
X88146507Y-62949870D01*
X88116833Y-62949666D01*
X88062639Y-62947629D01*
X88038558Y-62933372D01*
X88032370Y-62894674D01*
X88032166Y-62865000D01*
X88201500Y-62865000D01*
X88203536Y-62919193D01*
X88217794Y-62943274D01*
X88256492Y-62949463D01*
X88286166Y-62949666D01*
X88340360Y-62947629D01*
X88364441Y-62933372D01*
X88370629Y-62894674D01*
X88370833Y-62865000D01*
X88368796Y-62810806D01*
X88354539Y-62786725D01*
X88315840Y-62780536D01*
X88286166Y-62780333D01*
X88231973Y-62782370D01*
X88207892Y-62796627D01*
X88201703Y-62835325D01*
X88201500Y-62865000D01*
X88032166Y-62865000D01*
X88034203Y-62810806D01*
X88048460Y-62786725D01*
X88087159Y-62780536D01*
X88116833Y-62780333D01*
X88171026Y-62778296D01*
X88195107Y-62764039D01*
X88201296Y-62725340D01*
X88201500Y-62695666D01*
X88201500Y-62611000D01*
X88562085Y-62611000D01*
X88556417Y-63124291D01*
G36*
X89238666Y-63648166D02*
X89069333Y-63648166D01*
X89069333Y-63288333D01*
X88984666Y-63288333D01*
X88930473Y-63286296D01*
X88906392Y-63272039D01*
X88900203Y-63233340D01*
X88900000Y-63203666D01*
X88897963Y-63149473D01*
X88883705Y-63125392D01*
X88845007Y-63119203D01*
X88815333Y-63119000D01*
X88730666Y-63119000D01*
X88730666Y-62780333D01*
X88815333Y-62780333D01*
X88900000Y-62780333D01*
X88900000Y-63119000D01*
X89069333Y-63119000D01*
X89069333Y-62780333D01*
X88900000Y-62780333D01*
X88815333Y-62780333D01*
X88869526Y-62778296D01*
X88893607Y-62764039D01*
X88899796Y-62725340D01*
X88900000Y-62695666D01*
X88900000Y-62611000D01*
X89238666Y-62611000D01*
X89238666Y-63648166D01*
X89238666Y-63648166D01*
G37*
X89238666Y-63648166D02*
X89069333Y-63648166D01*
X89069333Y-63288333D01*
X88984666Y-63288333D01*
X88930473Y-63286296D01*
X88906392Y-63272039D01*
X88900203Y-63233340D01*
X88900000Y-63203666D01*
X88897963Y-63149473D01*
X88883705Y-63125392D01*
X88845007Y-63119203D01*
X88815333Y-63119000D01*
X88730666Y-63119000D01*
X88730666Y-62780333D01*
X88815333Y-62780333D01*
X88900000Y-62780333D01*
X88900000Y-63119000D01*
X89069333Y-63119000D01*
X89069333Y-62780333D01*
X88900000Y-62780333D01*
X88815333Y-62780333D01*
X88869526Y-62778296D01*
X88893607Y-62764039D01*
X88899796Y-62725340D01*
X88900000Y-62695666D01*
X88900000Y-62611000D01*
X89238666Y-62611000D01*
X89238666Y-63648166D01*
G36*
X90376751Y-63124291D02*
X90371083Y-63637583D01*
X90211381Y-63643687D01*
X90132734Y-63644771D01*
X90071254Y-63642043D01*
X90038551Y-63636088D01*
X90036756Y-63634867D01*
X90026426Y-63605139D01*
X90021846Y-63553583D01*
X90021833Y-63550666D01*
X90018166Y-63504904D01*
X89998819Y-63483860D01*
X89951275Y-63475575D01*
X89942458Y-63474819D01*
X89863083Y-63468250D01*
X89857267Y-63124291D01*
X89851451Y-62780333D01*
X90021833Y-62780333D01*
X90021833Y-63478833D01*
X90191166Y-63478833D01*
X90191166Y-62780333D01*
X90021833Y-62780333D01*
X90021833Y-62611000D01*
X90382419Y-62611000D01*
X90376751Y-63124291D01*
X90376751Y-63124291D01*
G37*
X90376751Y-63124291D02*
X90371083Y-63637583D01*
X90211381Y-63643687D01*
X90132734Y-63644771D01*
X90071254Y-63642043D01*
X90038551Y-63636088D01*
X90036756Y-63634867D01*
X90026426Y-63605139D01*
X90021846Y-63553583D01*
X90021833Y-63550666D01*
X90018166Y-63504904D01*
X89998819Y-63483860D01*
X89951275Y-63475575D01*
X89942458Y-63474819D01*
X89863083Y-63468250D01*
X89857267Y-63124291D01*
X89851451Y-62780333D01*
X90021833Y-62780333D01*
X90021833Y-63478833D01*
X90191166Y-63478833D01*
X90191166Y-62780333D01*
X90021833Y-62780333D01*
X90021833Y-62611000D01*
X90382419Y-62611000D01*
X90376751Y-63124291D01*
G36*
X91059000Y-63648166D02*
X90889666Y-63648166D01*
X90889666Y-62780333D01*
X90720333Y-62780333D01*
X90720333Y-63648166D01*
X90551000Y-63648166D01*
X90551000Y-62780333D01*
X90635666Y-62780333D01*
X90689860Y-62778296D01*
X90713941Y-62764039D01*
X90720129Y-62725340D01*
X90720333Y-62695666D01*
X90720333Y-62611000D01*
X91059000Y-62611000D01*
X91059000Y-63648166D01*
X91059000Y-63648166D01*
G37*
X91059000Y-63648166D02*
X90889666Y-63648166D01*
X90889666Y-62780333D01*
X90720333Y-62780333D01*
X90720333Y-63648166D01*
X90551000Y-63648166D01*
X90551000Y-62780333D01*
X90635666Y-62780333D01*
X90689860Y-62778296D01*
X90713941Y-62764039D01*
X90720129Y-62725340D01*
X90720333Y-62695666D01*
X90720333Y-62611000D01*
X91059000Y-62611000D01*
X91059000Y-63648166D01*
G36*
X91752732Y-63124291D02*
X91746916Y-63468250D01*
X91668747Y-63474747D01*
X91616813Y-63482626D01*
X91593410Y-63503690D01*
X91584740Y-63551739D01*
X91584080Y-63559414D01*
X91577583Y-63637583D01*
X91402299Y-63643741D01*
X91227016Y-63649900D01*
X91232966Y-63389741D01*
X91238916Y-63129583D01*
X91317415Y-63123066D01*
X91395915Y-63116548D01*
X91402082Y-63292399D01*
X91408250Y-63468250D01*
X91498208Y-63474758D01*
X91588166Y-63481267D01*
X91588166Y-62780333D01*
X91758548Y-62780333D01*
X91752732Y-63124291D01*
X91752732Y-63124291D01*
G37*
X91752732Y-63124291D02*
X91746916Y-63468250D01*
X91668747Y-63474747D01*
X91616813Y-63482626D01*
X91593410Y-63503690D01*
X91584740Y-63551739D01*
X91584080Y-63559414D01*
X91577583Y-63637583D01*
X91402299Y-63643741D01*
X91227016Y-63649900D01*
X91232966Y-63389741D01*
X91238916Y-63129583D01*
X91317415Y-63123066D01*
X91395915Y-63116548D01*
X91402082Y-63292399D01*
X91408250Y-63468250D01*
X91498208Y-63474758D01*
X91588166Y-63481267D01*
X91588166Y-62780333D01*
X91758548Y-62780333D01*
X91752732Y-63124291D01*
G36*
X91588166Y-62780333D02*
X91228333Y-62780333D01*
X91228333Y-62611000D01*
X91588166Y-62611000D01*
X91588166Y-62780333D01*
X91588166Y-62780333D01*
G37*
X91588166Y-62780333D02*
X91228333Y-62780333D01*
X91228333Y-62611000D01*
X91588166Y-62611000D01*
X91588166Y-62780333D01*
G36*
X78083833Y-63119000D02*
X76623333Y-63119000D01*
X76623333Y-62907333D01*
X78083833Y-62907333D01*
X78083833Y-63119000D01*
X78083833Y-63119000D01*
G37*
X78083833Y-63119000D02*
X76623333Y-63119000D01*
X76623333Y-62907333D01*
X78083833Y-62907333D01*
X78083833Y-63119000D01*
G36*
X97282000Y-61150500D02*
X95800333Y-61150500D01*
X95800333Y-60938833D01*
X97282000Y-60938833D01*
X97282000Y-61150500D01*
X97282000Y-61150500D01*
G37*
X97282000Y-61150500D02*
X95800333Y-61150500D01*
X95800333Y-60938833D01*
X97282000Y-60938833D01*
X97282000Y-61150500D01*
G36*
X96266000Y-60579000D02*
X96054333Y-60579000D01*
X96054333Y-59944000D01*
X96266000Y-59944000D01*
X96266000Y-60579000D01*
X96266000Y-60579000D01*
G37*
X96266000Y-60579000D02*
X96054333Y-60579000D01*
X96054333Y-59944000D01*
X96266000Y-59944000D01*
X96266000Y-60579000D01*
G36*
X96154875Y-59525392D02*
X96467083Y-59531250D01*
X96473534Y-59631791D01*
X96479986Y-59732333D01*
X96054333Y-59732333D01*
X96054333Y-59944000D01*
X95842666Y-59944000D01*
X95842666Y-59519534D01*
X96154875Y-59525392D01*
X96154875Y-59525392D01*
G37*
X96154875Y-59525392D02*
X96467083Y-59531250D01*
X96473534Y-59631791D01*
X96479986Y-59732333D01*
X96054333Y-59732333D01*
X96054333Y-59944000D01*
X95842666Y-59944000D01*
X95842666Y-59519534D01*
X96154875Y-59525392D01*
G36*
X96879833Y-59944000D02*
X96689333Y-59944000D01*
X96689333Y-59520666D01*
X96879833Y-59520666D01*
X96879833Y-59944000D01*
X97091500Y-59944000D01*
X97091500Y-59520666D01*
X96879833Y-59520666D01*
X96879833Y-59330166D01*
X97303166Y-59330166D01*
X97303166Y-60579000D01*
X97091500Y-60579000D01*
X97091500Y-60155666D01*
X96879833Y-60155666D01*
X96879833Y-59944000D01*
X96879833Y-59944000D01*
G37*
X96879833Y-59944000D02*
X96689333Y-59944000D01*
X96689333Y-59520666D01*
X96879833Y-59520666D01*
X96879833Y-59944000D01*
X97091500Y-59944000D01*
X97091500Y-59520666D01*
X96879833Y-59520666D01*
X96879833Y-59330166D01*
X97303166Y-59330166D01*
X97303166Y-60579000D01*
X97091500Y-60579000D01*
X97091500Y-60155666D01*
X96879833Y-60155666D01*
X96879833Y-59944000D01*
G36*
X96879833Y-60579000D02*
X96689333Y-60579000D01*
X96689333Y-60155666D01*
X96879833Y-60155666D01*
X96879833Y-60579000D01*
X96879833Y-60579000D01*
G37*
X96879833Y-60579000D02*
X96689333Y-60579000D01*
X96689333Y-60155666D01*
X96879833Y-60155666D01*
X96879833Y-60579000D01*
G36*
X74168000Y-59795833D02*
X73955784Y-59795833D01*
X73961350Y-59060291D01*
X73966916Y-58324750D01*
X74067458Y-58318298D01*
X74168000Y-58311847D01*
X74168000Y-59795833D01*
X74168000Y-59795833D01*
G37*
X74168000Y-59795833D02*
X73955784Y-59795833D01*
X73961350Y-59060291D01*
X73966916Y-58324750D01*
X74067458Y-58318298D01*
X74168000Y-58311847D01*
X74168000Y-59795833D01*
G36*
X77110166Y-59795833D02*
X76898500Y-59795833D01*
X76898500Y-58314166D01*
X77110166Y-58314166D01*
X77110166Y-59795833D01*
X77110166Y-59795833D01*
G37*
X77110166Y-59795833D02*
X76898500Y-59795833D01*
X76898500Y-58314166D01*
X77110166Y-58314166D01*
X77110166Y-59795833D01*
G36*
X77956833Y-59795833D02*
X77766333Y-59795833D01*
X77766333Y-58314166D01*
X77956833Y-58314166D01*
X77956833Y-59795833D01*
X77956833Y-59795833D01*
G37*
X77956833Y-59795833D02*
X77766333Y-59795833D01*
X77766333Y-58314166D01*
X77956833Y-58314166D01*
X77956833Y-59795833D01*
G36*
X80899000Y-59795833D02*
X80803085Y-59795833D01*
X80737956Y-59790149D01*
X80700872Y-59774900D01*
X80696960Y-59769224D01*
X80694686Y-59742360D01*
X80692917Y-59678309D01*
X80691686Y-59582215D01*
X80691024Y-59459223D01*
X80690965Y-59314477D01*
X80691540Y-59153122D01*
X80692333Y-59033682D01*
X80697916Y-58324750D01*
X80798458Y-58318298D01*
X80899000Y-58311847D01*
X80899000Y-59795833D01*
X80899000Y-59795833D01*
G37*
X80899000Y-59795833D02*
X80803085Y-59795833D01*
X80737956Y-59790149D01*
X80700872Y-59774900D01*
X80696960Y-59769224D01*
X80694686Y-59742360D01*
X80692917Y-59678309D01*
X80691686Y-59582215D01*
X80691024Y-59459223D01*
X80690965Y-59314477D01*
X80691540Y-59153122D01*
X80692333Y-59033682D01*
X80697916Y-58324750D01*
X80798458Y-58318298D01*
X80899000Y-58311847D01*
X80899000Y-59795833D01*
G36*
X75184000Y-58864500D02*
X75395666Y-58864500D01*
X75395666Y-59076166D01*
X75184000Y-59076166D01*
X75184000Y-59499500D01*
X75395666Y-59499500D01*
X75395666Y-59711166D01*
X75092277Y-59711166D01*
X74982971Y-59710230D01*
X74889137Y-59707659D01*
X74818729Y-59703805D01*
X74779704Y-59699022D01*
X74774777Y-59697055D01*
X74766101Y-59668865D01*
X74761127Y-59614901D01*
X74760666Y-59591222D01*
X74760666Y-59499500D01*
X74972333Y-59499500D01*
X74972333Y-58652833D01*
X75184000Y-58652833D01*
X75184000Y-58864500D01*
X75184000Y-58864500D01*
G37*
X75184000Y-58864500D02*
X75395666Y-58864500D01*
X75395666Y-59076166D01*
X75184000Y-59076166D01*
X75184000Y-59499500D01*
X75395666Y-59499500D01*
X75395666Y-59711166D01*
X75092277Y-59711166D01*
X74982971Y-59710230D01*
X74889137Y-59707659D01*
X74818729Y-59703805D01*
X74779704Y-59699022D01*
X74774777Y-59697055D01*
X74766101Y-59668865D01*
X74761127Y-59614901D01*
X74760666Y-59591222D01*
X74760666Y-59499500D01*
X74972333Y-59499500D01*
X74972333Y-58652833D01*
X75184000Y-58652833D01*
X75184000Y-58864500D01*
G36*
X75813708Y-58445691D02*
X76020083Y-58451750D01*
X76032895Y-58650604D01*
X76132322Y-58657010D01*
X76231750Y-58663416D01*
X76231750Y-59488916D01*
X76132322Y-59495322D01*
X76032895Y-59501728D01*
X76026489Y-59601155D01*
X76020083Y-59700583D01*
X75607333Y-59712699D01*
X75607333Y-59499500D01*
X76030666Y-59499500D01*
X76030666Y-58652833D01*
X75607333Y-58652833D01*
X75607333Y-58439633D01*
X75813708Y-58445691D01*
X75813708Y-58445691D01*
G37*
X75813708Y-58445691D02*
X76020083Y-58451750D01*
X76032895Y-58650604D01*
X76132322Y-58657010D01*
X76231750Y-58663416D01*
X76231750Y-59488916D01*
X76132322Y-59495322D01*
X76032895Y-59501728D01*
X76026489Y-59601155D01*
X76020083Y-59700583D01*
X75607333Y-59712699D01*
X75607333Y-59499500D01*
X76030666Y-59499500D01*
X76030666Y-58652833D01*
X75607333Y-58652833D01*
X75607333Y-58439633D01*
X75813708Y-58445691D01*
G36*
X79237416Y-59700583D02*
X78925208Y-59706440D01*
X78613000Y-59712298D01*
X78613000Y-59499500D01*
X79036333Y-59499500D01*
X79036333Y-59287833D01*
X79249532Y-59287833D01*
X79237416Y-59700583D01*
X79237416Y-59700583D01*
G37*
X79237416Y-59700583D02*
X78925208Y-59706440D01*
X78613000Y-59712298D01*
X78613000Y-59499500D01*
X79036333Y-59499500D01*
X79036333Y-59287833D01*
X79249532Y-59287833D01*
X79237416Y-59700583D01*
G36*
X79036333Y-59287833D02*
X78824666Y-59287833D01*
X78824666Y-59076166D01*
X79036333Y-59076166D01*
X79036333Y-59287833D01*
X79036333Y-59287833D01*
G37*
X79036333Y-59287833D02*
X78824666Y-59287833D01*
X78824666Y-59076166D01*
X79036333Y-59076166D01*
X79036333Y-59287833D01*
G36*
X78824666Y-59076166D02*
X78613000Y-59076166D01*
X78613000Y-58864500D01*
X78824666Y-58864500D01*
X78824666Y-59076166D01*
X78824666Y-59076166D01*
G37*
X78824666Y-59076166D02*
X78613000Y-59076166D01*
X78613000Y-58864500D01*
X78824666Y-58864500D01*
X78824666Y-59076166D01*
G36*
X79248000Y-58864500D02*
X78824666Y-58864500D01*
X78824666Y-58652833D01*
X79248000Y-58652833D01*
X79248000Y-58864500D01*
X79248000Y-58864500D01*
G37*
X79248000Y-58864500D02*
X78824666Y-58864500D01*
X78824666Y-58652833D01*
X79248000Y-58652833D01*
X79248000Y-58864500D01*
G36*
X79861833Y-59711166D02*
X79459666Y-59711166D01*
X79459666Y-59499500D01*
X79861833Y-59499500D01*
X79861833Y-59711166D01*
X79861833Y-59711166D01*
G37*
X79861833Y-59711166D02*
X79459666Y-59711166D01*
X79459666Y-59499500D01*
X79861833Y-59499500D01*
X79861833Y-59711166D01*
G36*
X80073500Y-59499500D02*
X79861833Y-59499500D01*
X79861833Y-58652833D01*
X80073500Y-58652833D01*
X80073500Y-59499500D01*
X80073500Y-59499500D01*
G37*
X80073500Y-59499500D02*
X79861833Y-59499500D01*
X79861833Y-58652833D01*
X80073500Y-58652833D01*
X80073500Y-59499500D01*
G36*
X79861833Y-58652833D02*
X79459666Y-58652833D01*
X79459666Y-58441166D01*
X79861833Y-58441166D01*
X79861833Y-58652833D01*
X79861833Y-58652833D01*
G37*
X79861833Y-58652833D02*
X79459666Y-58652833D01*
X79459666Y-58441166D01*
X79861833Y-58441166D01*
X79861833Y-58652833D01*
G36*
X82507666Y-58441166D02*
X82509703Y-58495360D01*
X82523960Y-58519441D01*
X82562659Y-58525629D01*
X82592333Y-58525833D01*
X82677000Y-58525833D01*
X82677000Y-59203166D01*
X82593550Y-59203166D01*
X82541131Y-59205239D01*
X82516064Y-59219334D01*
X82506532Y-59257265D01*
X82503592Y-59293125D01*
X82497083Y-59383083D01*
X82332721Y-59389271D01*
X82244907Y-59390754D01*
X82191211Y-59386367D01*
X82163686Y-59374997D01*
X82156517Y-59364600D01*
X82149985Y-59321301D01*
X82151546Y-59273746D01*
X82156361Y-59244307D01*
X82168415Y-59226182D01*
X82196544Y-59216150D01*
X82249586Y-59210991D01*
X82333041Y-59207602D01*
X82507666Y-59201454D01*
X82507666Y-58525833D01*
X82147833Y-58525833D01*
X82147833Y-58356500D01*
X82507666Y-58356500D01*
X82507666Y-58441166D01*
X82507666Y-58441166D01*
G37*
X82507666Y-58441166D02*
X82509703Y-58495360D01*
X82523960Y-58519441D01*
X82562659Y-58525629D01*
X82592333Y-58525833D01*
X82677000Y-58525833D01*
X82677000Y-59203166D01*
X82593550Y-59203166D01*
X82541131Y-59205239D01*
X82516064Y-59219334D01*
X82506532Y-59257265D01*
X82503592Y-59293125D01*
X82497083Y-59383083D01*
X82332721Y-59389271D01*
X82244907Y-59390754D01*
X82191211Y-59386367D01*
X82163686Y-59374997D01*
X82156517Y-59364600D01*
X82149985Y-59321301D01*
X82151546Y-59273746D01*
X82156361Y-59244307D01*
X82168415Y-59226182D01*
X82196544Y-59216150D01*
X82249586Y-59210991D01*
X82333041Y-59207602D01*
X82507666Y-59201454D01*
X82507666Y-58525833D01*
X82147833Y-58525833D01*
X82147833Y-58356500D01*
X82507666Y-58356500D01*
X82507666Y-58441166D01*
G36*
X83185000Y-59393666D02*
X82846333Y-59393666D01*
X82846333Y-59203166D01*
X83185000Y-59203166D01*
X83185000Y-59393666D01*
X83185000Y-59393666D01*
G37*
X83185000Y-59393666D02*
X82846333Y-59393666D01*
X82846333Y-59203166D01*
X83185000Y-59203166D01*
X83185000Y-59393666D01*
G36*
X83185000Y-58441166D02*
X83187036Y-58495360D01*
X83201294Y-58519441D01*
X83239992Y-58525629D01*
X83269666Y-58525833D01*
X83354333Y-58525833D01*
X83354333Y-59203166D01*
X83185000Y-59203166D01*
X83185000Y-58525833D01*
X82846333Y-58525833D01*
X82846333Y-58356500D01*
X83185000Y-58356500D01*
X83185000Y-58441166D01*
X83185000Y-58441166D01*
G37*
X83185000Y-58441166D02*
X83187036Y-58495360D01*
X83201294Y-58519441D01*
X83239992Y-58525629D01*
X83269666Y-58525833D01*
X83354333Y-58525833D01*
X83354333Y-59203166D01*
X83185000Y-59203166D01*
X83185000Y-58525833D01*
X82846333Y-58525833D01*
X82846333Y-58356500D01*
X83185000Y-58356500D01*
X83185000Y-58441166D01*
G36*
X84047917Y-58869791D02*
X84042250Y-59383083D01*
X83964150Y-59389576D01*
X83915323Y-59391663D01*
X83891773Y-59379833D01*
X83882604Y-59343192D01*
X83879484Y-59304910D01*
X83873146Y-59247799D01*
X83857703Y-59220346D01*
X83822048Y-59209922D01*
X83793541Y-59207180D01*
X83742411Y-59200272D01*
X83719914Y-59182157D01*
X83714309Y-59139530D01*
X83714166Y-59117222D01*
X83714166Y-59033833D01*
X83883500Y-59033833D01*
X83883500Y-58356500D01*
X84053585Y-58356500D01*
X84047917Y-58869791D01*
X84047917Y-58869791D01*
G37*
X84047917Y-58869791D02*
X84042250Y-59383083D01*
X83964150Y-59389576D01*
X83915323Y-59391663D01*
X83891773Y-59379833D01*
X83882604Y-59343192D01*
X83879484Y-59304910D01*
X83873146Y-59247799D01*
X83857703Y-59220346D01*
X83822048Y-59209922D01*
X83793541Y-59207180D01*
X83742411Y-59200272D01*
X83719914Y-59182157D01*
X83714309Y-59139530D01*
X83714166Y-59117222D01*
X83714166Y-59033833D01*
X83883500Y-59033833D01*
X83883500Y-58356500D01*
X84053585Y-58356500D01*
X84047917Y-58869791D01*
G36*
X83714166Y-59033833D02*
X83523666Y-59033833D01*
X83523666Y-58356500D01*
X83714166Y-58356500D01*
X83714166Y-59033833D01*
X83714166Y-59033833D01*
G37*
X83714166Y-59033833D02*
X83523666Y-59033833D01*
X83523666Y-58356500D01*
X83714166Y-58356500D01*
X83714166Y-59033833D01*
G36*
X85280500Y-58695166D02*
X84920666Y-58695166D01*
X84920666Y-58778616D01*
X84922739Y-58831034D01*
X84936834Y-58856102D01*
X84974765Y-58865633D01*
X85010625Y-58868574D01*
X85067263Y-58874985D01*
X85094338Y-58890818D01*
X85104578Y-58927398D01*
X85107152Y-58954458D01*
X85113991Y-59005405D01*
X85131904Y-59027955D01*
X85174120Y-59033670D01*
X85197967Y-59033833D01*
X85282212Y-59033833D01*
X85269916Y-59383083D01*
X85020803Y-59389050D01*
X84910622Y-59390743D01*
X84835993Y-59389162D01*
X84790215Y-59383675D01*
X84766589Y-59373647D01*
X84759932Y-59364379D01*
X84753465Y-59321268D01*
X84755046Y-59273746D01*
X84759861Y-59244307D01*
X84771915Y-59226182D01*
X84800044Y-59216150D01*
X84853086Y-59210991D01*
X84936541Y-59207602D01*
X85111166Y-59201454D01*
X85111166Y-59033833D01*
X84920666Y-59033833D01*
X84920666Y-58949166D01*
X84918629Y-58894973D01*
X84904372Y-58870892D01*
X84865674Y-58864703D01*
X84836000Y-58864500D01*
X84781806Y-58862463D01*
X84757725Y-58848205D01*
X84751536Y-58809507D01*
X84751333Y-58779833D01*
X84753370Y-58725639D01*
X84767627Y-58701558D01*
X84806325Y-58695370D01*
X84836000Y-58695166D01*
X84890193Y-58693129D01*
X84914274Y-58678872D01*
X84920463Y-58640174D01*
X84920666Y-58610500D01*
X84920666Y-58525833D01*
X85280500Y-58525833D01*
X85280500Y-58695166D01*
X85280500Y-58695166D01*
G37*
X85280500Y-58695166D02*
X84920666Y-58695166D01*
X84920666Y-58778616D01*
X84922739Y-58831034D01*
X84936834Y-58856102D01*
X84974765Y-58865633D01*
X85010625Y-58868574D01*
X85067263Y-58874985D01*
X85094338Y-58890818D01*
X85104578Y-58927398D01*
X85107152Y-58954458D01*
X85113991Y-59005405D01*
X85131904Y-59027955D01*
X85174120Y-59033670D01*
X85197967Y-59033833D01*
X85282212Y-59033833D01*
X85269916Y-59383083D01*
X85020803Y-59389050D01*
X84910622Y-59390743D01*
X84835993Y-59389162D01*
X84790215Y-59383675D01*
X84766589Y-59373647D01*
X84759932Y-59364379D01*
X84753465Y-59321268D01*
X84755046Y-59273746D01*
X84759861Y-59244307D01*
X84771915Y-59226182D01*
X84800044Y-59216150D01*
X84853086Y-59210991D01*
X84936541Y-59207602D01*
X85111166Y-59201454D01*
X85111166Y-59033833D01*
X84920666Y-59033833D01*
X84920666Y-58949166D01*
X84918629Y-58894973D01*
X84904372Y-58870892D01*
X84865674Y-58864703D01*
X84836000Y-58864500D01*
X84781806Y-58862463D01*
X84757725Y-58848205D01*
X84751536Y-58809507D01*
X84751333Y-58779833D01*
X84753370Y-58725639D01*
X84767627Y-58701558D01*
X84806325Y-58695370D01*
X84836000Y-58695166D01*
X84890193Y-58693129D01*
X84914274Y-58678872D01*
X84920463Y-58640174D01*
X84920666Y-58610500D01*
X84920666Y-58525833D01*
X85280500Y-58525833D01*
X85280500Y-58695166D01*
G36*
X85957833Y-59393666D02*
X85619166Y-59393666D01*
X85619166Y-59203166D01*
X85449833Y-59203166D01*
X85449833Y-58864500D01*
X85534500Y-58864500D01*
X85619166Y-58864500D01*
X85619166Y-59203166D01*
X85788500Y-59203166D01*
X85788500Y-58864500D01*
X85619166Y-58864500D01*
X85534500Y-58864500D01*
X85588693Y-58862463D01*
X85612774Y-58848205D01*
X85618963Y-58809507D01*
X85619166Y-58779833D01*
X85617129Y-58725639D01*
X85602872Y-58701558D01*
X85564174Y-58695370D01*
X85534500Y-58695166D01*
X85480306Y-58693129D01*
X85456225Y-58678872D01*
X85450036Y-58640174D01*
X85449833Y-58610500D01*
X85619166Y-58610500D01*
X85621203Y-58664693D01*
X85635460Y-58688774D01*
X85674159Y-58694963D01*
X85703833Y-58695166D01*
X85758026Y-58693129D01*
X85782107Y-58678872D01*
X85788296Y-58640174D01*
X85788500Y-58610500D01*
X85786463Y-58556306D01*
X85772205Y-58532225D01*
X85733507Y-58526036D01*
X85703833Y-58525833D01*
X85649639Y-58527870D01*
X85625558Y-58542127D01*
X85619370Y-58580825D01*
X85619166Y-58610500D01*
X85449833Y-58610500D01*
X85451870Y-58556306D01*
X85466127Y-58532225D01*
X85504825Y-58526036D01*
X85534500Y-58525833D01*
X85588693Y-58523796D01*
X85612774Y-58509539D01*
X85618963Y-58470840D01*
X85619166Y-58441166D01*
X85619166Y-58356500D01*
X85957833Y-58356500D01*
X85957833Y-59393666D01*
X85957833Y-59393666D01*
G37*
X85957833Y-59393666D02*
X85619166Y-59393666D01*
X85619166Y-59203166D01*
X85449833Y-59203166D01*
X85449833Y-58864500D01*
X85534500Y-58864500D01*
X85619166Y-58864500D01*
X85619166Y-59203166D01*
X85788500Y-59203166D01*
X85788500Y-58864500D01*
X85619166Y-58864500D01*
X85534500Y-58864500D01*
X85588693Y-58862463D01*
X85612774Y-58848205D01*
X85618963Y-58809507D01*
X85619166Y-58779833D01*
X85617129Y-58725639D01*
X85602872Y-58701558D01*
X85564174Y-58695370D01*
X85534500Y-58695166D01*
X85480306Y-58693129D01*
X85456225Y-58678872D01*
X85450036Y-58640174D01*
X85449833Y-58610500D01*
X85619166Y-58610500D01*
X85621203Y-58664693D01*
X85635460Y-58688774D01*
X85674159Y-58694963D01*
X85703833Y-58695166D01*
X85758026Y-58693129D01*
X85782107Y-58678872D01*
X85788296Y-58640174D01*
X85788500Y-58610500D01*
X85786463Y-58556306D01*
X85772205Y-58532225D01*
X85733507Y-58526036D01*
X85703833Y-58525833D01*
X85649639Y-58527870D01*
X85625558Y-58542127D01*
X85619370Y-58580825D01*
X85619166Y-58610500D01*
X85449833Y-58610500D01*
X85451870Y-58556306D01*
X85466127Y-58532225D01*
X85504825Y-58526036D01*
X85534500Y-58525833D01*
X85588693Y-58523796D01*
X85612774Y-58509539D01*
X85618963Y-58470840D01*
X85619166Y-58441166D01*
X85619166Y-58356500D01*
X85957833Y-58356500D01*
X85957833Y-59393666D01*
G36*
X86651417Y-58869791D02*
X86645750Y-59383083D01*
X86567250Y-59389600D01*
X86488751Y-59396117D01*
X86482584Y-59220267D01*
X86476416Y-59044416D01*
X86397041Y-59037847D01*
X86345911Y-59030938D01*
X86323414Y-59012823D01*
X86317809Y-58970197D01*
X86317666Y-58947888D01*
X86317666Y-58864500D01*
X86127166Y-58864500D01*
X86127166Y-58525833D01*
X86317666Y-58525833D01*
X86317666Y-58864500D01*
X86487000Y-58864500D01*
X86487000Y-58525833D01*
X86317666Y-58525833D01*
X86317666Y-58356500D01*
X86657085Y-58356500D01*
X86651417Y-58869791D01*
X86651417Y-58869791D01*
G37*
X86651417Y-58869791D02*
X86645750Y-59383083D01*
X86567250Y-59389600D01*
X86488751Y-59396117D01*
X86482584Y-59220267D01*
X86476416Y-59044416D01*
X86397041Y-59037847D01*
X86345911Y-59030938D01*
X86323414Y-59012823D01*
X86317809Y-58970197D01*
X86317666Y-58947888D01*
X86317666Y-58864500D01*
X86127166Y-58864500D01*
X86127166Y-58525833D01*
X86317666Y-58525833D01*
X86317666Y-58864500D01*
X86487000Y-58864500D01*
X86487000Y-58525833D01*
X86317666Y-58525833D01*
X86317666Y-58356500D01*
X86657085Y-58356500D01*
X86651417Y-58869791D01*
G36*
X87663026Y-58527870D02*
X87687107Y-58542127D01*
X87693296Y-58580825D01*
X87693500Y-58610500D01*
X87695536Y-58664693D01*
X87709794Y-58688774D01*
X87748492Y-58694963D01*
X87778166Y-58695166D01*
X87832360Y-58697203D01*
X87856441Y-58711460D01*
X87862629Y-58750159D01*
X87862833Y-58779833D01*
X87860796Y-58834026D01*
X87846539Y-58858107D01*
X87807840Y-58864296D01*
X87778166Y-58864500D01*
X87693500Y-58864500D01*
X87693500Y-59203166D01*
X87862833Y-59203166D01*
X87862833Y-59393666D01*
X87354833Y-59393666D01*
X87354833Y-59203166D01*
X87524166Y-59203166D01*
X87524166Y-58525833D01*
X87608833Y-58525833D01*
X87663026Y-58527870D01*
X87663026Y-58527870D01*
G37*
X87663026Y-58527870D02*
X87687107Y-58542127D01*
X87693296Y-58580825D01*
X87693500Y-58610500D01*
X87695536Y-58664693D01*
X87709794Y-58688774D01*
X87748492Y-58694963D01*
X87778166Y-58695166D01*
X87832360Y-58697203D01*
X87856441Y-58711460D01*
X87862629Y-58750159D01*
X87862833Y-58779833D01*
X87860796Y-58834026D01*
X87846539Y-58858107D01*
X87807840Y-58864296D01*
X87778166Y-58864500D01*
X87693500Y-58864500D01*
X87693500Y-59203166D01*
X87862833Y-59203166D01*
X87862833Y-59393666D01*
X87354833Y-59393666D01*
X87354833Y-59203166D01*
X87524166Y-59203166D01*
X87524166Y-58525833D01*
X87608833Y-58525833D01*
X87663026Y-58527870D01*
G36*
X88556417Y-58869791D02*
X88550750Y-59383083D01*
X88391048Y-59389187D01*
X88312401Y-59390271D01*
X88250921Y-59387543D01*
X88218217Y-59381588D01*
X88216423Y-59380367D01*
X88206748Y-59351209D01*
X88201706Y-59297973D01*
X88201500Y-59284305D01*
X88199307Y-59232368D01*
X88184585Y-59209290D01*
X88145113Y-59203360D01*
X88116833Y-59203166D01*
X88032166Y-59203166D01*
X88032166Y-58864500D01*
X88116833Y-58864500D01*
X88201500Y-58864500D01*
X88201500Y-59203166D01*
X88370833Y-59203166D01*
X88370833Y-58864500D01*
X88201500Y-58864500D01*
X88116833Y-58864500D01*
X88171026Y-58862463D01*
X88195107Y-58848205D01*
X88201296Y-58809507D01*
X88201500Y-58779833D01*
X88199463Y-58725639D01*
X88185205Y-58701558D01*
X88146507Y-58695370D01*
X88116833Y-58695166D01*
X88062639Y-58693129D01*
X88038558Y-58678872D01*
X88032370Y-58640174D01*
X88032166Y-58610500D01*
X88201500Y-58610500D01*
X88203536Y-58664693D01*
X88217794Y-58688774D01*
X88256492Y-58694963D01*
X88286166Y-58695166D01*
X88340360Y-58693129D01*
X88364441Y-58678872D01*
X88370629Y-58640174D01*
X88370833Y-58610500D01*
X88368796Y-58556306D01*
X88354539Y-58532225D01*
X88315840Y-58526036D01*
X88286166Y-58525833D01*
X88231973Y-58527870D01*
X88207892Y-58542127D01*
X88201703Y-58580825D01*
X88201500Y-58610500D01*
X88032166Y-58610500D01*
X88034203Y-58556306D01*
X88048460Y-58532225D01*
X88087159Y-58526036D01*
X88116833Y-58525833D01*
X88171026Y-58523796D01*
X88195107Y-58509539D01*
X88201296Y-58470840D01*
X88201500Y-58441166D01*
X88201500Y-58356500D01*
X88562085Y-58356500D01*
X88556417Y-58869791D01*
X88556417Y-58869791D01*
G37*
X88556417Y-58869791D02*
X88550750Y-59383083D01*
X88391048Y-59389187D01*
X88312401Y-59390271D01*
X88250921Y-59387543D01*
X88218217Y-59381588D01*
X88216423Y-59380367D01*
X88206748Y-59351209D01*
X88201706Y-59297973D01*
X88201500Y-59284305D01*
X88199307Y-59232368D01*
X88184585Y-59209290D01*
X88145113Y-59203360D01*
X88116833Y-59203166D01*
X88032166Y-59203166D01*
X88032166Y-58864500D01*
X88116833Y-58864500D01*
X88201500Y-58864500D01*
X88201500Y-59203166D01*
X88370833Y-59203166D01*
X88370833Y-58864500D01*
X88201500Y-58864500D01*
X88116833Y-58864500D01*
X88171026Y-58862463D01*
X88195107Y-58848205D01*
X88201296Y-58809507D01*
X88201500Y-58779833D01*
X88199463Y-58725639D01*
X88185205Y-58701558D01*
X88146507Y-58695370D01*
X88116833Y-58695166D01*
X88062639Y-58693129D01*
X88038558Y-58678872D01*
X88032370Y-58640174D01*
X88032166Y-58610500D01*
X88201500Y-58610500D01*
X88203536Y-58664693D01*
X88217794Y-58688774D01*
X88256492Y-58694963D01*
X88286166Y-58695166D01*
X88340360Y-58693129D01*
X88364441Y-58678872D01*
X88370629Y-58640174D01*
X88370833Y-58610500D01*
X88368796Y-58556306D01*
X88354539Y-58532225D01*
X88315840Y-58526036D01*
X88286166Y-58525833D01*
X88231973Y-58527870D01*
X88207892Y-58542127D01*
X88201703Y-58580825D01*
X88201500Y-58610500D01*
X88032166Y-58610500D01*
X88034203Y-58556306D01*
X88048460Y-58532225D01*
X88087159Y-58526036D01*
X88116833Y-58525833D01*
X88171026Y-58523796D01*
X88195107Y-58509539D01*
X88201296Y-58470840D01*
X88201500Y-58441166D01*
X88201500Y-58356500D01*
X88562085Y-58356500D01*
X88556417Y-58869791D01*
G36*
X89238666Y-59393666D02*
X89069333Y-59393666D01*
X89069333Y-59033833D01*
X88984666Y-59033833D01*
X88930473Y-59031796D01*
X88906392Y-59017539D01*
X88900203Y-58978840D01*
X88900000Y-58949166D01*
X88897963Y-58894973D01*
X88883705Y-58870892D01*
X88845007Y-58864703D01*
X88815333Y-58864500D01*
X88730666Y-58864500D01*
X88730666Y-58525833D01*
X88815333Y-58525833D01*
X88900000Y-58525833D01*
X88900000Y-58864500D01*
X89069333Y-58864500D01*
X89069333Y-58525833D01*
X88900000Y-58525833D01*
X88815333Y-58525833D01*
X88869526Y-58523796D01*
X88893607Y-58509539D01*
X88899796Y-58470840D01*
X88900000Y-58441166D01*
X88900000Y-58356500D01*
X89238666Y-58356500D01*
X89238666Y-59393666D01*
X89238666Y-59393666D01*
G37*
X89238666Y-59393666D02*
X89069333Y-59393666D01*
X89069333Y-59033833D01*
X88984666Y-59033833D01*
X88930473Y-59031796D01*
X88906392Y-59017539D01*
X88900203Y-58978840D01*
X88900000Y-58949166D01*
X88897963Y-58894973D01*
X88883705Y-58870892D01*
X88845007Y-58864703D01*
X88815333Y-58864500D01*
X88730666Y-58864500D01*
X88730666Y-58525833D01*
X88815333Y-58525833D01*
X88900000Y-58525833D01*
X88900000Y-58864500D01*
X89069333Y-58864500D01*
X89069333Y-58525833D01*
X88900000Y-58525833D01*
X88815333Y-58525833D01*
X88869526Y-58523796D01*
X88893607Y-58509539D01*
X88899796Y-58470840D01*
X88900000Y-58441166D01*
X88900000Y-58356500D01*
X89238666Y-58356500D01*
X89238666Y-59393666D01*
G36*
X90160693Y-58527870D02*
X90184774Y-58542127D01*
X90190963Y-58580825D01*
X90191166Y-58610500D01*
X90191166Y-58695166D01*
X90381666Y-58695166D01*
X90381666Y-59203166D01*
X90191166Y-59203166D01*
X90191166Y-59298416D01*
X90189505Y-59356948D01*
X90178834Y-59384666D01*
X90150623Y-59393086D01*
X90120611Y-59393666D01*
X90068310Y-59389794D01*
X90036900Y-59380388D01*
X90035944Y-59379555D01*
X90026804Y-59350972D01*
X90022032Y-59298093D01*
X90021833Y-59284305D01*
X90019641Y-59232368D01*
X90004918Y-59209290D01*
X89965446Y-59203360D01*
X89937166Y-59203166D01*
X90019277Y-59203166D01*
X90191166Y-59203166D01*
X90191166Y-59031277D01*
X90111791Y-59037847D01*
X90059387Y-59045564D01*
X90035615Y-59066043D01*
X90026783Y-59112976D01*
X90025847Y-59123791D01*
X90019277Y-59203166D01*
X89937166Y-59203166D01*
X89852500Y-59203166D01*
X89852500Y-58779833D01*
X90021833Y-58779833D01*
X90023870Y-58834026D01*
X90038127Y-58858107D01*
X90076825Y-58864296D01*
X90106500Y-58864500D01*
X90160693Y-58862463D01*
X90184774Y-58848205D01*
X90190963Y-58809507D01*
X90191166Y-58779833D01*
X90189129Y-58725639D01*
X90174872Y-58701558D01*
X90136174Y-58695370D01*
X90106500Y-58695166D01*
X90052306Y-58697203D01*
X90028225Y-58711460D01*
X90022036Y-58750159D01*
X90021833Y-58779833D01*
X89852500Y-58779833D01*
X89852500Y-58695166D01*
X89937166Y-58695166D01*
X89991360Y-58693129D01*
X90015441Y-58678872D01*
X90021629Y-58640174D01*
X90021833Y-58610500D01*
X90023870Y-58556306D01*
X90038127Y-58532225D01*
X90076825Y-58526036D01*
X90106500Y-58525833D01*
X90160693Y-58527870D01*
X90160693Y-58527870D01*
G37*
X90160693Y-58527870D02*
X90184774Y-58542127D01*
X90190963Y-58580825D01*
X90191166Y-58610500D01*
X90191166Y-58695166D01*
X90381666Y-58695166D01*
X90381666Y-59203166D01*
X90191166Y-59203166D01*
X90191166Y-59298416D01*
X90189505Y-59356948D01*
X90178834Y-59384666D01*
X90150623Y-59393086D01*
X90120611Y-59393666D01*
X90068310Y-59389794D01*
X90036900Y-59380388D01*
X90035944Y-59379555D01*
X90026804Y-59350972D01*
X90022032Y-59298093D01*
X90021833Y-59284305D01*
X90019641Y-59232368D01*
X90004918Y-59209290D01*
X89965446Y-59203360D01*
X89937166Y-59203166D01*
X90019277Y-59203166D01*
X90191166Y-59203166D01*
X90191166Y-59031277D01*
X90111791Y-59037847D01*
X90059387Y-59045564D01*
X90035615Y-59066043D01*
X90026783Y-59112976D01*
X90025847Y-59123791D01*
X90019277Y-59203166D01*
X89937166Y-59203166D01*
X89852500Y-59203166D01*
X89852500Y-58779833D01*
X90021833Y-58779833D01*
X90023870Y-58834026D01*
X90038127Y-58858107D01*
X90076825Y-58864296D01*
X90106500Y-58864500D01*
X90160693Y-58862463D01*
X90184774Y-58848205D01*
X90190963Y-58809507D01*
X90191166Y-58779833D01*
X90189129Y-58725639D01*
X90174872Y-58701558D01*
X90136174Y-58695370D01*
X90106500Y-58695166D01*
X90052306Y-58697203D01*
X90028225Y-58711460D01*
X90022036Y-58750159D01*
X90021833Y-58779833D01*
X89852500Y-58779833D01*
X89852500Y-58695166D01*
X89937166Y-58695166D01*
X89991360Y-58693129D01*
X90015441Y-58678872D01*
X90021629Y-58640174D01*
X90021833Y-58610500D01*
X90023870Y-58556306D01*
X90038127Y-58532225D01*
X90076825Y-58526036D01*
X90106500Y-58525833D01*
X90160693Y-58527870D01*
G36*
X91059000Y-59393666D02*
X90720333Y-59393666D01*
X90720333Y-59203166D01*
X90551000Y-59203166D01*
X90551000Y-58864500D01*
X90635666Y-58864500D01*
X90720333Y-58864500D01*
X90720333Y-59203166D01*
X90889666Y-59203166D01*
X90889666Y-58864500D01*
X90720333Y-58864500D01*
X90635666Y-58864500D01*
X90689860Y-58862463D01*
X90713941Y-58848205D01*
X90720129Y-58809507D01*
X90720333Y-58779833D01*
X90718296Y-58725639D01*
X90704039Y-58701558D01*
X90665340Y-58695370D01*
X90635666Y-58695166D01*
X90581473Y-58693129D01*
X90557392Y-58678872D01*
X90551203Y-58640174D01*
X90551000Y-58610500D01*
X90720333Y-58610500D01*
X90722370Y-58664693D01*
X90736627Y-58688774D01*
X90775325Y-58694963D01*
X90805000Y-58695166D01*
X90859193Y-58693129D01*
X90883274Y-58678872D01*
X90889463Y-58640174D01*
X90889666Y-58610500D01*
X90887629Y-58556306D01*
X90873372Y-58532225D01*
X90834674Y-58526036D01*
X90805000Y-58525833D01*
X90750806Y-58527870D01*
X90726725Y-58542127D01*
X90720536Y-58580825D01*
X90720333Y-58610500D01*
X90551000Y-58610500D01*
X90553036Y-58556306D01*
X90567294Y-58532225D01*
X90605992Y-58526036D01*
X90635666Y-58525833D01*
X90689860Y-58523796D01*
X90713941Y-58509539D01*
X90720129Y-58470840D01*
X90720333Y-58441166D01*
X90720333Y-58356500D01*
X91059000Y-58356500D01*
X91059000Y-59393666D01*
X91059000Y-59393666D01*
G37*
X91059000Y-59393666D02*
X90720333Y-59393666D01*
X90720333Y-59203166D01*
X90551000Y-59203166D01*
X90551000Y-58864500D01*
X90635666Y-58864500D01*
X90720333Y-58864500D01*
X90720333Y-59203166D01*
X90889666Y-59203166D01*
X90889666Y-58864500D01*
X90720333Y-58864500D01*
X90635666Y-58864500D01*
X90689860Y-58862463D01*
X90713941Y-58848205D01*
X90720129Y-58809507D01*
X90720333Y-58779833D01*
X90718296Y-58725639D01*
X90704039Y-58701558D01*
X90665340Y-58695370D01*
X90635666Y-58695166D01*
X90581473Y-58693129D01*
X90557392Y-58678872D01*
X90551203Y-58640174D01*
X90551000Y-58610500D01*
X90720333Y-58610500D01*
X90722370Y-58664693D01*
X90736627Y-58688774D01*
X90775325Y-58694963D01*
X90805000Y-58695166D01*
X90859193Y-58693129D01*
X90883274Y-58678872D01*
X90889463Y-58640174D01*
X90889666Y-58610500D01*
X90887629Y-58556306D01*
X90873372Y-58532225D01*
X90834674Y-58526036D01*
X90805000Y-58525833D01*
X90750806Y-58527870D01*
X90726725Y-58542127D01*
X90720536Y-58580825D01*
X90720333Y-58610500D01*
X90551000Y-58610500D01*
X90553036Y-58556306D01*
X90567294Y-58532225D01*
X90605992Y-58526036D01*
X90635666Y-58525833D01*
X90689860Y-58523796D01*
X90713941Y-58509539D01*
X90720129Y-58470840D01*
X90720333Y-58441166D01*
X90720333Y-58356500D01*
X91059000Y-58356500D01*
X91059000Y-59393666D01*
G36*
X91752584Y-58869791D02*
X91746916Y-59383083D01*
X91589918Y-59396117D01*
X91583750Y-59220267D01*
X91577583Y-59044416D01*
X91487625Y-59037907D01*
X91431279Y-59031908D01*
X91405356Y-59016957D01*
X91398039Y-58981241D01*
X91397666Y-58947949D01*
X91395578Y-58894534D01*
X91381165Y-58870800D01*
X91342209Y-58864700D01*
X91313000Y-58864500D01*
X91228333Y-58864500D01*
X91228333Y-58525833D01*
X91313000Y-58525833D01*
X91397666Y-58525833D01*
X91397666Y-58864500D01*
X91588166Y-58864500D01*
X91588166Y-58525833D01*
X91397666Y-58525833D01*
X91313000Y-58525833D01*
X91367193Y-58523796D01*
X91391274Y-58509539D01*
X91397463Y-58470840D01*
X91397666Y-58441166D01*
X91397666Y-58356500D01*
X91758252Y-58356500D01*
X91752584Y-58869791D01*
X91752584Y-58869791D01*
G37*
X91752584Y-58869791D02*
X91746916Y-59383083D01*
X91589918Y-59396117D01*
X91583750Y-59220267D01*
X91577583Y-59044416D01*
X91487625Y-59037907D01*
X91431279Y-59031908D01*
X91405356Y-59016957D01*
X91398039Y-58981241D01*
X91397666Y-58947949D01*
X91395578Y-58894534D01*
X91381165Y-58870800D01*
X91342209Y-58864700D01*
X91313000Y-58864500D01*
X91228333Y-58864500D01*
X91228333Y-58525833D01*
X91313000Y-58525833D01*
X91397666Y-58525833D01*
X91397666Y-58864500D01*
X91588166Y-58864500D01*
X91588166Y-58525833D01*
X91397666Y-58525833D01*
X91313000Y-58525833D01*
X91367193Y-58523796D01*
X91391274Y-58509539D01*
X91397463Y-58470840D01*
X91397666Y-58441166D01*
X91397666Y-58356500D01*
X91758252Y-58356500D01*
X91752584Y-58869791D01*
G36*
X97277868Y-58922708D02*
X97271416Y-59023250D01*
X96535875Y-59028815D01*
X95800333Y-59034381D01*
X95800333Y-58822166D01*
X97284319Y-58822166D01*
X97277868Y-58922708D01*
X97277868Y-58922708D01*
G37*
X97277868Y-58922708D02*
X97271416Y-59023250D01*
X96535875Y-59028815D01*
X95800333Y-59034381D01*
X95800333Y-58822166D01*
X97284319Y-58822166D01*
X97277868Y-58922708D01*
G36*
X97282000Y-58377666D02*
X95800333Y-58377666D01*
X95800333Y-58166000D01*
X97282000Y-58166000D01*
X97282000Y-58377666D01*
X97282000Y-58377666D01*
G37*
X97282000Y-58377666D02*
X95800333Y-58377666D01*
X95800333Y-58166000D01*
X97282000Y-58166000D01*
X97282000Y-58377666D01*
G36*
X96255416Y-56779583D02*
X96261822Y-56879010D01*
X96268228Y-56978438D01*
X96367655Y-56984844D01*
X96467083Y-56991250D01*
X96472940Y-57303458D01*
X96478798Y-57615666D01*
X96266000Y-57615666D01*
X96266000Y-57827333D01*
X96054333Y-57827333D01*
X96054333Y-57615666D01*
X95842666Y-57615666D01*
X95842666Y-57404000D01*
X96054333Y-57404000D01*
X96054333Y-57615666D01*
X96266000Y-57615666D01*
X96266000Y-57404000D01*
X96054333Y-57404000D01*
X96054333Y-57192333D01*
X96266000Y-57192333D01*
X96266000Y-56980666D01*
X95842666Y-56980666D01*
X95842666Y-56767467D01*
X96255416Y-56779583D01*
X96255416Y-56779583D01*
G37*
X96255416Y-56779583D02*
X96261822Y-56879010D01*
X96268228Y-56978438D01*
X96367655Y-56984844D01*
X96467083Y-56991250D01*
X96472940Y-57303458D01*
X96478798Y-57615666D01*
X96266000Y-57615666D01*
X96266000Y-57827333D01*
X96054333Y-57827333D01*
X96054333Y-57615666D01*
X95842666Y-57615666D01*
X95842666Y-57404000D01*
X96054333Y-57404000D01*
X96054333Y-57615666D01*
X96266000Y-57615666D01*
X96266000Y-57404000D01*
X96054333Y-57404000D01*
X96054333Y-57192333D01*
X96266000Y-57192333D01*
X96266000Y-56980666D01*
X95842666Y-56980666D01*
X95842666Y-56767467D01*
X96255416Y-56779583D01*
G36*
X96879833Y-57192333D02*
X96689333Y-57192333D01*
X96689333Y-56769000D01*
X96877513Y-56769000D01*
X96879833Y-56769000D01*
X96879833Y-57192333D01*
X97091500Y-57192333D01*
X97091500Y-56769000D01*
X96879833Y-56769000D01*
X96877513Y-56769000D01*
X96883965Y-56668458D01*
X96890416Y-56567916D01*
X97303166Y-56555800D01*
X97303166Y-57827333D01*
X97091500Y-57827333D01*
X97091500Y-57404000D01*
X96879833Y-57404000D01*
X96879833Y-57192333D01*
X96879833Y-57192333D01*
G37*
X96879833Y-57192333D02*
X96689333Y-57192333D01*
X96689333Y-56769000D01*
X96877513Y-56769000D01*
X96879833Y-56769000D01*
X96879833Y-57192333D01*
X97091500Y-57192333D01*
X97091500Y-56769000D01*
X96879833Y-56769000D01*
X96877513Y-56769000D01*
X96883965Y-56668458D01*
X96890416Y-56567916D01*
X97303166Y-56555800D01*
X97303166Y-57827333D01*
X97091500Y-57827333D01*
X97091500Y-57404000D01*
X96879833Y-57404000D01*
X96879833Y-57192333D01*
G36*
X96879833Y-57827333D02*
X96689333Y-57827333D01*
X96689333Y-57404000D01*
X96879833Y-57404000D01*
X96879833Y-57827333D01*
X96879833Y-57827333D01*
G37*
X96879833Y-57827333D02*
X96689333Y-57827333D01*
X96689333Y-57404000D01*
X96879833Y-57404000D01*
X96879833Y-57827333D01*
G36*
X97282000Y-56261000D02*
X95800333Y-56261000D01*
X95800333Y-56049333D01*
X97282000Y-56049333D01*
X97282000Y-56261000D01*
X97282000Y-56261000D01*
G37*
X97282000Y-56261000D02*
X95800333Y-56261000D01*
X95800333Y-56049333D01*
X97282000Y-56049333D01*
X97282000Y-56261000D01*
M02*
